<svg width="80" height="80" viewBox="0 0 80 80" fill="none" xmlns="http://www.w3.org/2000/svg">
<path d="M45.8995 7.50117C45.9995 7.60117 46.1995 7.70117 46.3995 7.70117C49.2995 8.30117 52.1995 9.30117 54.7995 10.6012C52.4995 14.8012 53.1995 20.1012 56.5995 23.5012C59.9995 26.9012 65.2995 27.7012 69.4995 25.3012C70.7995 28.0012 71.7995 30.8012 72.3995 33.7012C72.3995 33.9012 72.4995 34.0012 72.5995 34.2012C72.6995 34.3012 72.7995 34.5012 72.9995 34.6012C73.1995 34.7012 73.4995 34.8012 73.6995 34.8012C73.7995 34.8012 73.8995 34.8012 73.8995 34.8012C74.0995 34.8012 74.1995 34.7012 74.3995 34.6012C74.4995 34.5012 74.6995 34.4012 74.7995 34.2012C74.9995 33.9012 75.0995 33.5012 74.9995 33.2012C74.2995 29.9012 73.1995 26.7012 71.6995 23.7012C71.7995 23.6012 71.8995 23.5012 71.9995 23.4012C76.1995 19.2012 76.1995 12.3012 71.9995 8.10117C67.7995 3.90117 60.8995 3.90117 56.6995 8.10117C56.5995 8.20117 56.4995 8.30117 56.3995 8.40117C53.3995 6.90117 50.1995 5.70117 46.8995 5.10117C46.5995 5.00117 46.1995 5.10117 45.8995 5.30117C45.7995 5.40117 45.5995 5.50117 45.4995 5.70117C45.3995 5.80117 45.2995 6.00117 45.2995 6.20117C45.1995 6.50117 45.2995 6.90117 45.4995 7.20117C45.5995 7.20117 45.6995 7.40117 45.8995 7.50117ZM58.3995 10.0012C59.9995 8.40117 62.0995 7.60117 64.1995 7.60117C66.2995 7.60117 68.3995 8.40117 69.9995 10.0012C73.1995 13.2012 73.1995 18.4012 69.9995 21.7012C66.7995 24.9012 61.5995 24.9012 58.3995 21.7012C55.1995 18.4012 55.1995 13.2012 58.3995 10.0012Z" fill="url(#paint0_linear_1_512)"/>
<path d="M33.7996 5.10039C33.5996 5.00039 33.3996 5.00039 33.1996 5.10039C29.8996 5.70039 26.6996 6.90039 23.6996 8.40039C23.5996 8.30039 23.4996 8.20039 23.4996 8.10039C21.4996 6.10039 18.6996 4.90039 15.7996 4.90039C12.8996 5.00039 10.1996 6.10039 8.19961 8.20039C3.99961 12.4004 3.99961 19.3004 8.19961 23.5004C8.29961 23.6004 8.39961 23.7004 8.39961 23.7004C6.79961 26.7004 5.69961 29.9004 5.09961 33.2004C4.99961 33.5004 5.09961 33.9004 5.29961 34.2004C5.39961 34.3004 5.49961 34.5004 5.69961 34.6004C5.79961 34.7004 5.99961 34.8004 6.19961 34.8004C6.29961 34.8004 6.39961 34.8004 6.49961 34.8004C6.79961 34.8004 6.99961 34.7004 7.19961 34.6004C7.29961 34.5004 7.49961 34.4004 7.59961 34.2004C7.69961 34.1004 7.79961 33.9004 7.79961 33.7004C8.39961 30.8004 9.39961 27.9004 10.6996 25.2004C14.8996 27.6004 20.1996 26.8004 23.6996 23.4004C27.0996 20.0004 27.8996 14.7004 25.4996 10.5004C28.1996 9.20039 30.9996 8.20039 33.8996 7.60039C34.0996 7.60039 34.3996 7.40039 34.4996 7.30039C34.6996 7.10039 34.7996 6.90039 34.8996 6.70039C34.9996 6.50039 34.9996 6.20039 34.8996 6.00039C34.5996 5.60039 34.2996 5.30039 33.7996 5.10039ZM24.0996 15.8004C24.0996 18.0004 23.1996 20.1004 21.6996 21.6004C20.1996 23.1004 18.0996 24.0004 15.8996 24.0004C13.6996 24.0004 11.5996 23.1004 10.0996 21.6004C8.49961 20.0004 7.69961 18.0004 7.69961 15.8004C7.59961 13.6004 8.39961 11.6004 9.99961 10.0004C11.5996 8.40039 13.5996 7.60039 15.7996 7.60039C17.9996 7.60039 20.0996 8.50039 21.5996 10.0004C23.1996 11.6004 24.0996 13.6004 24.0996 15.8004Z" fill="url(#paint1_linear_1_512)"/>
<path d="M71.5996 56.8004C73.0996 53.8004 74.2996 50.6004 74.8996 47.3004C74.8996 47.1004 74.8996 46.9004 74.8996 46.7004C74.7996 46.5004 74.6996 46.3004 74.5996 46.1004C74.3996 45.9004 74.1996 45.8004 73.9996 45.8004C73.7996 45.7004 73.4996 45.8004 73.2996 45.8004C73.0996 45.9004 72.8996 46.0004 72.6996 46.2004C72.4996 46.4004 72.3996 46.6004 72.3996 46.8004C71.7996 49.7004 70.7996 52.5004 69.4996 55.2004C65.2996 52.8004 59.9996 53.6004 56.5996 57.0004C53.1996 60.4004 52.3996 65.7004 54.7996 70.0004C52.0996 71.3004 49.2996 72.3004 46.3996 72.9004C46.1996 72.9004 46.0996 73.0004 45.8996 73.1004C45.7996 73.2004 45.5996 73.3004 45.4996 73.5004C45.2996 73.8004 45.1996 74.1004 45.2996 74.5004C45.2996 74.7004 45.3996 74.8004 45.4996 75.0004C45.5996 75.1004 45.6996 75.3004 45.8996 75.4004C46.1996 75.6004 46.4996 75.7004 46.8996 75.6004C50.1996 74.9004 53.3996 73.8004 56.3996 72.3004C56.4996 72.4004 56.5996 72.5004 56.5996 72.5004C58.5996 74.5004 61.3996 75.7004 64.2996 75.7004C67.1996 75.7004 69.8996 74.6004 71.9996 72.5004C74.0996 70.4004 75.1996 67.7004 75.1996 64.8004C75.1996 61.9004 74.0996 59.2004 71.9996 57.1004C71.7996 56.9004 71.6996 56.8004 71.5996 56.8004ZM70.0996 70.5004C66.8996 73.7004 61.6996 73.7004 58.4996 70.5004C58.2996 70.3004 58.0996 70.1004 57.9996 69.9004L57.8996 69.8004C57.7996 69.7004 57.7996 69.6004 57.6996 69.5004C55.2996 66.2004 55.5996 61.7004 58.4996 58.8004C61.6996 55.6004 66.8996 55.6004 70.0996 58.7004L70.1996 58.8004C73.2996 62.1004 73.2996 67.3004 70.0996 70.5004Z" fill="url(#paint2_linear_1_512)"/>
<path d="M34.1996 73.1013C34.0996 73.0013 33.8996 72.9013 33.6996 72.9013C30.7996 72.3013 27.8996 71.3013 25.2996 70.0013C27.6996 65.8013 26.9996 60.5013 23.4996 57.0013L23.2996 56.8013C19.7996 53.5013 14.6996 52.8013 10.4996 55.2013C9.19961 52.5013 8.19961 49.7013 7.59961 46.8013C7.59961 46.6013 7.49961 46.5013 7.39961 46.3013C7.29961 46.2013 7.19961 46.0013 6.99961 45.9013C6.69961 45.7013 6.39961 45.6013 5.99961 45.7013C5.79961 45.7013 5.69961 45.8013 5.49961 45.9013C5.39961 46.0013 5.19961 46.1013 5.09961 46.3013C4.89961 46.6013 4.79961 46.9013 4.89961 47.3013C5.59961 50.6013 6.69961 53.8013 8.19961 56.8013C8.09961 56.9013 7.99961 57.0013 7.99961 57.0013C3.79961 61.2013 3.79961 68.1013 7.99961 72.3013C10.0996 74.4013 12.8996 75.5013 15.6996 75.5013C18.4996 75.5013 21.1996 74.4013 23.3996 72.3013C23.4996 72.2013 23.5996 72.1013 23.5996 72.1013C26.5996 73.6013 29.7996 74.8013 33.0996 75.4013C33.3996 75.5013 33.7996 75.4013 34.0996 75.2013C34.1996 75.1013 34.3996 75.0013 34.4996 74.8013C34.5996 74.7013 34.6996 74.5013 34.6996 74.3013C34.7996 74.0013 34.6996 73.6013 34.4996 73.3013C34.3996 73.3013 34.2996 73.2013 34.1996 73.1013ZM21.6996 70.5013C18.4996 73.7013 13.2996 73.7013 10.0996 70.5013C6.89961 67.3013 6.89961 62.1013 10.0996 58.8013C10.3996 58.5013 10.5996 58.3013 10.8996 58.1013V58.0013C12.3996 56.9013 14.0996 56.4013 15.7996 56.4013C17.8996 56.4013 19.9996 57.2013 21.5996 58.8013C24.8996 62.1013 24.8996 67.3013 21.6996 70.5013Z" fill="url(#paint3_linear_1_512)"/>
<defs>
<linearGradient id="paint0_linear_1_512" x1="-40.0005" y1="28" x2="82.7503" y2="114.31" gradientUnits="userSpaceOnUse">
<stop stop-color="#E7F1FF"/>
<stop offset="0.305858" stop-color="#F05596"/>
<stop offset="0.671875" stop-color="#558DF9"/>
<stop offset="0.953125" stop-color="#31BCFF"/>
</linearGradient>
<linearGradient id="paint1_linear_1_512" x1="-40.0005" y1="28" x2="82.7503" y2="114.31" gradientUnits="userSpaceOnUse">
<stop stop-color="#E7F1FF"/>
<stop offset="0.305858" stop-color="#F05596"/>
<stop offset="0.671875" stop-color="#558DF9"/>
<stop offset="0.953125" stop-color="#31BCFF"/>
</linearGradient>
<linearGradient id="paint2_linear_1_512" x1="-40.0005" y1="28" x2="82.7503" y2="114.31" gradientUnits="userSpaceOnUse">
<stop stop-color="#E7F1FF"/>
<stop offset="0.305858" stop-color="#F05596"/>
<stop offset="0.671875" stop-color="#558DF9"/>
<stop offset="0.953125" stop-color="#31BCFF"/>
</linearGradient>
<linearGradient id="paint3_linear_1_512" x1="-40.0005" y1="28" x2="82.7503" y2="114.31" gradientUnits="userSpaceOnUse">
<stop stop-color="#E7F1FF"/>
<stop offset="0.305858" stop-color="#F05596"/>
<stop offset="0.671875" stop-color="#558DF9"/>
<stop offset="0.953125" stop-color="#31BCFF"/>
</linearGradient>
</defs>
</svg>
