<svg width="80" height="80" viewBox="0 0 80 80" fill="none" xmlns="http://www.w3.org/2000/svg">
<path d="M31.5744 61.0235C35.8586 67.3231 43.951 71.2364 52.805 71.2364C57.1843 71.2364 61.4685 70.2819 65.1815 68.373H65.3719L75.3683 71.9046C75.4636 71.9046 75.654 72 75.7492 72C76.13 72 76.5108 71.8091 76.7012 71.5228C77.082 71.141 77.082 70.5683 76.7964 70.091L72.5122 63.1233L72.417 62.9325L72.5122 62.837C75.4636 59.4963 76.9868 55.4875 76.9868 51.3833C76.9868 46.0382 74.2259 40.7885 69.4657 37.0661L69.3705 36.9706V36.8752C69.4657 35.9207 69.5609 35.0617 69.5609 34.1072C69.6561 19.1219 54.709 7 36.3346 7C27.4806 7 19.1027 9.86344 12.724 14.9222C6.44053 20.0764 3.01318 26.8532 3.01318 34.1072C3.01318 39.8341 5.20288 45.37 9.39186 50.047L9.48706 50.1424L9.39186 50.3333L3.20359 60.4508C2.91798 60.928 2.91798 61.5007 3.29879 61.8825C3.5844 62.1689 3.87002 62.3598 4.25083 62.3598C4.44124 62.3598 4.53645 62.3598 4.63165 62.2643L18.7219 57.2056H18.9123C22.7204 59.1145 26.9094 60.3554 31.2888 60.8326L31.5744 61.0235ZM68.8945 39.7386L69.1801 40.025C72.6074 43.1747 74.5115 47.1836 74.5115 51.3833C74.5115 55.2012 72.893 58.9236 69.9417 61.8825C69.5609 62.2643 69.4657 62.9325 69.7513 63.4097L72.417 67.7048L72.7978 68.2775L72.1314 68.0866L65.5623 65.7004C65.4671 65.7004 65.2767 65.605 65.1815 65.605C64.9911 65.605 64.8007 65.7004 64.6103 65.7004C61.0877 67.514 56.8987 68.5639 52.805 68.5639C45.7598 68.5639 39.3812 65.9868 35.2874 61.5007L34.9066 61.1189H35.4778C35.573 61.1189 35.6682 61.1189 35.8586 61.1189C36.049 61.1189 36.2394 61.1189 36.4298 61.1189C51.8529 61.1189 65.4671 52.2423 68.8945 40.025V39.7386ZM19.5787 54.7239C19.3883 54.6285 19.1979 54.6285 19.0075 54.6285C18.9123 54.6285 18.7219 54.6285 18.6267 54.7239L7.86859 58.5419L7.20216 58.7327L7.58298 58.1601L12.1528 50.7151C12.4384 50.2379 12.3432 49.5698 11.9624 49.188C7.77339 44.7974 5.48849 39.6432 5.48849 34.1072C5.48849 27.5213 8.72543 21.3172 14.5329 16.7357C20.4355 12.0587 28.1471 9.48164 36.3346 9.48164C53.281 9.48164 67.1808 20.5536 67.1808 34.1072C67.1808 47.6608 53.281 58.7327 36.3346 58.7327C30.3368 58.7327 24.6245 57.3965 19.5787 54.7239Z" fill="white"/>
<path d="M31.5744 61.0235C35.8586 67.3231 43.951 71.2364 52.805 71.2364C57.1843 71.2364 61.4685 70.2819 65.1815 68.373H65.3719L75.3683 71.9046C75.4636 71.9046 75.654 72 75.7492 72C76.13 72 76.5108 71.8091 76.7012 71.5228C77.082 71.141 77.082 70.5683 76.7964 70.091L72.5122 63.1233L72.417 62.9325L72.5122 62.837C75.4636 59.4963 76.9868 55.4875 76.9868 51.3833C76.9868 46.0382 74.2259 40.7885 69.4657 37.0661L69.3705 36.9706V36.8752C69.4657 35.9207 69.5609 35.0617 69.5609 34.1072C69.6561 19.1219 54.709 7 36.3346 7C27.4806 7 19.1027 9.86344 12.724 14.9222C6.44053 20.0764 3.01318 26.8532 3.01318 34.1072C3.01318 39.8341 5.20288 45.37 9.39186 50.047L9.48706 50.1424L9.39186 50.3333L3.20359 60.4508C2.91798 60.928 2.91798 61.5007 3.29879 61.8825C3.5844 62.1689 3.87002 62.3598 4.25083 62.3598C4.44124 62.3598 4.53645 62.3598 4.63165 62.2643L18.7219 57.2056H18.9123C22.7204 59.1145 26.9094 60.3554 31.2888 60.8326L31.5744 61.0235ZM68.8945 39.7386L69.1801 40.025C72.6074 43.1747 74.5115 47.1836 74.5115 51.3833C74.5115 55.2012 72.893 58.9236 69.9417 61.8825C69.5609 62.2643 69.4657 62.9325 69.7513 63.4097L72.417 67.7048L72.7978 68.2775L72.1314 68.0866L65.5623 65.7004C65.4671 65.7004 65.2767 65.605 65.1815 65.605C64.9911 65.605 64.8007 65.7004 64.6103 65.7004C61.0877 67.514 56.8987 68.5639 52.805 68.5639C45.7598 68.5639 39.3812 65.9868 35.2874 61.5007L34.9066 61.1189H35.4778C35.573 61.1189 35.6682 61.1189 35.8586 61.1189C36.049 61.1189 36.2394 61.1189 36.4298 61.1189C51.8529 61.1189 65.4671 52.2423 68.8945 40.025V39.7386ZM19.5787 54.7239C19.3883 54.6285 19.1979 54.6285 19.0075 54.6285C18.9123 54.6285 18.7219 54.6285 18.6267 54.7239L7.86859 58.5419L7.20216 58.7327L7.58298 58.1601L12.1528 50.7151C12.4384 50.2379 12.3432 49.5698 11.9624 49.188C7.77339 44.7974 5.48849 39.6432 5.48849 34.1072C5.48849 27.5213 8.72543 21.3172 14.5329 16.7357C20.4355 12.0587 28.1471 9.48164 36.3346 9.48164C53.281 9.48164 67.1808 20.5536 67.1808 34.1072C67.1808 47.6608 53.281 58.7327 36.3346 58.7327C30.3368 58.7327 24.6245 57.3965 19.5787 54.7239Z" fill="url(#paint0_linear_1_1453)"/>
<path d="M31.5744 61.0235C35.8586 67.3231 43.951 71.2364 52.805 71.2364C57.1843 71.2364 61.4685 70.2819 65.1815 68.373H65.3719L75.3683 71.9046C75.4636 71.9046 75.654 72 75.7492 72C76.13 72 76.5108 71.8091 76.7012 71.5228C77.082 71.141 77.082 70.5683 76.7964 70.091L72.5122 63.1233L72.417 62.9325L72.5122 62.837C75.4636 59.4963 76.9868 55.4875 76.9868 51.3833C76.9868 46.0382 74.2259 40.7885 69.4657 37.0661L69.3705 36.9706V36.8752C69.4657 35.9207 69.5609 35.0617 69.5609 34.1072C69.6561 19.1219 54.709 7 36.3346 7C27.4806 7 19.1027 9.86344 12.724 14.9222C6.44053 20.0764 3.01318 26.8532 3.01318 34.1072C3.01318 39.8341 5.20288 45.37 9.39186 50.047L9.48706 50.1424L9.39186 50.3333L3.20359 60.4508C2.91798 60.928 2.91798 61.5007 3.29879 61.8825C3.5844 62.1689 3.87002 62.3598 4.25083 62.3598C4.44124 62.3598 4.53645 62.3598 4.63165 62.2643L18.7219 57.2056H18.9123C22.7204 59.1145 26.9094 60.3554 31.2888 60.8326L31.5744 61.0235ZM68.8945 39.7386L69.1801 40.025C72.6074 43.1747 74.5115 47.1836 74.5115 51.3833C74.5115 55.2012 72.893 58.9236 69.9417 61.8825C69.5609 62.2643 69.4657 62.9325 69.7513 63.4097L72.417 67.7048L72.7978 68.2775L72.1314 68.0866L65.5623 65.7004C65.4671 65.7004 65.2767 65.605 65.1815 65.605C64.9911 65.605 64.8007 65.7004 64.6103 65.7004C61.0877 67.514 56.8987 68.5639 52.805 68.5639C45.7598 68.5639 39.3812 65.9868 35.2874 61.5007L34.9066 61.1189H35.4778C35.573 61.1189 35.6682 61.1189 35.8586 61.1189C36.049 61.1189 36.2394 61.1189 36.4298 61.1189C51.8529 61.1189 65.4671 52.2423 68.8945 40.025V39.7386ZM19.5787 54.7239C19.3883 54.6285 19.1979 54.6285 19.0075 54.6285C18.9123 54.6285 18.7219 54.6285 18.6267 54.7239L7.86859 58.5419L7.20216 58.7327L7.58298 58.1601L12.1528 50.7151C12.4384 50.2379 12.3432 49.5698 11.9624 49.188C7.77339 44.7974 5.48849 39.6432 5.48849 34.1072C5.48849 27.5213 8.72543 21.3172 14.5329 16.7357C20.4355 12.0587 28.1471 9.48164 36.3346 9.48164C53.281 9.48164 67.1808 20.5536 67.1808 34.1072C67.1808 47.6608 53.281 58.7327 36.3346 58.7327C30.3368 58.7327 24.6245 57.3965 19.5787 54.7239Z" fill="url(#paint1_linear_1_1453)"/>
<path d="M20.7467 29.5257H53.2019C54.0578 29.5257 54.7509 28.9699 54.7509 28.2849C54.7509 27.5993 54.0571 27.0441 53.2019 27.0441H20.7467C19.8908 27.0441 19.1977 27.5998 19.1977 28.2849C19.1977 28.9699 19.8915 29.5257 20.7467 29.5257Z" fill="white"/>
<path d="M20.7467 29.5257H53.2019C54.0578 29.5257 54.7509 28.9699 54.7509 28.2849C54.7509 27.5993 54.0571 27.0441 53.2019 27.0441H20.7467C19.8908 27.0441 19.1977 27.5998 19.1977 28.2849C19.1977 28.9699 19.8915 29.5257 20.7467 29.5257Z" fill="url(#paint2_linear_1_1453)"/>
<path d="M20.7467 29.5257H53.2019C54.0578 29.5257 54.7509 28.9699 54.7509 28.2849C54.7509 27.5993 54.0571 27.0441 53.2019 27.0441H20.7467C19.8908 27.0441 19.1977 27.5998 19.1977 28.2849C19.1977 28.9699 19.8915 29.5257 20.7467 29.5257Z" fill="url(#paint3_linear_1_1453)"/>
<path d="M20.7467 40.025H53.2019C54.0578 40.025 54.7509 39.4692 54.7509 38.7841C54.7509 38.0986 54.0571 37.5433 53.2019 37.5433H20.7467C19.8908 37.5433 19.1977 38.0991 19.1977 38.7841C19.1977 39.4692 19.8915 40.025 20.7467 40.025Z" fill="white"/>
<path d="M20.7467 40.025H53.2019C54.0578 40.025 54.7509 39.4692 54.7509 38.7841C54.7509 38.0986 54.0571 37.5433 53.2019 37.5433H20.7467C19.8908 37.5433 19.1977 38.0991 19.1977 38.7841C19.1977 39.4692 19.8915 40.025 20.7467 40.025Z" fill="url(#paint4_linear_1_1453)"/>
<path d="M20.7467 40.025H53.2019C54.0578 40.025 54.7509 39.4692 54.7509 38.7841C54.7509 38.0986 54.0571 37.5433 53.2019 37.5433H20.7467C19.8908 37.5433 19.1977 38.0991 19.1977 38.7841C19.1977 39.4692 19.8915 40.025 20.7467 40.025Z" fill="url(#paint5_linear_1_1453)"/>
<defs>
<linearGradient id="paint0_linear_1_1453" x1="-51.766" y1="65.5313" x2="99.9716" y2="63.6105" gradientUnits="userSpaceOnUse">
<stop stop-color="#E7F1FF"/>
<stop offset="0.210326" stop-color="#FAD9DE"/>
<stop offset="0.586168" stop-color="#EE5998"/>
<stop offset="0.956711" stop-color="#3375F4"/>
</linearGradient>
<linearGradient id="paint1_linear_1_1453" x1="-8.84814" y1="60.7924" x2="92.2047" y2="59.487" gradientUnits="userSpaceOnUse">
<stop stop-color="#E7F1FF"/>
<stop offset="0.305858" stop-color="#F05596"/>
<stop offset="0.671875" stop-color="#558DF9"/>
<stop offset="0.953125" stop-color="#31BCFF"/>
</linearGradient>
<linearGradient id="paint2_linear_1_1453" x1="-51.766" y1="65.5313" x2="99.9716" y2="63.6105" gradientUnits="userSpaceOnUse">
<stop stop-color="#E7F1FF"/>
<stop offset="0.210326" stop-color="#FAD9DE"/>
<stop offset="0.586168" stop-color="#EE5998"/>
<stop offset="0.956711" stop-color="#3375F4"/>
</linearGradient>
<linearGradient id="paint3_linear_1_1453" x1="-8.84814" y1="60.7924" x2="92.2047" y2="59.487" gradientUnits="userSpaceOnUse">
<stop stop-color="#E7F1FF"/>
<stop offset="0.305858" stop-color="#F05596"/>
<stop offset="0.671875" stop-color="#558DF9"/>
<stop offset="0.953125" stop-color="#31BCFF"/>
</linearGradient>
<linearGradient id="paint4_linear_1_1453" x1="-51.766" y1="65.5313" x2="99.9716" y2="63.6105" gradientUnits="userSpaceOnUse">
<stop stop-color="#E7F1FF"/>
<stop offset="0.210326" stop-color="#FAD9DE"/>
<stop offset="0.586168" stop-color="#EE5998"/>
<stop offset="0.956711" stop-color="#3375F4"/>
</linearGradient>
<linearGradient id="paint5_linear_1_1453" x1="-8.84814" y1="60.7924" x2="92.2047" y2="59.487" gradientUnits="userSpaceOnUse">
<stop stop-color="#E7F1FF"/>
<stop offset="0.305858" stop-color="#F05596"/>
<stop offset="0.671875" stop-color="#558DF9"/>
<stop offset="0.953125" stop-color="#31BCFF"/>
</linearGradient>
</defs>
</svg>
