<svg width="80" height="80" viewBox="0 0 80 80" fill="none" xmlns="http://www.w3.org/2000/svg">
<path d="M24.6002 0H24.7002C34.6002 0 44.5002 0 54.4002 0C55.1002 0 55.8002 0.5 55.8002 1.2C55.8002 2.3 55.8002 3.5 55.8002 4.6C55.8002 5.3 55.9002 6.1 56.2002 6.8C56.6002 7.8 57.4002 8.6 58.3002 9.1C59.1002 9.5 60.1002 9.8 61.1002 9.8C64.8002 9.8 68.4002 9.8 72.1002 9.8C72.8002 9.8 73.5002 10.4 73.5002 11.1C73.5002 16.7 73.5002 22.3 73.5002 27.9C73.5002 30.1 73.6002 32.4 73.4002 34.6C73.0002 40.9 71.2002 47.2 68.1002 52.7C65.0002 58.2 60.5002 63 55.0002 66.3C52.1002 68.1 48.8002 69.4 45.5002 70.1C41.6002 71 37.6002 70.9 33.7002 70C27.8002 68.7 22.4002 65.5 18.1002 61.3C13.6002 57 10.3002 51.5 8.30024 45.5C6.70024 41.1 6.00024 36.3 6.00024 31.4C6.00024 24.6 6.00024 17.8 6.00024 11C6.00024 10.3 6.70024 9.7 7.40024 9.7C11.1002 9.7 14.8002 9.7 18.5002 9.7C20.0002 9.6 21.5002 9.1 22.5002 8C23.3002 7.1 23.6002 5.9 23.7002 4.7C23.7002 3.5 23.7002 2.3 23.7002 1.2C23.6002 0.6 24.1002 0.2 24.6002 0ZM26.5002 2.5C26.5002 3.9 26.6002 5.4 26.2002 6.8C25.8002 8.3 24.9002 9.6 23.7002 10.5C22.1002 11.7 20.2002 12.2 18.3002 12.2C15.2002 12.2 12.1002 12.2 9.00024 12.2C9.00024 18.4 9.00024 24.7 9.00024 30.9C8.80024 35.5 9.60024 40.1 11.0002 44.5C13.0002 50.4 16.2002 56 20.7002 60.4C23.2002 62.8 26.1002 64.8 29.2002 66.2C32.6002 67.7 36.3002 68.5 40.0002 68.4C43.5002 68.4 47.0002 67.5 50.1002 66.1C53.1002 64.8 55.8002 62.9 58.2002 60.7C62.7002 56.6 66.1002 51.4 68.2002 45.6C69.5002 41.9 70.3002 38.1 70.5002 34.2C70.6002 32.4 70.6002 30.5 70.6002 28.7C70.6002 23.2 70.6002 17.7 70.6002 12.2C67.9002 12.2 65.3002 12.2 62.7002 12.2C61.7002 12.2 60.7002 12.2 59.7002 12.1C57.9002 11.8 56.2002 11 55.0002 9.7C53.9002 8.6 53.3002 7.1 53.1002 5.5C53.0002 4.5 53.1002 3.5 53.0002 2.4C44.2002 2.5 35.3002 2.5 26.5002 2.5Z" fill="white"/>
<path d="M24.6002 0H24.7002C34.6002 0 44.5002 0 54.4002 0C55.1002 0 55.8002 0.5 55.8002 1.2C55.8002 2.3 55.8002 3.5 55.8002 4.6C55.8002 5.3 55.9002 6.1 56.2002 6.8C56.6002 7.8 57.4002 8.6 58.3002 9.1C59.1002 9.5 60.1002 9.8 61.1002 9.8C64.8002 9.8 68.4002 9.8 72.1002 9.8C72.8002 9.8 73.5002 10.4 73.5002 11.1C73.5002 16.7 73.5002 22.3 73.5002 27.9C73.5002 30.1 73.6002 32.4 73.4002 34.6C73.0002 40.9 71.2002 47.2 68.1002 52.7C65.0002 58.2 60.5002 63 55.0002 66.3C52.1002 68.1 48.8002 69.4 45.5002 70.1C41.6002 71 37.6002 70.9 33.7002 70C27.8002 68.7 22.4002 65.5 18.1002 61.3C13.6002 57 10.3002 51.5 8.30024 45.5C6.70024 41.1 6.00024 36.3 6.00024 31.4C6.00024 24.6 6.00024 17.8 6.00024 11C6.00024 10.3 6.70024 9.7 7.40024 9.7C11.1002 9.7 14.8002 9.7 18.5002 9.7C20.0002 9.6 21.5002 9.1 22.5002 8C23.3002 7.1 23.6002 5.9 23.7002 4.7C23.7002 3.5 23.7002 2.3 23.7002 1.2C23.6002 0.6 24.1002 0.2 24.6002 0ZM26.5002 2.5C26.5002 3.9 26.6002 5.4 26.2002 6.8C25.8002 8.3 24.9002 9.6 23.7002 10.5C22.1002 11.7 20.2002 12.2 18.3002 12.2C15.2002 12.2 12.1002 12.2 9.00024 12.2C9.00024 18.4 9.00024 24.7 9.00024 30.9C8.80024 35.5 9.60024 40.1 11.0002 44.5C13.0002 50.4 16.2002 56 20.7002 60.4C23.2002 62.8 26.1002 64.8 29.2002 66.2C32.6002 67.7 36.3002 68.5 40.0002 68.4C43.5002 68.4 47.0002 67.5 50.1002 66.1C53.1002 64.8 55.8002 62.9 58.2002 60.7C62.7002 56.6 66.1002 51.4 68.2002 45.6C69.5002 41.9 70.3002 38.1 70.5002 34.2C70.6002 32.4 70.6002 30.5 70.6002 28.7C70.6002 23.2 70.6002 17.7 70.6002 12.2C67.9002 12.2 65.3002 12.2 62.7002 12.2C61.7002 12.2 60.7002 12.2 59.7002 12.1C57.9002 11.8 56.2002 11 55.0002 9.7C53.9002 8.6 53.3002 7.1 53.1002 5.5C53.0002 4.5 53.1002 3.5 53.0002 2.4C44.2002 2.5 35.3002 2.5 26.5002 2.5Z" fill="url(#paint0_linear_1_1449)"/>
<path d="M24.6002 0H24.7002C34.6002 0 44.5002 0 54.4002 0C55.1002 0 55.8002 0.5 55.8002 1.2C55.8002 2.3 55.8002 3.5 55.8002 4.6C55.8002 5.3 55.9002 6.1 56.2002 6.8C56.6002 7.8 57.4002 8.6 58.3002 9.1C59.1002 9.5 60.1002 9.8 61.1002 9.8C64.8002 9.8 68.4002 9.8 72.1002 9.8C72.8002 9.8 73.5002 10.4 73.5002 11.1C73.5002 16.7 73.5002 22.3 73.5002 27.9C73.5002 30.1 73.6002 32.4 73.4002 34.6C73.0002 40.9 71.2002 47.2 68.1002 52.7C65.0002 58.2 60.5002 63 55.0002 66.3C52.1002 68.1 48.8002 69.4 45.5002 70.1C41.6002 71 37.6002 70.9 33.7002 70C27.8002 68.7 22.4002 65.5 18.1002 61.3C13.6002 57 10.3002 51.5 8.30024 45.5C6.70024 41.1 6.00024 36.3 6.00024 31.4C6.00024 24.6 6.00024 17.8 6.00024 11C6.00024 10.3 6.70024 9.7 7.40024 9.7C11.1002 9.7 14.8002 9.7 18.5002 9.7C20.0002 9.6 21.5002 9.1 22.5002 8C23.3002 7.1 23.6002 5.9 23.7002 4.7C23.7002 3.5 23.7002 2.3 23.7002 1.2C23.6002 0.6 24.1002 0.2 24.6002 0ZM26.5002 2.5C26.5002 3.9 26.6002 5.4 26.2002 6.8C25.8002 8.3 24.9002 9.6 23.7002 10.5C22.1002 11.7 20.2002 12.2 18.3002 12.2C15.2002 12.2 12.1002 12.2 9.00024 12.2C9.00024 18.4 9.00024 24.7 9.00024 30.9C8.80024 35.5 9.60024 40.1 11.0002 44.5C13.0002 50.4 16.2002 56 20.7002 60.4C23.2002 62.8 26.1002 64.8 29.2002 66.2C32.6002 67.7 36.3002 68.5 40.0002 68.4C43.5002 68.4 47.0002 67.5 50.1002 66.1C53.1002 64.8 55.8002 62.9 58.2002 60.7C62.7002 56.6 66.1002 51.4 68.2002 45.6C69.5002 41.9 70.3002 38.1 70.5002 34.2C70.6002 32.4 70.6002 30.5 70.6002 28.7C70.6002 23.2 70.6002 17.7 70.6002 12.2C67.9002 12.2 65.3002 12.2 62.7002 12.2C61.7002 12.2 60.7002 12.2 59.7002 12.1C57.9002 11.8 56.2002 11 55.0002 9.7C53.9002 8.6 53.3002 7.1 53.1002 5.5C53.0002 4.5 53.1002 3.5 53.0002 2.4C44.2002 2.5 35.3002 2.5 26.5002 2.5Z" fill="url(#paint1_linear_1_1449)"/>
<path d="M34.7003 19.3002C37.4003 17.5002 41.0003 17.3002 43.9003 18.8002C46.1003 20.0002 47.9003 22.1002 48.5003 24.5002C49.0003 26.4002 48.9003 28.4002 48.3003 30.3002C47.7003 32.0002 46.6003 33.4002 45.1003 34.4002C46.3003 38.4002 47.6003 42.4002 48.8003 46.3002C49.1003 47.1002 48.4003 47.9002 47.6003 47.9002C42.3003 47.9002 37.1003 47.9002 31.8003 47.9002C31.0003 47.9002 30.4003 47.0002 30.6003 46.3002C31.8003 42.3002 33.0003 38.4002 34.3003 34.4002C33.0003 33.6002 32.0003 32.4002 31.4003 31.0002C30.6003 29.3002 30.4003 27.3002 30.7003 25.5002C31.1003 22.9002 32.6003 20.6002 34.7003 19.3002ZM36.8003 20.9002C35.4003 21.6002 34.3003 22.7002 33.7003 24.1002C33.0003 25.6002 33.0003 27.3002 33.3003 28.8002C33.5003 30.0002 34.1003 31.1002 35.1003 31.8002C35.5003 32.1002 35.9003 32.4002 36.4003 32.6002C36.9003 32.8002 37.2003 33.4002 37.1003 33.9002C35.9003 37.7002 34.8003 41.5002 33.6003 45.3002C37.7003 45.3002 41.8003 45.3002 45.9003 45.3002C44.8003 41.7002 43.7003 38.1002 42.6003 34.5002C42.5003 34.2002 42.4003 33.9002 42.4003 33.6002C42.4003 33.2002 42.7003 32.8002 43.1003 32.6002C43.7003 32.3002 44.2003 32.0002 44.7003 31.5002C45.5003 30.7002 45.9003 29.7002 46.1003 28.6002C46.4003 27.0002 46.3003 25.3002 45.5003 23.8002C44.7003 22.3002 43.4003 21.1002 41.8003 20.6002C40.2003 20.1002 38.4003 20.1002 36.8003 20.9002Z" fill="white"/>
<path d="M34.7003 19.3002C37.4003 17.5002 41.0003 17.3002 43.9003 18.8002C46.1003 20.0002 47.9003 22.1002 48.5003 24.5002C49.0003 26.4002 48.9003 28.4002 48.3003 30.3002C47.7003 32.0002 46.6003 33.4002 45.1003 34.4002C46.3003 38.4002 47.6003 42.4002 48.8003 46.3002C49.1003 47.1002 48.4003 47.9002 47.6003 47.9002C42.3003 47.9002 37.1003 47.9002 31.8003 47.9002C31.0003 47.9002 30.4003 47.0002 30.6003 46.3002C31.8003 42.3002 33.0003 38.4002 34.3003 34.4002C33.0003 33.6002 32.0003 32.4002 31.4003 31.0002C30.6003 29.3002 30.4003 27.3002 30.7003 25.5002C31.1003 22.9002 32.6003 20.6002 34.7003 19.3002ZM36.8003 20.9002C35.4003 21.6002 34.3003 22.7002 33.7003 24.1002C33.0003 25.6002 33.0003 27.3002 33.3003 28.8002C33.5003 30.0002 34.1003 31.1002 35.1003 31.8002C35.5003 32.1002 35.9003 32.4002 36.4003 32.6002C36.9003 32.8002 37.2003 33.4002 37.1003 33.9002C35.9003 37.7002 34.8003 41.5002 33.6003 45.3002C37.7003 45.3002 41.8003 45.3002 45.9003 45.3002C44.8003 41.7002 43.7003 38.1002 42.6003 34.5002C42.5003 34.2002 42.4003 33.9002 42.4003 33.6002C42.4003 33.2002 42.7003 32.8002 43.1003 32.6002C43.7003 32.3002 44.2003 32.0002 44.7003 31.5002C45.5003 30.7002 45.9003 29.7002 46.1003 28.6002C46.4003 27.0002 46.3003 25.3002 45.5003 23.8002C44.7003 22.3002 43.4003 21.1002 41.8003 20.6002C40.2003 20.1002 38.4003 20.1002 36.8003 20.9002Z" fill="url(#paint2_linear_1_1449)"/>
<path d="M34.7003 19.3002C37.4003 17.5002 41.0003 17.3002 43.9003 18.8002C46.1003 20.0002 47.9003 22.1002 48.5003 24.5002C49.0003 26.4002 48.9003 28.4002 48.3003 30.3002C47.7003 32.0002 46.6003 33.4002 45.1003 34.4002C46.3003 38.4002 47.6003 42.4002 48.8003 46.3002C49.1003 47.1002 48.4003 47.9002 47.6003 47.9002C42.3003 47.9002 37.1003 47.9002 31.8003 47.9002C31.0003 47.9002 30.4003 47.0002 30.6003 46.3002C31.8003 42.3002 33.0003 38.4002 34.3003 34.4002C33.0003 33.6002 32.0003 32.4002 31.4003 31.0002C30.6003 29.3002 30.4003 27.3002 30.7003 25.5002C31.1003 22.9002 32.6003 20.6002 34.7003 19.3002ZM36.8003 20.9002C35.4003 21.6002 34.3003 22.7002 33.7003 24.1002C33.0003 25.6002 33.0003 27.3002 33.3003 28.8002C33.5003 30.0002 34.1003 31.1002 35.1003 31.8002C35.5003 32.1002 35.9003 32.4002 36.4003 32.6002C36.9003 32.8002 37.2003 33.4002 37.1003 33.9002C35.9003 37.7002 34.8003 41.5002 33.6003 45.3002C37.7003 45.3002 41.8003 45.3002 45.9003 45.3002C44.8003 41.7002 43.7003 38.1002 42.6003 34.5002C42.5003 34.2002 42.4003 33.9002 42.4003 33.6002C42.4003 33.2002 42.7003 32.8002 43.1003 32.6002C43.7003 32.3002 44.2003 32.0002 44.7003 31.5002C45.5003 30.7002 45.9003 29.7002 46.1003 28.6002C46.4003 27.0002 46.3003 25.3002 45.5003 23.8002C44.7003 22.3002 43.4003 21.1002 41.8003 20.6002C40.2003 20.1002 38.4003 20.1002 36.8003 20.9002Z" fill="url(#paint3_linear_1_1449)"/>
<defs>
<linearGradient id="paint0_linear_1_1449" x1="-43.9738" y1="63.6884" x2="94.4934" y2="62.2185" gradientUnits="userSpaceOnUse">
<stop stop-color="#E7F1FF"/>
<stop offset="0.210326" stop-color="#FAD9DE"/>
<stop offset="0.586168" stop-color="#EE5998"/>
<stop offset="0.956711" stop-color="#3375F4"/>
</linearGradient>
<linearGradient id="paint1_linear_1_1449" x1="-4.81119" y1="58.532" x2="87.4041" y2="57.533" gradientUnits="userSpaceOnUse">
<stop stop-color="#E7F1FF"/>
<stop offset="0.305858" stop-color="#F05596"/>
<stop offset="0.671875" stop-color="#558DF9"/>
<stop offset="0.953125" stop-color="#31BCFF"/>
</linearGradient>
<linearGradient id="paint2_linear_1_1449" x1="17.0109" y1="44.9046" x2="54.5593" y2="44.6506" gradientUnits="userSpaceOnUse">
<stop stop-color="#E7F1FF"/>
<stop offset="0.210326" stop-color="#FAD9DE"/>
<stop offset="0.586168" stop-color="#EE5998"/>
<stop offset="0.956711" stop-color="#3375F4"/>
</linearGradient>
<linearGradient id="paint3_linear_1_1449" x1="27.63" y1="42.71" x2="52.6362" y2="42.5374" gradientUnits="userSpaceOnUse">
<stop stop-color="#E7F1FF"/>
<stop offset="0.305858" stop-color="#F05596"/>
<stop offset="0.671875" stop-color="#558DF9"/>
<stop offset="0.953125" stop-color="#31BCFF"/>
</linearGradient>
</defs>
</svg>
