<svg width="145" height="85" viewBox="0 0 145 85" fill="none" xmlns="http://www.w3.org/2000/svg">
<path d="M47.9818 0.233485C48.4363 0.171019 48.948 0.0620367 49.36 0.333165C49.7972 0.584357 49.9807 1.10402 49.9554 1.58912C49.9594 7.0901 49.9833 12.5911 49.9913 18.092C48.2914 17.9963 46.5942 17.8315 44.893 17.7558L44.9076 17.7212C45.5602 16.1822 46.1716 14.6245 46.8281 13.0868C47.0009 12.6814 47.1325 12.2096 46.9464 11.7843C46.771 11.3364 46.3125 11.0653 45.8446 11.0347C32.4677 9.62727 19.0894 8.22245 5.71239 6.81764C4.56807 6.68872 3.41711 6.61031 2.28076 6.41627C17.5118 4.33762 32.7494 2.30283 47.9818 0.233485Z" fill="#E8E8E8"/>
<path d="M1.00781 8.5332C1.55273 8.76845 2.02587 9.13128 2.53889 9.425C9.25861 13.4627 15.9584 17.5309 22.6821 21.562L22.7299 21.5899C22.6276 22.6292 22.6475 23.6752 22.6024 24.7185C22.2555 36.1497 21.8979 47.5823 21.5577 59.0135C21.5059 59.6661 22.0455 60.2934 22.7047 60.312C24.2437 60.3984 25.7894 60.3386 27.3285 60.4608C24.1201 68.3461 20.8613 76.2128 17.6303 84.0902C17.4363 84.7972 16.5724 85.1707 15.9212 84.8398C15.4706 84.6657 15.25 84.1925 15.1849 83.7433C10.4694 58.6706 5.70869 33.6072 1.00781 8.5332Z" fill="#E8E8E8"/>
<path d="M49.9751 18.1685C50.0762 18.1631 50.2768 18.1512 50.3779 18.1445C55.5027 18.4927 60.6276 18.8822 65.7537 19.2357C66.4036 19.249 66.9884 19.8098 66.9831 20.4691C66.7386 33.446 66.4794 46.4242 66.2322 59.4012C66.2229 59.9314 66.2787 60.5588 65.8388 60.9495C65.4082 61.3987 64.737 61.2818 64.1788 61.2778C52.4499 60.992 40.7222 60.7369 28.9946 60.4431C28.4617 60.4152 27.9301 60.3793 27.3984 60.3421C31.3231 50.7437 35.2904 41.1612 39.2164 31.5627C39.8916 31.899 40.5162 32.3229 41.1635 32.7057C43.4016 34.0573 45.6464 35.401 47.8792 36.7606C48.1889 36.9414 48.5265 37.1368 48.8999 37.0876C49.4568 37.0517 49.9605 36.5852 50.0017 36.0217C50.0655 35.1804 50.0044 34.3351 50.0243 33.4925C50.0057 28.3849 50.0097 23.276 49.9751 18.1685Z" fill="#E8E8E8"/>
<path d="M106.363 51.2344C106.576 50.9872 106.693 50.4954 107.114 50.6004C107.5 50.5765 107.339 51.0629 107.372 51.3022C107.403 51.6079 107.207 52.1382 107.638 52.2259C108.192 52.3096 108.757 52.2538 109.316 52.2657C109.318 52.4771 109.319 52.6884 109.324 52.901C108.765 52.9103 108.203 52.7934 107.648 52.8824C107.324 52.9329 107.369 53.3277 107.356 53.5709C107.36 54.8069 107.351 56.0443 107.36 57.2816C107.388 57.7003 107.385 58.2146 107.745 58.5043C108.18 58.7702 108.698 58.5588 109.116 58.3621C109.172 58.4379 109.283 58.5907 109.339 58.6665C108.575 59.3948 107.279 59.5224 106.41 58.9163C105.898 58.5455 105.737 57.881 105.745 57.2816C105.744 55.9951 105.749 54.7099 105.747 53.4234C105.719 53.2293 105.782 52.9236 105.539 52.8492C105.238 52.7801 104.923 52.8213 104.618 52.812C104.626 52.7229 104.645 52.5462 104.653 52.4585C105.3 52.1767 105.97 51.8511 106.363 51.2344Z" fill="#E8E8E8"/>
<path d="M89.8382 52.9171C90.7699 52.2007 92.0339 51.9695 93.1729 52.2193C93.84 52.3629 94.482 52.7616 94.789 53.3902C95.0003 53.8647 95.0428 54.4521 94.773 54.9146C94.5219 55.2788 94.0806 55.437 93.6673 55.5273C92.7037 55.7267 91.7136 55.6855 90.7407 55.7905C90.2901 55.8011 90.3712 56.3474 90.4483 56.6477C90.9653 58.4792 93.7005 58.9111 94.9153 57.5329C95.0189 57.6246 95.1239 57.7163 95.2316 57.8093C94.0394 59.569 91.3162 59.7936 89.7346 58.446C88.1185 57.081 88.161 54.2142 89.8382 52.9171ZM91.154 52.8772C90.423 53.3929 90.1758 54.4282 90.4018 55.2642C91.0889 55.3506 91.7866 55.2948 92.4724 55.2084C92.826 55.1459 93.2619 55.005 93.3656 54.6143C93.4878 54.0521 93.3935 53.3836 92.9642 52.9702C92.4738 52.5383 91.6963 52.5529 91.154 52.8772Z" fill="#E8E8E8"/>
<path d="M96.0204 52.5333C96.7952 52.4323 97.5515 52.1479 98.3356 52.1466C98.7609 52.3526 98.4738 52.9972 98.8367 53.2896C99.2952 52.8377 99.779 52.3526 100.434 52.2091C101.311 51.9712 102.412 52.1187 102.973 52.9068C103.587 53.7481 103.437 54.8393 103.452 55.8174C103.476 56.6282 103.403 57.4442 103.487 58.2523C103.534 58.6297 103.962 58.6098 104.247 58.6218C103.928 59.6265 102.133 59.5348 101.905 58.4928C101.77 57.7898 101.875 57.0654 101.843 56.3544C101.811 55.4759 101.989 54.5083 101.495 53.7229C101.007 52.9228 99.7138 52.8457 99.1171 53.558C98.7463 53.9475 98.6054 54.495 98.6054 55.02C98.5974 55.9543 98.6041 56.8887 98.6014 57.823C98.6121 58.0941 98.6067 58.4423 98.8779 58.5992C99.1769 58.7852 99.7285 58.7028 99.6075 59.2212C98.4034 59.2305 97.1993 59.2238 95.9951 59.2252C95.9938 59.0869 95.9951 58.95 95.9965 58.8145C96.3859 58.7454 96.9242 58.6271 96.9547 58.1367C97.0052 56.7916 96.9561 55.4413 96.9773 54.095C96.9521 53.7667 97.0385 53.372 96.7873 53.1102C96.5786 52.8975 96.249 52.9613 95.9858 52.9228C95.9938 52.8257 96.0124 52.6304 96.0204 52.5333Z" fill="#E8E8E8"/>
<path d="M110.174 52.5398C110.883 52.4202 111.58 52.2275 112.295 52.1411C112.581 52.0653 112.797 52.3577 112.769 52.6222C112.781 53.7771 112.769 54.9334 112.771 56.0884C112.767 56.6891 112.836 57.339 113.229 57.8228C113.757 58.4873 114.869 58.5112 115.455 57.9132C115.865 57.5091 116.017 56.9111 116.012 56.3502C116.015 55.5528 116.007 54.7553 116.015 53.9579C115.999 53.6947 116.033 53.401 115.881 53.1724C115.655 52.9438 115.313 52.9624 115.022 52.9226C115.029 52.8362 115.039 52.6634 115.045 52.577C115.712 52.3976 116.395 52.2726 117.077 52.1544C117.385 52.044 117.663 52.3325 117.635 52.6355C117.652 54.3579 117.638 56.0804 117.64 57.8029C117.658 58.0155 117.618 58.2707 117.772 58.4461C117.929 58.6442 118.21 58.5724 118.431 58.6109C118.257 59.3113 117.323 59.4323 116.739 59.2249C116.234 59.0628 116.084 58.5312 115.966 58.0766C115.498 58.2733 115.251 58.7717 114.789 58.9831C113.89 59.4549 112.65 59.4735 111.868 58.7638C111.394 58.3132 111.198 57.6487 111.169 57.0121C111.132 55.8359 111.21 54.657 111.132 53.4834C111.095 52.9943 110.546 52.9252 110.162 52.9279C110.164 52.8308 110.171 52.6368 110.174 52.5398Z" fill="#E8E8E8"/>
<path d="M119.208 52.5431C119.965 52.4195 120.71 52.1882 121.478 52.135C121.952 52.2586 121.766 52.8767 121.839 53.2328C122.25 53.1265 122.48 52.7437 122.827 52.5298C123.451 52.1071 124.306 51.9463 125.001 52.2905C125.595 52.5816 125.888 53.3657 125.602 53.9691C125.353 54.4436 124.65 54.5592 124.246 54.223C123.893 53.9319 124.119 53.3086 123.679 53.0853C123.097 52.781 122.433 53.2342 122.156 53.7498C121.635 54.7147 121.858 55.8484 121.811 56.8971C121.845 57.4008 121.708 57.9483 121.93 58.4201C122.141 58.8893 123.019 58.5544 122.883 59.2216C121.657 59.2349 120.432 59.2189 119.206 59.2295C119.206 59.0873 119.206 58.9478 119.208 58.8082C119.62 58.7551 120.167 58.5996 120.165 58.0839C120.216 56.7987 120.166 55.5108 120.189 54.2243C120.171 53.8362 120.243 53.3804 119.961 53.068C119.739 52.9112 119.452 52.9537 119.2 52.9258C119.202 52.8301 119.206 52.6387 119.208 52.5431Z" fill="#E8E8E8"/>
<path d="M127.78 52.8394C128.955 52.0154 130.633 51.8519 131.892 52.5815C132.607 52.9949 132.986 53.9345 132.709 54.7213C132.531 55.1519 132.079 55.3805 131.651 55.4895C130.639 55.7274 129.591 55.6875 128.564 55.7899C128.123 55.8271 128.204 56.3773 128.296 56.679C128.81 58.4068 131.379 58.9025 132.61 57.6545C132.765 57.4299 132.937 57.7197 133.087 57.7914C131.904 59.5538 129.169 59.8076 127.586 58.456C125.928 57.0671 125.996 54.0953 127.78 52.8394ZM129.367 52.7078C128.593 52.9271 128.221 53.7657 128.163 54.5073C128.128 54.7931 128.101 55.2795 128.499 55.3061C128.988 55.33 129.48 55.2888 129.97 55.2516C130.413 55.1971 130.999 55.132 131.192 54.6602C131.335 54.094 131.241 53.4135 130.809 52.9909C130.434 52.6241 129.851 52.5802 129.367 52.7078Z" fill="#E8E8E8"/>
<path d="M136.167 52.2021C137.189 52.0187 138.312 52.1409 139.197 52.7124C139.483 53.0899 139.573 53.6308 139.504 54.0973C139.477 54.3977 138.993 54.5332 138.83 54.2714C138.607 53.874 138.494 53.4035 138.146 53.0899C137.666 52.5742 136.839 52.4386 136.208 52.727C135.676 52.9689 135.6 53.7105 135.886 54.1664C136.186 54.6196 136.729 54.8083 137.223 54.9678C137.978 55.2071 138.791 55.4237 139.38 55.9859C139.972 56.5242 140.018 57.4917 139.596 58.1443C139.262 58.6786 138.663 58.9789 138.075 59.1464C136.989 59.4242 135.785 59.3657 134.78 58.8474C134.194 58.6041 134.113 57.8466 134.157 57.295C134.161 56.8617 134.822 56.8072 134.921 57.206C135.137 57.8147 135.499 58.4393 136.133 58.6799C136.697 58.8633 137.373 58.8979 137.894 58.5762C138.511 58.2081 138.446 57.186 137.805 56.8764C136.807 56.3594 135.566 56.277 134.754 55.4277C134.118 54.8044 134.084 53.7132 134.637 53.0287C135.014 52.5676 135.591 52.311 136.167 52.2021Z" fill="#E8E8E8"/>
<path d="M80.4126 52.2855C81.529 52.2376 82.6494 52.2828 83.7684 52.2655C83.7671 52.3626 83.7658 52.5539 83.7644 52.651C83.496 52.8038 83.0082 52.9035 83.0574 53.3022C83.1677 54.0265 83.5452 54.6751 83.787 55.3609C84.122 56.1238 84.3466 56.9372 84.7705 57.6562C85.1719 57.2389 85.265 56.6461 85.4949 56.1344C85.8072 55.2506 86.2485 54.3708 86.2564 53.4165C86.2564 52.9473 85.7687 52.7892 85.4098 52.6589C85.4125 52.5606 85.4178 52.3626 85.4205 52.2629C86.388 52.2708 87.3556 52.2642 88.3244 52.2669C88.3191 52.4024 88.3165 52.5393 88.3151 52.6775C87.9364 52.8078 87.5071 52.9128 87.2506 53.2464C86.9077 53.6996 86.7548 54.2578 86.5435 54.7761C85.9561 56.2607 85.3739 57.7466 84.7812 59.2285C84.3904 59.2245 83.9997 59.2245 83.6103 59.2298C83.0002 57.6682 82.3889 56.1092 81.7788 54.5489C81.509 53.7886 81.1887 52.9035 80.3262 52.6576C80.3474 52.5646 80.39 52.3785 80.4126 52.2855Z" fill="#E8E8E8"/>
<path d="M1.03155 7.03554C1.27078 6.58898 1.79576 6.39095 2.28086 6.4162C3.41721 6.61024 4.56817 6.68866 5.71249 6.81757C19.0895 8.22239 32.4678 9.6272 45.8447 11.0347C46.3126 11.0652 46.7711 11.3364 46.9465 11.7843C47.1326 12.2096 47.001 12.6814 46.8282 13.0867C46.1717 14.6245 45.5603 16.1821 44.9077 17.7212C37.9953 17.252 31.0869 16.7217 24.1771 16.2419C23.5046 16.1702 22.8467 16.723 22.8387 17.4062C22.7537 18.7897 22.7696 20.1786 22.6819 21.5621C15.9582 17.5311 9.25842 13.4629 2.5387 9.42519C2.02568 9.13147 1.55254 8.76863 1.00763 8.53339L0.957122 8.50947C0.884024 8.02436 0.749789 7.4821 1.03155 7.03554Z" fill="#AFAFAF"/>
<path d="M44.8933 17.7559C46.5944 17.8316 48.2917 17.9964 49.9915 18.0921C50.1204 18.1054 50.2494 18.1227 50.3783 18.1439C50.2773 18.1506 50.0766 18.1626 49.9756 18.1679C50.0101 23.2754 50.0061 28.3843 50.0247 33.4919C50.0048 34.3345 50.0659 35.1798 50.0022 36.0211C49.961 36.5846 49.4572 37.0511 48.9004 37.087C48.5269 37.1362 48.1893 36.9408 47.8796 36.7601C45.6468 35.4004 43.4021 34.0568 41.1639 32.7051C40.5167 32.3223 39.892 31.8984 39.2168 31.5621C35.2908 41.1606 31.3236 50.7431 27.3989 60.3415C27.9305 60.3788 28.4621 60.4146 28.9951 60.4426C28.4395 60.4412 27.8826 60.4519 27.3284 60.4612C25.7894 60.3389 24.2437 60.3987 22.7046 60.3123C22.0454 60.2937 21.5058 59.6664 21.5576 59.0138C21.8979 47.5826 22.2554 36.15 22.6023 24.7188C22.6475 23.6755 22.6275 22.6295 22.7299 21.5902C28.2335 24.8929 33.7199 28.2262 39.2248 31.5262C41.1294 26.9423 43.0033 22.3464 44.8933 17.7559Z" fill="#AFAFAF"/>
<path d="M22.839 17.4059C22.8469 16.7227 23.5048 16.1699 24.1773 16.2416C31.0871 16.7214 37.9955 17.2517 44.908 17.7209L44.8934 17.7554C43.0034 22.346 41.1295 26.9419 39.2249 31.5258C33.72 28.2258 28.2336 24.8925 22.73 21.5898L22.6821 21.5619C22.7698 20.1783 22.7539 18.7894 22.839 17.4059Z" fill="#616161"/>
<path d="M80.4149 22.091C81.118 21.9714 81.8118 21.7893 82.5215 21.7029C82.7514 21.6405 83.0026 21.8199 83.0066 22.0618C83.0598 23.1224 82.9946 24.187 83.0292 25.2489C83.0345 25.4575 83.1116 25.6542 83.1754 25.8509C83.6033 25.5958 83.9236 25.1891 84.3795 24.9764C85.1543 24.6016 86.1246 24.5657 86.8821 25.0057C87.5081 25.3964 87.8111 26.1354 87.8603 26.8491C87.9308 28.1569 87.8231 29.4726 87.9082 30.7791C87.9215 31.1765 88.3813 31.1658 88.6644 31.2496C88.2776 32.2317 86.4887 32.0988 86.3093 31.0183C86.203 30.2554 86.2814 29.4793 86.2601 28.7111C86.2429 27.8671 86.3811 26.9102 85.8308 26.1925C85.274 25.4562 84.0379 25.4894 83.4837 26.2138C82.9455 26.8238 83.0252 27.6904 83.0212 28.4453C83.0505 29.2414 82.9641 30.0441 83.0691 30.8349C83.1594 31.2562 83.6618 31.2961 83.9981 31.4104C83.9994 31.5061 84.0021 31.6975 84.0034 31.7932C82.8032 31.8131 81.6031 31.8144 80.4043 31.7905C80.4083 31.6948 80.4163 31.5021 80.4189 31.4064C80.8043 31.3027 81.3732 31.2177 81.3692 30.7007C81.4104 28.3536 81.3665 26.0051 81.3891 23.658C81.3772 23.3616 81.4104 23.0453 81.2841 22.7702C81.0994 22.4725 80.7047 22.5256 80.4096 22.4672C80.4109 22.3728 80.4136 22.1841 80.4149 22.091Z" fill="#E8E8E8"/>
<path d="M113.889 22.0839C114.598 21.9683 115.298 21.7729 116.015 21.6998C116.254 21.6294 116.46 21.8513 116.471 22.0799C116.55 23.2628 116.394 24.4603 116.543 25.6351C116.616 25.9687 116.951 25.6312 117.081 25.5142C117.982 24.5772 119.66 24.3433 120.652 25.2564C121.326 25.9023 121.35 26.9044 121.333 27.7749C121.343 28.7518 121.3 29.7313 121.349 30.7068C121.327 31.1348 121.815 31.1906 122.124 31.2823C121.657 32.2339 119.905 32.0811 119.754 30.9673C119.632 29.7353 119.77 28.49 119.686 27.2539C119.638 26.701 119.376 26.1375 118.887 25.8451C118.241 25.4863 117.326 25.6418 116.896 26.2625C116.378 26.9177 116.492 27.7975 116.486 28.5764C116.511 29.3273 116.429 30.0835 116.526 30.8291C116.629 31.2504 117.114 31.3022 117.46 31.4152C117.461 31.5083 117.461 31.697 117.461 31.79C116.261 31.8126 115.06 31.8166 113.861 31.7887C113.866 31.6917 113.878 31.4989 113.883 31.4019C114.268 31.3102 114.82 31.2066 114.827 30.7042C114.879 28.4022 114.827 26.0977 114.851 23.7957C114.84 23.4635 114.879 23.1139 114.751 22.8003C114.605 22.4534 114.164 22.5344 113.866 22.4693C113.873 22.3736 113.883 22.1809 113.889 22.0839Z" fill="#E8E8E8"/>
<path d="M124.583 23.313C124.76 23.0499 125.321 23.1283 125.249 23.5177C125.327 23.9191 125.063 24.4706 125.416 24.7683C126.001 24.888 126.607 24.7989 127.203 24.8348C127.195 25.0528 127.189 25.2721 127.185 25.49C126.607 25.4807 126.022 25.3757 125.451 25.4834C125.177 25.611 125.253 25.9446 125.233 26.1865C125.244 27.4265 125.232 28.6665 125.238 29.9065C125.248 30.3398 125.291 30.894 125.723 31.1226C126.154 31.3166 126.599 31.0654 127.025 30.9817C127.373 31.2648 126.893 31.5213 126.654 31.6422C125.588 32.1911 123.879 31.8283 123.671 30.4806C123.537 28.9217 123.675 27.3507 123.602 25.7891C123.606 25.2016 122.837 25.4727 122.471 25.397C122.494 25.3053 122.538 25.1219 122.56 25.0302C122.955 24.7989 123.41 24.6634 123.751 24.347C124.097 24.0613 124.313 23.6639 124.583 23.313Z" fill="#E8E8E8"/>
<path d="M92.1267 24.7716C93.2551 24.5523 94.4978 24.8035 95.3829 25.557C96.9432 26.8622 96.9685 29.5456 95.4999 30.9278C94.0764 32.2382 91.611 32.2156 90.2527 30.8214C88.8386 29.3847 88.9729 26.7147 90.5757 25.4707C91.0316 25.1278 91.5659 24.8859 92.1267 24.7716ZM92.1334 25.3005C91.6203 25.4627 91.32 25.9677 91.1804 26.4568C90.9385 27.3194 91.0023 28.2404 91.1964 29.1056C91.3811 29.8565 91.7346 30.6141 92.3766 31.0766C92.96 31.5046 93.8904 31.4368 94.3276 30.8308C94.8234 30.1463 94.8407 29.2532 94.8008 28.4424C94.7237 27.5267 94.4831 26.5711 93.8704 25.8614C93.4558 25.3736 92.7607 25.0693 92.1334 25.3005Z" fill="#E8E8E8"/>
<path d="M97.0256 25.1293C97.73 24.9858 98.429 24.8077 99.1427 24.7146C99.4072 24.6469 99.6372 24.8648 99.6252 25.1266C99.6651 26.4065 99.6106 27.6891 99.6438 28.969C99.6584 29.5086 99.782 30.0827 100.174 30.4801C100.752 31.1048 101.879 31.0516 102.406 30.3844C102.83 29.8913 102.876 29.2069 102.876 28.5862C102.867 27.8725 102.881 27.1575 102.873 26.4437C102.853 26.1673 102.864 25.8204 102.601 25.6516C102.38 25.548 102.13 25.544 101.898 25.4988C101.898 25.4058 101.898 25.2197 101.898 25.1266C102.618 25.0084 103.323 24.7917 104.052 24.7279C104.361 24.6508 104.509 25.003 104.499 25.2556C104.532 27.1003 104.467 28.9477 104.525 30.7911C104.543 31.1832 104.984 31.1725 105.272 31.1872C105.213 31.6457 104.743 31.8477 104.334 31.8862C103.905 31.9341 103.416 31.8437 103.138 31.4862C102.976 31.2416 102.911 30.9506 102.814 30.6795C102.355 30.9001 102.076 31.3613 101.615 31.5779C100.704 32.0471 99.4511 32.0417 98.6855 31.2988C98.1832 30.7991 98.033 30.0601 98.017 29.3756C98.0091 28.3988 98.025 27.4206 98.0184 26.4424C98.0051 26.1753 98.0064 25.859 97.7898 25.6676C97.5585 25.5267 97.2728 25.536 97.0176 25.4815C97.0189 25.3925 97.0229 25.217 97.0256 25.1293Z" fill="#E8E8E8"/>
<path d="M107.504 25.1164C108.865 24.3894 110.717 24.5582 111.842 25.6507C111.949 25.3663 111.989 24.9955 112.292 24.8427C112.707 24.6087 113.411 24.6978 113.544 25.2241C113.664 25.5816 113.365 26.0468 112.963 25.983C112.707 26.0149 112.28 25.8448 112.218 26.2103C112.248 26.8136 112.393 27.4449 112.146 28.0257C111.794 28.9933 110.737 29.497 109.76 29.5369C109.141 29.6047 108.514 29.3694 107.904 29.5236C107.57 29.6499 107.635 30.1589 107.986 30.2187C109.286 30.5842 110.66 30.6307 111.948 31.0467C112.428 31.2062 112.945 31.5012 113.075 32.0302C113.264 32.7439 112.819 33.451 112.252 33.8523C111.305 34.5315 110.115 34.8026 108.964 34.8239C108.091 34.8292 107.151 34.7122 106.436 34.166C105.923 33.7713 105.715 32.9924 106.062 32.4249C106.366 31.9598 106.907 31.7551 107.4 31.5557C106.872 31.3138 106.2 30.9895 106.226 30.3051C106.236 29.6219 106.939 29.307 107.51 29.1754C107.191 28.9003 106.847 28.6345 106.638 28.261C106.063 27.2084 106.405 25.6853 107.504 25.1164ZM108.881 25.1869C108.439 25.26 108.167 25.6733 108.084 26.084C107.916 26.9027 108.027 27.8104 108.499 28.5148C108.821 28.9946 109.501 29.2379 110.038 28.9867C110.513 28.7222 110.642 28.14 110.659 27.6377C110.684 26.8721 110.529 26.0162 109.936 25.4793C109.661 25.2108 109.25 25.1244 108.881 25.1869ZM108.352 31.8242C107.756 31.9066 107.35 32.51 107.456 33.0921C107.556 33.8218 108.301 34.2657 108.983 34.3335C109.733 34.4318 110.59 34.3733 111.179 33.8444C111.545 33.4948 111.719 32.829 111.353 32.4236C111.031 32.1325 110.572 32.0874 110.17 31.9903C109.572 31.8827 108.96 31.7219 108.352 31.8242Z" fill="#E8E8E8"/>
<path d="M130.685 24.7835C131.872 24.5324 133.192 24.8168 134.097 25.6461C135.511 26.9605 135.548 29.4459 134.21 30.8254C132.869 32.1864 130.461 32.2436 129.036 30.9849C127.55 29.6918 127.514 27.1466 128.867 25.7471C129.363 25.2593 130.006 24.9271 130.685 24.7835ZM130.679 25.3138C130.111 25.5358 129.84 26.1498 129.721 26.7067C129.54 27.7792 129.641 28.9156 130.081 29.915C130.327 30.4719 130.727 30.9996 131.299 31.2454C131.904 31.5059 132.682 31.2853 133.022 30.7098C133.425 30.032 133.453 29.208 133.409 28.4411C133.334 27.5413 133.092 26.6137 132.516 25.9C132.09 25.371 131.335 25.0507 130.679 25.3138Z" fill="#E8E8E8"/>
<path d="M135.854 25.1454C136.594 24.9846 137.333 24.7812 138.09 24.7268C138.606 24.7786 138.443 25.4763 138.601 25.8378C139.1 25.588 139.435 25.0909 139.974 24.9022C140.928 24.5088 142.237 24.6085 142.868 25.5136C143.468 26.3655 143.316 27.4566 143.332 28.4362C143.355 29.2336 143.283 30.0363 143.364 30.8311C143.407 31.1966 143.831 31.1647 144.098 31.2405C143.739 32.2864 141.808 32.0632 141.739 30.9162C141.654 29.6961 141.771 28.4694 141.684 27.2493C141.635 26.4652 141.05 25.6478 140.204 25.6598C139.251 25.5654 138.497 26.4638 138.492 27.3676C138.466 28.4787 138.449 29.5951 138.501 30.7062C138.525 31.1926 139.053 31.3202 139.441 31.4039C139.442 31.501 139.447 31.6937 139.45 31.7907C138.255 31.8199 137.062 31.804 135.868 31.8C135.738 31.3215 136.275 31.3362 136.569 31.178C136.854 30.9893 136.833 30.6052 136.844 30.3048C136.838 29.0675 136.837 27.8288 136.845 26.5914C136.828 26.2711 136.868 25.883 136.604 25.6465C136.372 25.5255 136.099 25.5268 135.851 25.4763C135.852 25.3926 135.854 25.2278 135.854 25.1454Z" fill="#E8E8E8"/>
<path d="M88.3535 38.524C88.7655 38.2183 88.9861 37.7438 89.2984 37.3518C89.4819 37.3119 89.6706 37.3013 89.8646 37.3185C89.9085 37.7651 89.8872 38.2143 89.8965 38.6635C89.8779 38.8363 90.0799 38.9373 90.2288 38.9466C90.7604 39.0051 91.2973 38.9612 91.8316 38.9652C91.8369 39.1872 91.8423 39.4078 91.8516 39.6311C91.2229 39.6776 90.4388 39.336 89.9178 39.7866C89.838 41.0957 89.9098 42.4115 89.8832 43.7219C89.9018 44.215 89.8447 44.8184 90.2407 45.1879C90.674 45.5162 91.2096 45.2304 91.6655 45.1121C91.7319 45.2118 91.7957 45.3155 91.8569 45.4231C91.0289 46.1289 89.6732 46.2591 88.8173 45.5401C88.2644 45.0576 88.2458 44.2708 88.2631 43.5943C88.2472 42.264 88.3163 40.9296 88.2206 39.6019C87.8684 39.5381 87.4843 39.6045 87.1507 39.4822C87.1494 39.4131 87.1454 39.2749 87.144 39.2058C87.5388 38.9652 88.0039 38.8416 88.3535 38.524Z" fill="#E8E8E8"/>
<path d="M117.02 37.4187C117.157 37.2207 117.438 37.3522 117.638 37.331C117.664 37.7669 117.65 38.2055 117.675 38.6441C117.668 38.8262 117.823 38.9551 118.002 38.9471C118.536 39.0043 119.075 38.9617 119.611 38.967C119.615 39.1877 119.622 39.407 119.629 39.6289C118.993 39.6568 118.289 39.399 117.704 39.7246C117.601 41.0523 117.696 42.3907 117.658 43.7224C117.664 44.2354 117.606 44.8893 118.075 45.2322C118.519 45.4847 119.017 45.2256 119.453 45.0834C119.498 45.2017 119.545 45.3213 119.595 45.4422C118.754 46.1533 117.348 46.2596 116.517 45.4808C115.852 44.7564 116.064 43.6958 116.03 42.8C115.986 41.7474 116.123 40.6789 115.954 39.6356C115.64 39.4521 115.218 39.6502 114.915 39.4734C114.916 39.407 114.917 39.2741 114.919 39.2076C115.312 38.9657 115.769 38.8315 116.12 38.5205C116.505 38.2294 116.734 37.7961 117.02 37.4187Z" fill="#E8E8E8"/>
<path d="M82.8431 38.8941C83.7774 38.7519 84.7742 38.8569 85.6129 39.3114C86.0461 39.5427 86.0847 40.1088 86.1325 40.5434C86.1817 40.8916 85.8228 41.3063 85.4786 41.0578C85.2022 40.687 85.1091 40.2045 84.7888 39.863C84.3064 39.3101 83.4425 39.1453 82.7859 39.4589C82.1732 39.7779 82.1799 40.7388 82.7062 41.1375C83.4079 41.7117 84.3662 41.7502 85.153 42.1609C85.7963 42.44 86.4209 42.9783 86.4595 43.7279C86.5645 44.5532 86.0009 45.3227 85.2673 45.6457C84.127 46.1454 82.774 46.164 81.623 45.6882C81.3333 45.5487 80.9691 45.4131 80.8841 45.0662C80.7618 44.6861 80.6355 44.2555 80.799 43.8687C80.8827 43.6401 81.1592 43.6043 81.3625 43.6787C81.6549 44.0774 81.7426 44.5997 82.0962 44.9599C82.6411 45.5513 83.5688 45.655 84.2984 45.3879C84.8766 45.1805 85.0919 44.3857 84.7317 43.902C84.4685 43.5445 84.0206 43.4129 83.6232 43.272C82.8391 43.0168 81.9965 42.7895 81.3891 42.1994C80.7339 41.5894 80.6355 40.465 81.211 39.7713C81.5978 39.2569 82.2304 39.011 82.8431 38.8941Z" fill="#E8E8E8"/>
<path d="M92.682 39.2822C93.4435 39.1267 94.1998 38.8968 94.9773 38.8516C95.5235 38.9539 95.069 39.7833 95.5169 39.9042C96.1482 39.3221 96.9057 38.7267 97.8241 38.8277C98.6441 38.8077 99.3778 39.6198 99.1877 40.4372C99.0947 41.0685 98.26 41.3303 97.771 40.9714C97.5051 40.804 97.5463 40.4478 97.4546 40.186C97.3882 39.8152 96.9416 39.6411 96.6054 39.7221C95.9967 39.8271 95.6272 40.4106 95.4571 40.9582C95.2152 41.8141 95.3361 42.7138 95.3056 43.5897C95.3242 44.0788 95.2391 44.5891 95.388 45.0636C95.5514 45.4318 95.9887 45.4451 96.3276 45.5288C96.3249 45.6657 96.3249 45.8052 96.3249 45.9448C95.1088 45.9315 93.8941 45.9408 92.678 45.9395C92.6753 45.8039 92.6727 45.6683 92.6714 45.5354C93.0342 45.4397 93.5764 45.3879 93.6429 44.9227C93.7359 44.0402 93.6628 43.1498 93.6854 42.2646C93.6615 41.527 93.7479 40.7814 93.623 40.0517C93.5153 39.6304 92.9837 39.6902 92.6567 39.5852C92.6634 39.5095 92.6753 39.358 92.682 39.2822Z" fill="#E8E8E8"/>
<path d="M101.166 39.6397C101.997 38.9566 103.131 38.7479 104.179 38.8662C104.797 38.95 105.414 39.2051 105.846 39.6663C106.259 40.1235 106.396 40.7987 106.23 41.3875C106.083 41.834 105.635 42.0812 105.207 42.1969C104.093 42.4746 102.933 42.3869 101.803 42.553C101.584 43.296 101.993 44.0854 102.599 44.5174C103.289 45.0038 104.195 45.1607 105.017 44.9786C105.511 44.8776 105.909 44.5493 106.294 44.2436C106.358 44.3154 106.488 44.4576 106.553 44.5294C105.404 46.2811 102.694 46.5057 101.121 45.2112C99.4533 43.8662 99.4719 40.9542 101.166 39.6397ZM103.027 39.3925C102.182 39.5268 101.725 40.4066 101.668 41.1921C101.645 41.4645 101.578 41.9138 101.929 42.0041C102.53 42.0639 103.137 41.9988 103.737 41.9297C104.11 41.8712 104.569 41.7357 104.695 41.3303C104.835 40.7322 104.714 39.9893 104.187 39.6105C103.859 39.3593 103.421 39.3341 103.027 39.3925Z" fill="#E8E8E8"/>
<path d="M108.817 39.7138C109.849 38.8565 111.334 38.616 112.602 39.032C113.314 39.2739 113.965 39.8826 114.035 40.6667C114.129 41.201 113.904 41.8031 113.383 42.025C112.214 42.5527 110.887 42.3214 109.658 42.5527C109.347 42.7175 109.493 43.1547 109.552 43.4272C109.949 44.719 111.497 45.2586 112.728 44.9848C113.242 44.8971 113.643 44.5409 114.04 44.2286C114.125 44.3668 114.359 44.509 114.189 44.6791C113.052 46.2009 110.693 46.4428 109.152 45.4128C107.252 44.222 107.122 41.1345 108.817 39.7138ZM110.733 39.3975C109.655 39.6221 109.177 41.0136 109.524 41.9612C110.124 42.1034 110.753 41.9891 111.362 41.9466C111.77 41.8868 112.312 41.7884 112.436 41.3233C112.578 40.7186 112.446 39.9716 111.92 39.5862C111.578 39.3443 111.131 39.335 110.733 39.3975Z" fill="#E8E8E8"/>
</svg>
