<svg width="80" height="80" viewBox="0 0 80 80" fill="none" xmlns="http://www.w3.org/2000/svg">
<path d="M37.0844 5.12957C37.5863 5.03963 38.0981 5.09527 38.6046 5.06554C39.3765 4.95044 40.1605 5.02591 40.9384 5.00761C41.4865 5.11662 42.0489 5.04268 42.6 5.13034C44.8559 5.29651 47.0921 5.69593 49.2814 6.27297C54.3215 7.63665 59.0646 10.1216 63.0546 13.5152C64.1848 14.4581 65.2016 15.5268 66.2237 16.5848C67.7863 18.3137 69.2106 20.1751 70.4164 22.1737C72.4825 25.5955 73.9703 29.371 74.7852 33.2929C74.9009 33.7578 74.9107 34.2487 75.0922 34.6969C75.5148 34.1809 75.8527 33.6008 76.2345 33.0543C76.7992 32.199 77.4009 31.3697 77.9505 30.5045C78.1546 30.5197 78.3096 30.6653 78.4774 30.7682C78.987 31.1014 79.4814 31.4573 80 31.7752C79.9478 32.0389 79.7399 32.228 79.6031 32.4483C78.2741 34.4134 76.9549 36.3861 75.6229 38.3497C75.2396 38.894 74.8986 39.4672 74.4995 40C72.3268 38.5441 70.1866 37.0378 68.0237 35.5667C67.4892 35.1833 66.9245 34.8441 66.3999 34.4469C66.8036 33.7098 67.2806 33.0154 67.6979 32.2859C67.8105 32.3347 67.9194 32.3926 68.0214 32.4643C69.1312 33.2273 70.241 33.9903 71.3606 34.7381C71.7439 34.9836 72.0871 35.2976 72.5127 35.4706C72.5112 34.7465 72.298 34.0444 72.1635 33.3386C70.7453 26.6802 67.1483 20.528 62.1127 15.9987C61.2131 15.1388 60.2129 14.3972 59.2226 13.6501C57.3092 12.2849 55.2484 11.1331 53.0983 10.1948C49.9595 8.8395 46.6037 7.9972 43.2056 7.68163C41.8274 7.51622 40.4334 7.57643 39.0477 7.57567C38.4655 7.60388 37.8766 7.54747 37.2998 7.64046C35.5346 7.79825 33.7875 8.13136 32.0699 8.56661C29.2773 9.31668 26.5868 10.4387 24.0679 11.8664C21.4862 13.3635 19.0942 15.1983 16.9919 17.3258C16.2843 18.0659 15.5562 18.7878 14.922 19.5943C12.4665 22.5297 10.5244 25.902 9.21506 29.5082C9.059 29.9249 8.91266 30.345 8.77581 30.7682C8.59632 31.3233 8.43316 31.8837 8.28581 32.4483C7.58829 31.9849 7.08553 31.9849 6 31.4758C6.10763 31.0391 6.23073 30.5834 6.3703 30.1104C6.71049 29.0882 7.07714 28.0744 7.48008 27.0751C9.58625 22.0586 12.8211 17.527 16.8701 13.92C18.9037 12.1378 21.1127 10.5477 23.4895 9.26256C25.8973 7.91412 28.4904 6.92623 31.1386 6.17692C33.0875 5.66316 35.0795 5.30947 37.0844 5.12957Z" fill="white"/>
<path d="M37.0844 5.12957C37.5863 5.03963 38.0981 5.09527 38.6046 5.06554C39.3765 4.95044 40.1605 5.02591 40.9384 5.00761C41.4865 5.11662 42.0489 5.04268 42.6 5.13034C44.8559 5.29651 47.0921 5.69593 49.2814 6.27297C54.3215 7.63665 59.0646 10.1216 63.0546 13.5152C64.1848 14.4581 65.2016 15.5268 66.2237 16.5848C67.7863 18.3137 69.2106 20.1751 70.4164 22.1737C72.4825 25.5955 73.9703 29.371 74.7852 33.2929C74.9009 33.7578 74.9107 34.2487 75.0922 34.6969C75.5148 34.1809 75.8527 33.6008 76.2345 33.0543C76.7992 32.199 77.4009 31.3697 77.9505 30.5045C78.1546 30.5197 78.3096 30.6653 78.4774 30.7682C78.987 31.1014 79.4814 31.4573 80 31.7752C79.9478 32.0389 79.7399 32.228 79.6031 32.4483C78.2741 34.4134 76.9549 36.3861 75.6229 38.3497C75.2396 38.894 74.8986 39.4672 74.4995 40C72.3268 38.5441 70.1866 37.0378 68.0237 35.5667C67.4892 35.1833 66.9245 34.8441 66.3999 34.4469C66.8036 33.7098 67.2806 33.0154 67.6979 32.2859C67.8105 32.3347 67.9194 32.3926 68.0214 32.4643C69.1312 33.2273 70.241 33.9903 71.3606 34.7381C71.7439 34.9836 72.0871 35.2976 72.5127 35.4706C72.5112 34.7465 72.298 34.0444 72.1635 33.3386C70.7453 26.6802 67.1483 20.528 62.1127 15.9987C61.2131 15.1388 60.2129 14.3972 59.2226 13.6501C57.3092 12.2849 55.2484 11.1331 53.0983 10.1948C49.9595 8.8395 46.6037 7.9972 43.2056 7.68163C41.8274 7.51622 40.4334 7.57643 39.0477 7.57567C38.4655 7.60388 37.8766 7.54747 37.2998 7.64046C35.5346 7.79825 33.7875 8.13136 32.0699 8.56661C29.2773 9.31668 26.5868 10.4387 24.0679 11.8664C21.4862 13.3635 19.0942 15.1983 16.9919 17.3258C16.2843 18.0659 15.5562 18.7878 14.922 19.5943C12.4665 22.5297 10.5244 25.902 9.21506 29.5082C9.059 29.9249 8.91266 30.345 8.77581 30.7682C8.59632 31.3233 8.43316 31.8837 8.28581 32.4483C7.58829 31.9849 7.08553 31.9849 6 31.4758C6.10763 31.0391 6.23073 30.5834 6.3703 30.1104C6.71049 29.0882 7.07714 28.0744 7.48008 27.0751C9.58625 22.0586 12.8211 17.527 16.8701 13.92C18.9037 12.1378 21.1127 10.5477 23.4895 9.26256C25.8973 7.91412 28.4904 6.92623 31.1386 6.17692C33.0875 5.66316 35.0795 5.30947 37.0844 5.12957Z" fill="url(#paint0_linear_2411_1837)"/>
<path d="M37.0844 5.12957C37.5863 5.03963 38.0981 5.09527 38.6046 5.06554C39.3765 4.95044 40.1605 5.02591 40.9384 5.00761C41.4865 5.11662 42.0489 5.04268 42.6 5.13034C44.8559 5.29651 47.0921 5.69593 49.2814 6.27297C54.3215 7.63665 59.0646 10.1216 63.0546 13.5152C64.1848 14.4581 65.2016 15.5268 66.2237 16.5848C67.7863 18.3137 69.2106 20.1751 70.4164 22.1737C72.4825 25.5955 73.9703 29.371 74.7852 33.2929C74.9009 33.7578 74.9107 34.2487 75.0922 34.6969C75.5148 34.1809 75.8527 33.6008 76.2345 33.0543C76.7992 32.199 77.4009 31.3697 77.9505 30.5045C78.1546 30.5197 78.3096 30.6653 78.4774 30.7682C78.987 31.1014 79.4814 31.4573 80 31.7752C79.9478 32.0389 79.7399 32.228 79.6031 32.4483C78.2741 34.4134 76.9549 36.3861 75.6229 38.3497C75.2396 38.894 74.8986 39.4672 74.4995 40C72.3268 38.5441 70.1866 37.0378 68.0237 35.5667C67.4892 35.1833 66.9245 34.8441 66.3999 34.4469C66.8036 33.7098 67.2806 33.0154 67.6979 32.2859C67.8105 32.3347 67.9194 32.3926 68.0214 32.4643C69.1312 33.2273 70.241 33.9903 71.3606 34.7381C71.7439 34.9836 72.0871 35.2976 72.5127 35.4706C72.5112 34.7465 72.298 34.0444 72.1635 33.3386C70.7453 26.6802 67.1483 20.528 62.1127 15.9987C61.2131 15.1388 60.2129 14.3972 59.2226 13.6501C57.3092 12.2849 55.2484 11.1331 53.0983 10.1948C49.9595 8.8395 46.6037 7.9972 43.2056 7.68163C41.8274 7.51622 40.4334 7.57643 39.0477 7.57567C38.4655 7.60388 37.8766 7.54747 37.2998 7.64046C35.5346 7.79825 33.7875 8.13136 32.0699 8.56661C29.2773 9.31668 26.5868 10.4387 24.0679 11.8664C21.4862 13.3635 19.0942 15.1983 16.9919 17.3258C16.2843 18.0659 15.5562 18.7878 14.922 19.5943C12.4665 22.5297 10.5244 25.902 9.21506 29.5082C9.059 29.9249 8.91266 30.345 8.77581 30.7682C8.59632 31.3233 8.43316 31.8837 8.28581 32.4483C7.58829 31.9849 7.08553 31.9849 6 31.4758C6.10763 31.0391 6.23073 30.5834 6.3703 30.1104C6.71049 29.0882 7.07714 28.0744 7.48008 27.0751C9.58625 22.0586 12.8211 17.527 16.8701 13.92C18.9037 12.1378 21.1127 10.5477 23.4895 9.26256C25.8973 7.91412 28.4904 6.92623 31.1386 6.17692C33.0875 5.66316 35.0795 5.30947 37.0844 5.12957Z" fill="url(#paint1_linear_2411_1837)"/>
<path d="M39.4447 16.9182C40.0398 16.8468 40.6433 16.8846 41.2419 16.8881C42.3365 16.9937 43.4171 17.2923 44.3936 17.7999C45.281 18.2873 46.129 18.8768 46.7908 19.6487C48.0232 20.9682 48.7763 22.7002 48.9632 24.4875C49.1599 26.5818 48.5641 28.7529 47.2798 30.4311C45.8304 32.3597 43.521 33.6218 41.1098 33.8106C40.7515 33.7924 40.3974 33.94 40.0419 33.84C37.826 33.7421 35.6824 32.6974 34.2091 31.0528C33.2796 30.0102 32.6023 28.7389 32.2665 27.3845C32.1119 26.8734 32.0944 26.3363 32.0115 25.8119C31.8787 23.3638 32.9086 20.9053 34.6805 19.2138C35.1913 18.7635 35.7196 18.323 36.3182 17.9901C37.2787 17.4377 38.3459 17.0706 39.4447 16.9182ZM39.7756 19.2816C39.0246 19.3872 38.2826 19.5858 37.6145 19.9501C36.3787 20.5633 35.4049 21.6409 34.84 22.8869C34.3222 24.0659 34.1901 25.4007 34.4473 26.6594C34.7318 28.0593 35.5433 29.3277 36.6513 30.2262C37.5084 30.8989 38.544 31.3506 39.626 31.5024C40.1627 31.5352 40.7016 31.5248 41.2398 31.5073C42.6681 31.352 43.989 30.6227 44.988 29.6116C46.1234 28.3865 46.788 26.709 46.6826 25.0357C46.5934 23.9617 46.2499 22.8981 45.6477 21.9975C45.0632 21.1074 44.2243 20.3983 43.2815 19.906C42.621 19.5571 41.8833 19.3893 41.1492 19.2795C40.6918 19.2634 40.2323 19.2557 39.7756 19.2816Z" fill="white"/>
<path d="M39.4447 16.9182C40.0398 16.8468 40.6433 16.8846 41.2419 16.8881C42.3365 16.9937 43.4171 17.2923 44.3936 17.7999C45.281 18.2873 46.129 18.8768 46.7908 19.6487C48.0232 20.9682 48.7763 22.7002 48.9632 24.4875C49.1599 26.5818 48.5641 28.7529 47.2798 30.4311C45.8304 32.3597 43.521 33.6218 41.1098 33.8106C40.7515 33.7924 40.3974 33.94 40.0419 33.84C37.826 33.7421 35.6824 32.6974 34.2091 31.0528C33.2796 30.0102 32.6023 28.7389 32.2665 27.3845C32.1119 26.8734 32.0944 26.3363 32.0115 25.8119C31.8787 23.3638 32.9086 20.9053 34.6805 19.2138C35.1913 18.7635 35.7196 18.323 36.3182 17.9901C37.2787 17.4377 38.3459 17.0706 39.4447 16.9182ZM39.7756 19.2816C39.0246 19.3872 38.2826 19.5858 37.6145 19.9501C36.3787 20.5633 35.4049 21.6409 34.84 22.8869C34.3222 24.0659 34.1901 25.4007 34.4473 26.6594C34.7318 28.0593 35.5433 29.3277 36.6513 30.2262C37.5084 30.8989 38.544 31.3506 39.626 31.5024C40.1627 31.5352 40.7016 31.5248 41.2398 31.5073C42.6681 31.352 43.989 30.6227 44.988 29.6116C46.1234 28.3865 46.788 26.709 46.6826 25.0357C46.5934 23.9617 46.2499 22.8981 45.6477 21.9975C45.0632 21.1074 44.2243 20.3983 43.2815 19.906C42.621 19.5571 41.8833 19.3893 41.1492 19.2795C40.6918 19.2634 40.2323 19.2557 39.7756 19.2816Z" fill="url(#paint2_linear_2411_1837)"/>
<path d="M39.4447 16.9182C40.0398 16.8468 40.6433 16.8846 41.2419 16.8881C42.3365 16.9937 43.4171 17.2923 44.3936 17.7999C45.281 18.2873 46.129 18.8768 46.7908 19.6487C48.0232 20.9682 48.7763 22.7002 48.9632 24.4875C49.1599 26.5818 48.5641 28.7529 47.2798 30.4311C45.8304 32.3597 43.521 33.6218 41.1098 33.8106C40.7515 33.7924 40.3974 33.94 40.0419 33.84C37.826 33.7421 35.6824 32.6974 34.2091 31.0528C33.2796 30.0102 32.6023 28.7389 32.2665 27.3845C32.1119 26.8734 32.0944 26.3363 32.0115 25.8119C31.8787 23.3638 32.9086 20.9053 34.6805 19.2138C35.1913 18.7635 35.7196 18.323 36.3182 17.9901C37.2787 17.4377 38.3459 17.0706 39.4447 16.9182ZM39.7756 19.2816C39.0246 19.3872 38.2826 19.5858 37.6145 19.9501C36.3787 20.5633 35.4049 21.6409 34.84 22.8869C34.3222 24.0659 34.1901 25.4007 34.4473 26.6594C34.7318 28.0593 35.5433 29.3277 36.6513 30.2262C37.5084 30.8989 38.544 31.3506 39.626 31.5024C40.1627 31.5352 40.7016 31.5248 41.2398 31.5073C42.6681 31.352 43.989 30.6227 44.988 29.6116C46.1234 28.3865 46.788 26.709 46.6826 25.0357C46.5934 23.9617 46.2499 22.8981 45.6477 21.9975C45.0632 21.1074 44.2243 20.3983 43.2815 19.906C42.621 19.5571 41.8833 19.3893 41.1492 19.2795C40.6918 19.2634 40.2323 19.2557 39.7756 19.2816Z" fill="url(#paint3_linear_2411_1837)"/>
<path d="M32.6304 36.4621C33.2164 36.2773 33.7834 36.0334 34.3771 35.875C35.7196 38.3712 37.0888 40.8528 38.4432 43.3428C38.8454 44.0514 39.2124 44.7795 39.6272 45.4812C40.1238 45.4541 40.6295 45.5229 41.1211 45.4534C42.9249 42.3306 44.7329 39.2098 46.5388 36.089C46.6381 36.0987 46.7374 36.1154 46.8318 36.1508C48.4299 36.7108 50.0295 37.2645 51.629 37.8196C52.7982 38.2107 54.0005 38.6324 54.9358 39.4585C55.5183 39.924 55.9973 40.5096 56.3832 41.1419C56.8833 42.093 57.3475 43.0795 57.5503 44.139C57.6644 44.4912 57.6207 44.8643 57.6982 45.2228C57.7461 46.1767 57.9032 47.1215 57.9377 48.0761C58.0659 49.1849 58.125 50.2972 58.237 51.4074C58.2969 51.7534 58.249 52.1077 58.3039 52.4544C58.3842 52.8302 58.3208 53.2186 58.4011 53.5951C58.4216 54.0724 58.4892 54.5463 58.4913 55.0249C58.6019 55.7169 58.5519 56.4214 58.5476 57.1196C46.5142 57.1286 34.4807 57.1245 22.4472 57.121C22.3965 56.1358 22.5606 55.1604 22.5789 54.1773C22.6761 53.7237 22.605 53.2554 22.6867 52.8004C22.7543 51.7555 22.8656 50.7161 22.9374 49.6712C23.0163 49.2676 22.9501 48.8514 23.0487 48.4506C23.0599 47.7878 23.1973 47.1347 23.2128 46.4726C23.3051 46.0655 23.2543 45.6452 23.3304 45.236C23.3593 44.1543 23.6685 43.0969 24.115 42.1145C24.4975 41.4038 24.8525 40.6667 25.3892 40.0532C26.2161 39.0993 27.3134 38.408 28.4643 37.8946C29.8532 37.4173 31.2386 36.9317 32.6304 36.4621ZM47.4241 38.802C45.8028 41.7637 44.1941 44.7337 42.5467 47.6808C41.2063 47.6808 39.866 47.6843 38.5263 47.6857C38.3179 47.7176 38.2587 47.4751 38.1657 47.3431C36.6331 44.5037 35.0667 41.6817 33.52 38.8499C33.4728 38.6991 33.3171 38.688 33.1875 38.7325C31.9021 39.1431 30.6195 39.5627 29.3313 39.9643C28.715 40.1949 28.148 40.5388 27.6416 40.9536C27.2859 41.3065 26.888 41.631 26.6401 42.0728C26.2703 42.7287 25.9709 43.4269 25.7878 44.1564C25.6209 44.667 25.685 45.2124 25.5568 45.7313C25.4674 46.7693 25.311 47.801 25.2272 48.8403C25.1483 49.2266 25.2032 49.6247 25.1145 50.0089C25.0814 50.8252 24.9673 51.636 24.9497 52.453C24.8666 52.8414 24.894 53.2394 24.8687 53.6334C24.8208 53.9488 24.8165 54.2684 24.8144 54.5872C26.102 54.5935 27.3888 54.5935 28.6763 54.5859C28.6995 54.3385 28.6875 54.0905 28.7143 53.8439C28.8073 53.3624 28.739 52.8684 28.7911 52.3828C28.8721 51.9854 28.8164 51.5783 28.865 51.1781C28.9228 50.7724 28.8862 50.3611 28.9221 49.9547C28.9996 49.5781 28.9672 49.1932 28.9904 48.8125C29.2109 48.8021 29.4285 48.8327 29.6468 48.8632C30.1955 48.8785 30.7449 48.8785 31.2943 48.8862C31.2943 49.2398 31.3189 49.5976 31.2499 49.947C31.2126 50.2451 31.2372 50.5466 31.1992 50.8447C31.14 51.3094 31.1837 51.7805 31.1379 52.246C31.0344 52.7712 31.1407 53.3131 31.0365 53.8376C31.0027 54.0898 31.0154 54.3448 31.002 54.5991C31.414 54.6734 31.838 54.6303 32.2515 54.5872C38.0664 54.5907 43.8814 54.5921 49.697 54.5872C49.6872 54.2225 49.7041 53.8543 49.635 53.4937C49.5963 52.9859 49.6541 52.4704 49.5597 51.9667C49.5252 51.6151 49.5519 51.2608 49.5146 50.9093C49.4547 50.5223 49.5061 50.127 49.4273 49.7421C49.3984 49.4593 49.4139 49.1738 49.4153 48.8903C49.8428 48.8855 50.2718 48.8778 50.7 48.8737C51.0416 48.8792 51.3754 48.7847 51.7184 48.8091C51.7346 49.1189 51.7149 49.4322 51.7734 49.7393C51.8142 50.1714 51.7854 50.6077 51.8276 51.0406C51.8819 51.4157 51.8347 51.7985 51.9128 52.1716C51.9579 52.5899 51.915 53.013 51.9593 53.4319C52.0276 53.8091 52.0016 54.1947 52.0143 54.5761C52.5284 54.7311 53.0679 54.5588 53.5934 54.5872C54.0843 54.6032 54.5801 54.5518 55.0682 54.6241C55.345 54.6359 55.6275 54.6567 55.9015 54.5997C55.8846 54.2301 55.9001 53.8585 55.8395 53.493C55.7937 53.0546 55.8536 52.6079 55.7627 52.1744C55.7141 51.8013 55.7676 51.4213 55.7007 51.0503C55.5514 49.2009 55.3901 47.355 55.1845 45.5104C55.1422 44.1355 54.6414 42.7821 53.8188 41.6747C53.2997 41.0001 52.5791 40.4867 51.7762 40.1908C50.4795 39.6815 49.1498 39.2591 47.8446 38.7714C47.7143 38.729 47.5037 38.638 47.4241 38.802Z" fill="white"/>
<path d="M32.6304 36.4621C33.2164 36.2773 33.7834 36.0334 34.3771 35.875C35.7196 38.3712 37.0888 40.8528 38.4432 43.3428C38.8454 44.0514 39.2124 44.7795 39.6272 45.4812C40.1238 45.4541 40.6295 45.5229 41.1211 45.4534C42.9249 42.3306 44.7329 39.2098 46.5388 36.089C46.6381 36.0987 46.7374 36.1154 46.8318 36.1508C48.4299 36.7108 50.0295 37.2645 51.629 37.8196C52.7982 38.2107 54.0005 38.6324 54.9358 39.4585C55.5183 39.924 55.9973 40.5096 56.3832 41.1419C56.8833 42.093 57.3475 43.0795 57.5503 44.139C57.6644 44.4912 57.6207 44.8643 57.6982 45.2228C57.7461 46.1767 57.9032 47.1215 57.9377 48.0761C58.0659 49.1849 58.125 50.2972 58.237 51.4074C58.2969 51.7534 58.249 52.1077 58.3039 52.4544C58.3842 52.8302 58.3208 53.2186 58.4011 53.5951C58.4216 54.0724 58.4892 54.5463 58.4913 55.0249C58.6019 55.7169 58.5519 56.4214 58.5476 57.1196C46.5142 57.1286 34.4807 57.1245 22.4472 57.121C22.3965 56.1358 22.5606 55.1604 22.5789 54.1773C22.6761 53.7237 22.605 53.2554 22.6867 52.8004C22.7543 51.7555 22.8656 50.7161 22.9374 49.6712C23.0163 49.2676 22.9501 48.8514 23.0487 48.4506C23.0599 47.7878 23.1973 47.1347 23.2128 46.4726C23.3051 46.0655 23.2543 45.6452 23.3304 45.236C23.3593 44.1543 23.6685 43.0969 24.115 42.1145C24.4975 41.4038 24.8525 40.6667 25.3892 40.0532C26.2161 39.0993 27.3134 38.408 28.4643 37.8946C29.8532 37.4173 31.2386 36.9317 32.6304 36.4621ZM47.4241 38.802C45.8028 41.7637 44.1941 44.7337 42.5467 47.6808C41.2063 47.6808 39.866 47.6843 38.5263 47.6857C38.3179 47.7176 38.2587 47.4751 38.1657 47.3431C36.6331 44.5037 35.0667 41.6817 33.52 38.8499C33.4728 38.6991 33.3171 38.688 33.1875 38.7325C31.9021 39.1431 30.6195 39.5627 29.3313 39.9643C28.715 40.1949 28.148 40.5388 27.6416 40.9536C27.2859 41.3065 26.888 41.631 26.6401 42.0728C26.2703 42.7287 25.9709 43.4269 25.7878 44.1564C25.6209 44.667 25.685 45.2124 25.5568 45.7313C25.4674 46.7693 25.311 47.801 25.2272 48.8403C25.1483 49.2266 25.2032 49.6247 25.1145 50.0089C25.0814 50.8252 24.9673 51.636 24.9497 52.453C24.8666 52.8414 24.894 53.2394 24.8687 53.6334C24.8208 53.9488 24.8165 54.2684 24.8144 54.5872C26.102 54.5935 27.3888 54.5935 28.6763 54.5859C28.6995 54.3385 28.6875 54.0905 28.7143 53.8439C28.8073 53.3624 28.739 52.8684 28.7911 52.3828C28.8721 51.9854 28.8164 51.5783 28.865 51.1781C28.9228 50.7724 28.8862 50.3611 28.9221 49.9547C28.9996 49.5781 28.9672 49.1932 28.9904 48.8125C29.2109 48.8021 29.4285 48.8327 29.6468 48.8632C30.1955 48.8785 30.7449 48.8785 31.2943 48.8862C31.2943 49.2398 31.3189 49.5976 31.2499 49.947C31.2126 50.2451 31.2372 50.5466 31.1992 50.8447C31.14 51.3094 31.1837 51.7805 31.1379 52.246C31.0344 52.7712 31.1407 53.3131 31.0365 53.8376C31.0027 54.0898 31.0154 54.3448 31.002 54.5991C31.414 54.6734 31.838 54.6303 32.2515 54.5872C38.0664 54.5907 43.8814 54.5921 49.697 54.5872C49.6872 54.2225 49.7041 53.8543 49.635 53.4937C49.5963 52.9859 49.6541 52.4704 49.5597 51.9667C49.5252 51.6151 49.5519 51.2608 49.5146 50.9093C49.4547 50.5223 49.5061 50.127 49.4273 49.7421C49.3984 49.4593 49.4139 49.1738 49.4153 48.8903C49.8428 48.8855 50.2718 48.8778 50.7 48.8737C51.0416 48.8792 51.3754 48.7847 51.7184 48.8091C51.7346 49.1189 51.7149 49.4322 51.7734 49.7393C51.8142 50.1714 51.7854 50.6077 51.8276 51.0406C51.8819 51.4157 51.8347 51.7985 51.9128 52.1716C51.9579 52.5899 51.915 53.013 51.9593 53.4319C52.0276 53.8091 52.0016 54.1947 52.0143 54.5761C52.5284 54.7311 53.0679 54.5588 53.5934 54.5872C54.0843 54.6032 54.5801 54.5518 55.0682 54.6241C55.345 54.6359 55.6275 54.6567 55.9015 54.5997C55.8846 54.2301 55.9001 53.8585 55.8395 53.493C55.7937 53.0546 55.8536 52.6079 55.7627 52.1744C55.7141 51.8013 55.7676 51.4213 55.7007 51.0503C55.5514 49.2009 55.3901 47.355 55.1845 45.5104C55.1422 44.1355 54.6414 42.7821 53.8188 41.6747C53.2997 41.0001 52.5791 40.4867 51.7762 40.1908C50.4795 39.6815 49.1498 39.2591 47.8446 38.7714C47.7143 38.729 47.5037 38.638 47.4241 38.802Z" fill="url(#paint4_linear_2411_1837)"/>
<path d="M32.6304 36.4621C33.2164 36.2773 33.7834 36.0334 34.3771 35.875C35.7196 38.3712 37.0888 40.8528 38.4432 43.3428C38.8454 44.0514 39.2124 44.7795 39.6272 45.4812C40.1238 45.4541 40.6295 45.5229 41.1211 45.4534C42.9249 42.3306 44.7329 39.2098 46.5388 36.089C46.6381 36.0987 46.7374 36.1154 46.8318 36.1508C48.4299 36.7108 50.0295 37.2645 51.629 37.8196C52.7982 38.2107 54.0005 38.6324 54.9358 39.4585C55.5183 39.924 55.9973 40.5096 56.3832 41.1419C56.8833 42.093 57.3475 43.0795 57.5503 44.139C57.6644 44.4912 57.6207 44.8643 57.6982 45.2228C57.7461 46.1767 57.9032 47.1215 57.9377 48.0761C58.0659 49.1849 58.125 50.2972 58.237 51.4074C58.2969 51.7534 58.249 52.1077 58.3039 52.4544C58.3842 52.8302 58.3208 53.2186 58.4011 53.5951C58.4216 54.0724 58.4892 54.5463 58.4913 55.0249C58.6019 55.7169 58.5519 56.4214 58.5476 57.1196C46.5142 57.1286 34.4807 57.1245 22.4472 57.121C22.3965 56.1358 22.5606 55.1604 22.5789 54.1773C22.6761 53.7237 22.605 53.2554 22.6867 52.8004C22.7543 51.7555 22.8656 50.7161 22.9374 49.6712C23.0163 49.2676 22.9501 48.8514 23.0487 48.4506C23.0599 47.7878 23.1973 47.1347 23.2128 46.4726C23.3051 46.0655 23.2543 45.6452 23.3304 45.236C23.3593 44.1543 23.6685 43.0969 24.115 42.1145C24.4975 41.4038 24.8525 40.6667 25.3892 40.0532C26.2161 39.0993 27.3134 38.408 28.4643 37.8946C29.8532 37.4173 31.2386 36.9317 32.6304 36.4621ZM47.4241 38.802C45.8028 41.7637 44.1941 44.7337 42.5467 47.6808C41.2063 47.6808 39.866 47.6843 38.5263 47.6857C38.3179 47.7176 38.2587 47.4751 38.1657 47.3431C36.6331 44.5037 35.0667 41.6817 33.52 38.8499C33.4728 38.6991 33.3171 38.688 33.1875 38.7325C31.9021 39.1431 30.6195 39.5627 29.3313 39.9643C28.715 40.1949 28.148 40.5388 27.6416 40.9536C27.2859 41.3065 26.888 41.631 26.6401 42.0728C26.2703 42.7287 25.9709 43.4269 25.7878 44.1564C25.6209 44.667 25.685 45.2124 25.5568 45.7313C25.4674 46.7693 25.311 47.801 25.2272 48.8403C25.1483 49.2266 25.2032 49.6247 25.1145 50.0089C25.0814 50.8252 24.9673 51.636 24.9497 52.453C24.8666 52.8414 24.894 53.2394 24.8687 53.6334C24.8208 53.9488 24.8165 54.2684 24.8144 54.5872C26.102 54.5935 27.3888 54.5935 28.6763 54.5859C28.6995 54.3385 28.6875 54.0905 28.7143 53.8439C28.8073 53.3624 28.739 52.8684 28.7911 52.3828C28.8721 51.9854 28.8164 51.5783 28.865 51.1781C28.9228 50.7724 28.8862 50.3611 28.9221 49.9547C28.9996 49.5781 28.9672 49.1932 28.9904 48.8125C29.2109 48.8021 29.4285 48.8327 29.6468 48.8632C30.1955 48.8785 30.7449 48.8785 31.2943 48.8862C31.2943 49.2398 31.3189 49.5976 31.2499 49.947C31.2126 50.2451 31.2372 50.5466 31.1992 50.8447C31.14 51.3094 31.1837 51.7805 31.1379 52.246C31.0344 52.7712 31.1407 53.3131 31.0365 53.8376C31.0027 54.0898 31.0154 54.3448 31.002 54.5991C31.414 54.6734 31.838 54.6303 32.2515 54.5872C38.0664 54.5907 43.8814 54.5921 49.697 54.5872C49.6872 54.2225 49.7041 53.8543 49.635 53.4937C49.5963 52.9859 49.6541 52.4704 49.5597 51.9667C49.5252 51.6151 49.5519 51.2608 49.5146 50.9093C49.4547 50.5223 49.5061 50.127 49.4273 49.7421C49.3984 49.4593 49.4139 49.1738 49.4153 48.8903C49.8428 48.8855 50.2718 48.8778 50.7 48.8737C51.0416 48.8792 51.3754 48.7847 51.7184 48.8091C51.7346 49.1189 51.7149 49.4322 51.7734 49.7393C51.8142 50.1714 51.7854 50.6077 51.8276 51.0406C51.8819 51.4157 51.8347 51.7985 51.9128 52.1716C51.9579 52.5899 51.915 53.013 51.9593 53.4319C52.0276 53.8091 52.0016 54.1947 52.0143 54.5761C52.5284 54.7311 53.0679 54.5588 53.5934 54.5872C54.0843 54.6032 54.5801 54.5518 55.0682 54.6241C55.345 54.6359 55.6275 54.6567 55.9015 54.5997C55.8846 54.2301 55.9001 53.8585 55.8395 53.493C55.7937 53.0546 55.8536 52.6079 55.7627 52.1744C55.7141 51.8013 55.7676 51.4213 55.7007 51.0503C55.5514 49.2009 55.3901 47.355 55.1845 45.5104C55.1422 44.1355 54.6414 42.7821 53.8188 41.6747C53.2997 41.0001 52.5791 40.4867 51.7762 40.1908C50.4795 39.6815 49.1498 39.2591 47.8446 38.7714C47.7143 38.729 47.5037 38.638 47.4241 38.802Z" fill="url(#paint5_linear_2411_1837)"/>
<path d="M5.39799 41.5055C5.52633 41.3387 5.64328 41.1607 5.79669 41.0146C5.87339 40.9872 5.94402 40.9983 6.00781 41.0487C8.58453 42.9123 11.1575 44.7826 13.7357 46.6462C13.7053 46.77 13.6507 46.8872 13.5686 46.9881C13.1441 47.5413 12.7325 48.1034 12.327 48.6707C10.8089 47.6199 9.34852 46.4897 7.84485 45.4196C7.80536 45.8445 7.9656 46.248 8.01952 46.6647C8.70756 49.8625 9.86644 52.9704 11.5007 55.824C13.798 59.8375 16.9724 63.366 20.752 66.1069C24.8712 69.108 29.7178 71.1496 34.7756 72.0343C35.2244 72.1471 35.6899 72.1589 36.1448 72.239C36.7501 72.3488 37.3698 72.3443 37.9765 72.4526C39.3632 72.4941 40.7507 72.4971 42.1382 72.4741C42.5726 72.4607 43.0123 72.4919 43.4414 72.4118C43.9183 72.3643 44.399 72.3443 44.8698 72.2494C48.3305 71.8104 51.7123 70.7944 54.8365 69.2756C57.638 67.9534 60.2186 66.201 62.5242 64.1646C62.8879 63.825 63.2388 63.4713 63.6177 63.1472C65.5983 61.2094 67.3496 59.0447 68.7879 56.6939C70.5103 53.8485 71.8309 50.7635 72.6078 47.5443C72.6078 47.5443 74.9926 48.5621 75 48.3667C73.6475 53.801 70.9242 58.9031 67.1362 63.099C65.1366 65.3534 62.8135 67.323 60.2983 69.0109C55.7038 72.0595 50.3665 74.0485 44.8516 74.7115C43.8636 74.8568 42.8619 74.8946 41.8694 74.991C40.7948 75.0059 39.7202 74.9999 38.6456 74.9903C38.4671 74.9851 38.2871 74.9866 38.1125 74.9517C37.7404 74.8753 37.3553 74.9332 36.9824 74.8657C36.4228 74.7841 35.8585 74.7582 35.3003 74.6721C30.8212 74.0396 26.4606 72.5683 22.5617 70.319C19.4982 68.5578 16.6754 66.3849 14.2468 63.8487C9.96593 59.3488 6.95937 53.7061 5.63949 47.7C5.47241 47.1342 5.44507 46.5379 5.2575 45.978C4.12823 47.3166 3.11364 48.7456 1.99729 50.0946C1.30697 49.6748 0.682723 49.1579 0 48.7263C0.0220233 48.6463 0.0296175 48.558 0.0880932 48.4927C1.85983 46.1649 3.62853 43.8356 5.39799 41.5055Z" fill="white"/>
<path d="M5.39799 41.5055C5.52633 41.3387 5.64328 41.1607 5.79669 41.0146C5.87339 40.9872 5.94402 40.9983 6.00781 41.0487C8.58453 42.9123 11.1575 44.7826 13.7357 46.6462C13.7053 46.77 13.6507 46.8872 13.5686 46.9881C13.1441 47.5413 12.7325 48.1034 12.327 48.6707C10.8089 47.6199 9.34852 46.4897 7.84485 45.4196C7.80536 45.8445 7.9656 46.248 8.01952 46.6647C8.70756 49.8625 9.86644 52.9704 11.5007 55.824C13.798 59.8375 16.9724 63.366 20.752 66.1069C24.8712 69.108 29.7178 71.1496 34.7756 72.0343C35.2244 72.1471 35.6899 72.1589 36.1448 72.239C36.7501 72.3488 37.3698 72.3443 37.9765 72.4526C39.3632 72.4941 40.7507 72.4971 42.1382 72.4741C42.5726 72.4607 43.0123 72.4919 43.4414 72.4118C43.9183 72.3643 44.399 72.3443 44.8698 72.2494C48.3305 71.8104 51.7123 70.7944 54.8365 69.2756C57.638 67.9534 60.2186 66.201 62.5242 64.1646C62.8879 63.825 63.2388 63.4713 63.6177 63.1472C65.5983 61.2094 67.3496 59.0447 68.7879 56.6939C70.5103 53.8485 71.8309 50.7635 72.6078 47.5443C72.6078 47.5443 74.9926 48.5621 75 48.3667C73.6475 53.801 70.9242 58.9031 67.1362 63.099C65.1366 65.3534 62.8135 67.323 60.2983 69.0109C55.7038 72.0595 50.3665 74.0485 44.8516 74.7115C43.8636 74.8568 42.8619 74.8946 41.8694 74.991C40.7948 75.0059 39.7202 74.9999 38.6456 74.9903C38.4671 74.9851 38.2871 74.9866 38.1125 74.9517C37.7404 74.8753 37.3553 74.9332 36.9824 74.8657C36.4228 74.7841 35.8585 74.7582 35.3003 74.6721C30.8212 74.0396 26.4606 72.5683 22.5617 70.319C19.4982 68.5578 16.6754 66.3849 14.2468 63.8487C9.96593 59.3488 6.95937 53.7061 5.63949 47.7C5.47241 47.1342 5.44507 46.5379 5.2575 45.978C4.12823 47.3166 3.11364 48.7456 1.99729 50.0946C1.30697 49.6748 0.682723 49.1579 0 48.7263C0.0220233 48.6463 0.0296175 48.558 0.0880932 48.4927C1.85983 46.1649 3.62853 43.8356 5.39799 41.5055Z" fill="url(#paint6_linear_2411_1837)"/>
<path d="M5.39799 41.5055C5.52633 41.3387 5.64328 41.1607 5.79669 41.0146C5.87339 40.9872 5.94402 40.9983 6.00781 41.0487C8.58453 42.9123 11.1575 44.7826 13.7357 46.6462C13.7053 46.77 13.6507 46.8872 13.5686 46.9881C13.1441 47.5413 12.7325 48.1034 12.327 48.6707C10.8089 47.6199 9.34852 46.4897 7.84485 45.4196C7.80536 45.8445 7.9656 46.248 8.01952 46.6647C8.70756 49.8625 9.86644 52.9704 11.5007 55.824C13.798 59.8375 16.9724 63.366 20.752 66.1069C24.8712 69.108 29.7178 71.1496 34.7756 72.0343C35.2244 72.1471 35.6899 72.1589 36.1448 72.239C36.7501 72.3488 37.3698 72.3443 37.9765 72.4526C39.3632 72.4941 40.7507 72.4971 42.1382 72.4741C42.5726 72.4607 43.0123 72.4919 43.4414 72.4118C43.9183 72.3643 44.399 72.3443 44.8698 72.2494C48.3305 71.8104 51.7123 70.7944 54.8365 69.2756C57.638 67.9534 60.2186 66.201 62.5242 64.1646C62.8879 63.825 63.2388 63.4713 63.6177 63.1472C65.5983 61.2094 67.3496 59.0447 68.7879 56.6939C70.5103 53.8485 71.8309 50.7635 72.6078 47.5443C72.6078 47.5443 74.9926 48.5621 75 48.3667C73.6475 53.801 70.9242 58.9031 67.1362 63.099C65.1366 65.3534 62.8135 67.323 60.2983 69.0109C55.7038 72.0595 50.3665 74.0485 44.8516 74.7115C43.8636 74.8568 42.8619 74.8946 41.8694 74.991C40.7948 75.0059 39.7202 74.9999 38.6456 74.9903C38.4671 74.9851 38.2871 74.9866 38.1125 74.9517C37.7404 74.8753 37.3553 74.9332 36.9824 74.8657C36.4228 74.7841 35.8585 74.7582 35.3003 74.6721C30.8212 74.0396 26.4606 72.5683 22.5617 70.319C19.4982 68.5578 16.6754 66.3849 14.2468 63.8487C9.96593 59.3488 6.95937 53.7061 5.63949 47.7C5.47241 47.1342 5.44507 46.5379 5.2575 45.978C4.12823 47.3166 3.11364 48.7456 1.99729 50.0946C1.30697 49.6748 0.682723 49.1579 0 48.7263C0.0220233 48.6463 0.0296175 48.558 0.0880932 48.4927C1.85983 46.1649 3.62853 43.8356 5.39799 41.5055Z" fill="url(#paint7_linear_2411_1837)"/>
<defs>
<linearGradient id="paint0_linear_2411_1837" x1="-48.766" y1="36.5169" x2="102.912" y2="32.9511" gradientUnits="userSpaceOnUse">
<stop stop-color="#E7F1FF"/>
<stop offset="0.210326" stop-color="#FAD9DE"/>
<stop offset="0.586168" stop-color="#EE5998"/>
<stop offset="0.956711" stop-color="#3375F4"/>
</linearGradient>
<linearGradient id="paint1_linear_2411_1837" x1="-5.84814" y1="33.9651" x2="95.1634" y2="31.5419" gradientUnits="userSpaceOnUse">
<stop stop-color="#E7F1FF"/>
<stop offset="0.305858" stop-color="#F05596"/>
<stop offset="0.671875" stop-color="#558DF9"/>
<stop offset="0.953125" stop-color="#31BCFF"/>
</linearGradient>
<linearGradient id="paint2_linear_2411_1837" x1="19.4186" y1="32.1832" x2="54.2786" y2="31.7956" gradientUnits="userSpaceOnUse">
<stop stop-color="#E7F1FF"/>
<stop offset="0.210326" stop-color="#FAD9DE"/>
<stop offset="0.586168" stop-color="#EE5998"/>
<stop offset="0.956711" stop-color="#3375F4"/>
</linearGradient>
<linearGradient id="paint3_linear_2411_1837" x1="29.2781" y1="30.9438" x2="52.4939" y2="30.6804" gradientUnits="userSpaceOnUse">
<stop stop-color="#E7F1FF"/>
<stop offset="0.305858" stop-color="#F05596"/>
<stop offset="0.671875" stop-color="#558DF9"/>
<stop offset="0.953125" stop-color="#31BCFF"/>
</linearGradient>
<linearGradient id="paint4_linear_2411_1837" x1="-4.29797" y1="55.0103" x2="69.7621" y2="53.6103" gradientUnits="userSpaceOnUse">
<stop stop-color="#E7F1FF"/>
<stop offset="0.210326" stop-color="#FAD9DE"/>
<stop offset="0.586168" stop-color="#EE5998"/>
<stop offset="0.956711" stop-color="#3375F4"/>
</linearGradient>
<linearGradient id="paint5_linear_2411_1837" x1="16.6535" y1="53.461" x2="65.975" y2="52.5096" gradientUnits="userSpaceOnUse">
<stop stop-color="#E7F1FF"/>
<stop offset="0.305858" stop-color="#F05596"/>
<stop offset="0.671875" stop-color="#558DF9"/>
<stop offset="0.953125" stop-color="#31BCFF"/>
</linearGradient>
<linearGradient id="paint6_linear_2411_1837" x1="-55.5061" y1="71.6164" x2="98.2142" y2="67.846" gradientUnits="userSpaceOnUse">
<stop stop-color="#E7F1FF"/>
<stop offset="0.210326" stop-color="#FAD9DE"/>
<stop offset="0.586168" stop-color="#EE5998"/>
<stop offset="0.956711" stop-color="#3375F4"/>
</linearGradient>
<linearGradient id="paint7_linear_2411_1837" x1="-12.0083" y1="69.1376" x2="90.3631" y2="66.5753" gradientUnits="userSpaceOnUse">
<stop stop-color="#E7F1FF"/>
<stop offset="0.305858" stop-color="#F05596"/>
<stop offset="0.671875" stop-color="#558DF9"/>
<stop offset="0.953125" stop-color="#31BCFF"/>
</linearGradient>
</defs>
</svg>
