<svg width="80" height="80" viewBox="0 0 80 80" fill="none" xmlns="http://www.w3.org/2000/svg">
<path d="M16.6782 8.20975C16.9367 7.89515 17.3452 7.74395 17.7463 7.7598C32.4996 7.75858 47.2516 7.76346 62.0036 7.75858C62.4792 7.72444 63.0048 7.81468 63.3206 8.20488C68.6797 14.1932 74.045 20.1779 79.4017 26.1688C79.8407 26.6321 79.8139 27.415 79.3737 27.8686C66.5946 42.9828 53.8167 58.0982 41.034 73.2111C40.4255 73.2111 39.8183 73.2087 39.2098 73.2124C38.9818 72.8624 38.7562 72.51 38.4672 72.2076C25.8503 57.4263 13.2383 42.6438 0.622604 27.8637C0.183627 27.4125 0.164117 26.6346 0.595777 26.1724C5.95372 20.1828 11.3165 14.1957 16.6782 8.20975ZM21.285 10.2607C27.8123 15.3053 34.336 20.3548 40.8645 25.3969C46.8895 20.3523 52.9144 15.3078 58.9369 10.2595C46.3859 10.2595 33.8348 10.2583 21.285 10.2607ZM17.7853 10.7083C13.2944 15.7223 8.80463 20.7389 4.31244 25.7529C15.2905 25.7554 26.2673 25.7529 37.2454 25.7542C30.7583 20.7389 24.2712 15.7236 17.7853 10.7083ZM44.3275 25.7529C54.7813 25.7554 65.235 25.7529 75.6899 25.7542C71.2075 20.7498 66.7251 15.7467 62.2475 10.74C56.2762 15.7467 50.2988 20.7462 44.3275 25.7529ZM4.2283 28.2466C14.9247 40.7818 25.6211 53.317 36.3187 65.8498C31.5875 53.3158 26.8722 40.7745 22.1324 28.2429C16.1636 28.249 10.1959 28.2417 4.2283 28.2466ZM24.8004 28.2454C29.8901 41.7487 34.9835 55.2509 40.0744 68.7543C45.1165 55.2509 50.1623 41.7487 55.2068 28.2466C45.0714 28.2429 34.9359 28.2466 24.8004 28.2454ZM57.8687 28.2441C53.1315 40.9025 48.4088 53.567 43.674 66.2253C54.3874 53.5718 65.0826 40.9025 75.7936 28.2466C69.8186 28.2417 63.8437 28.2478 57.8687 28.2441Z" fill="white"/>
<path d="M16.6782 8.20975C16.9367 7.89515 17.3452 7.74395 17.7463 7.7598C32.4996 7.75858 47.2516 7.76346 62.0036 7.75858C62.4792 7.72444 63.0048 7.81468 63.3206 8.20488C68.6797 14.1932 74.045 20.1779 79.4017 26.1688C79.8407 26.6321 79.8139 27.415 79.3737 27.8686C66.5946 42.9828 53.8167 58.0982 41.034 73.2111C40.4255 73.2111 39.8183 73.2087 39.2098 73.2124C38.9818 72.8624 38.7562 72.51 38.4672 72.2076C25.8503 57.4263 13.2383 42.6438 0.622604 27.8637C0.183627 27.4125 0.164117 26.6346 0.595777 26.1724C5.95372 20.1828 11.3165 14.1957 16.6782 8.20975ZM21.285 10.2607C27.8123 15.3053 34.336 20.3548 40.8645 25.3969C46.8895 20.3523 52.9144 15.3078 58.9369 10.2595C46.3859 10.2595 33.8348 10.2583 21.285 10.2607ZM17.7853 10.7083C13.2944 15.7223 8.80463 20.7389 4.31244 25.7529C15.2905 25.7554 26.2673 25.7529 37.2454 25.7542C30.7583 20.7389 24.2712 15.7236 17.7853 10.7083ZM44.3275 25.7529C54.7813 25.7554 65.235 25.7529 75.6899 25.7542C71.2075 20.7498 66.7251 15.7467 62.2475 10.74C56.2762 15.7467 50.2988 20.7462 44.3275 25.7529ZM4.2283 28.2466C14.9247 40.7818 25.6211 53.317 36.3187 65.8498C31.5875 53.3158 26.8722 40.7745 22.1324 28.2429C16.1636 28.249 10.1959 28.2417 4.2283 28.2466ZM24.8004 28.2454C29.8901 41.7487 34.9835 55.2509 40.0744 68.7543C45.1165 55.2509 50.1623 41.7487 55.2068 28.2466C45.0714 28.2429 34.9359 28.2466 24.8004 28.2454ZM57.8687 28.2441C53.1315 40.9025 48.4088 53.567 43.674 66.2253C54.3874 53.5718 65.0826 40.9025 75.7936 28.2466C69.8186 28.2417 63.8437 28.2478 57.8687 28.2441Z" fill="url(#paint0_linear_2411_2914)"/>
<path d="M16.6782 8.20975C16.9367 7.89515 17.3452 7.74395 17.7463 7.7598C32.4996 7.75858 47.2516 7.76346 62.0036 7.75858C62.4792 7.72444 63.0048 7.81468 63.3206 8.20488C68.6797 14.1932 74.045 20.1779 79.4017 26.1688C79.8407 26.6321 79.8139 27.415 79.3737 27.8686C66.5946 42.9828 53.8167 58.0982 41.034 73.2111C40.4255 73.2111 39.8183 73.2087 39.2098 73.2124C38.9818 72.8624 38.7562 72.51 38.4672 72.2076C25.8503 57.4263 13.2383 42.6438 0.622604 27.8637C0.183627 27.4125 0.164117 26.6346 0.595777 26.1724C5.95372 20.1828 11.3165 14.1957 16.6782 8.20975ZM21.285 10.2607C27.8123 15.3053 34.336 20.3548 40.8645 25.3969C46.8895 20.3523 52.9144 15.3078 58.9369 10.2595C46.3859 10.2595 33.8348 10.2583 21.285 10.2607ZM17.7853 10.7083C13.2944 15.7223 8.80463 20.7389 4.31244 25.7529C15.2905 25.7554 26.2673 25.7529 37.2454 25.7542C30.7583 20.7389 24.2712 15.7236 17.7853 10.7083ZM44.3275 25.7529C54.7813 25.7554 65.235 25.7529 75.6899 25.7542C71.2075 20.7498 66.7251 15.7467 62.2475 10.74C56.2762 15.7467 50.2988 20.7462 44.3275 25.7529ZM4.2283 28.2466C14.9247 40.7818 25.6211 53.317 36.3187 65.8498C31.5875 53.3158 26.8722 40.7745 22.1324 28.2429C16.1636 28.249 10.1959 28.2417 4.2283 28.2466ZM24.8004 28.2454C29.8901 41.7487 34.9835 55.2509 40.0744 68.7543C45.1165 55.2509 50.1623 41.7487 55.2068 28.2466C45.0714 28.2429 34.9359 28.2466 24.8004 28.2454ZM57.8687 28.2441C53.1315 40.9025 48.4088 53.567 43.674 66.2253C54.3874 53.5718 65.0826 40.9025 75.7936 28.2466C69.8186 28.2417 63.8437 28.2478 57.8687 28.2441Z" fill="url(#paint1_linear_2411_2914)"/>
<defs>
<linearGradient id="paint0_linear_2411_2914" x1="-58.5061" y1="66.6979" x2="104.373" y2="64.5001" gradientUnits="userSpaceOnUse">
<stop stop-color="#E7F1FF"/>
<stop offset="0.210326" stop-color="#FAD9DE"/>
<stop offset="0.586168" stop-color="#EE5998"/>
<stop offset="0.956711" stop-color="#3375F4"/>
</linearGradient>
<linearGradient id="paint1_linear_2411_2914" x1="-12.4359" y1="61.9254" x2="96.0367" y2="60.4318" gradientUnits="userSpaceOnUse">
<stop stop-color="#E7F1FF"/>
<stop offset="0.305858" stop-color="#F05596"/>
<stop offset="0.671875" stop-color="#558DF9"/>
<stop offset="0.953125" stop-color="#31BCFF"/>
</linearGradient>
</defs>
</svg>
