<svg width="80" height="80" viewBox="0 0 80 80" fill="none" xmlns="http://www.w3.org/2000/svg">
<path fill-rule="evenodd" clip-rule="evenodd" d="M38.929 4L46.8839 11.955C46.9129 11.984 46.9437 12.014 46.9755 12.045L46.9757 12.0452C47.2113 12.2752 47.5 12.557 47.5 12.8389C47.5 12.8389 47.128 13.4786 46.8839 13.7227L38.929 21.6777C38.827 21.8144 37.087 20.0175 37.1612 19.9099L42.9823 14.0888H21.8219C21.4614 17.8011 18.6918 20.808 15.0963 21.5264L15.0963 43.0711L20.9173 37.25C20.965 37.1228 22.662 38.9275 22.6851 39.0178L14.7301 46.9728C14.7011 47.0018 14.671 47.0327 14.6399 47.0645C14.4099 47.3001 14.1281 47.5889 13.8462 47.5889C13.8462 47.5889 13.2064 47.2168 12.9624 46.9728L5.00742 39.0178C4.87065 38.9158 6.66756 37.1758 6.77519 37.25L12.5963 43.0711L12.5963 21.6486C8.33731 21.2271 5.01065 17.6342 5.01065 13.2644C5.01065 8.6111 8.78289 4.83887 13.4362 4.83887C17.5157 4.83887 20.9181 7.73826 21.6951 11.5888H42.9823L37.1612 5.76777C37.034 5.72011 38.8387 4.0231 38.929 4ZM19.3617 13.2644C19.3617 16.537 16.7088 19.1899 13.4362 19.1899C10.1636 19.1899 7.51065 16.537 7.51065 13.2644C7.51065 9.99182 10.1636 7.33887 13.4362 7.33887C16.7088 7.33887 19.3617 9.99182 19.3617 13.2644ZM73.4895 13.2644C73.4895 16.537 70.8366 19.1899 67.564 19.1899C64.2914 19.1899 61.6385 16.537 61.6385 13.2644C61.6385 9.99182 64.2914 7.33887 67.564 7.33887C70.8366 7.33887 73.4895 9.99182 73.4895 13.2644ZM75.9895 13.2644C75.9895 17.6867 72.5825 21.3133 68.25 21.6624V60.0148C72.5825 60.3638 75.9897 63.9904 75.9897 68.4128C75.9897 73.0661 72.2175 76.8384 67.5642 76.8384C63.425 76.8384 59.9829 73.8536 59.2729 69.9189H21.8618V67.4189L59.1967 67.4189C59.6175 63.8378 62.2842 60.9437 65.75 60.1831V21.4942C61.9686 20.6644 59.1385 17.2949 59.1385 13.2644C59.1385 8.6111 62.9107 4.83887 67.564 4.83887C72.2173 4.83887 75.9895 8.6111 75.9895 13.2644ZM73.4897 68.4128C73.4897 71.6854 70.8368 74.3384 67.5642 74.3384C64.2916 74.3384 61.6387 71.6854 61.6387 68.4128C61.6387 65.1403 64.2916 62.4873 67.5642 62.4873C70.8368 62.4873 73.4897 65.1403 73.4897 68.4128ZM13.4363 74.3384C16.7088 74.3384 19.3618 71.6854 19.3618 68.4128C19.3618 65.1403 16.7088 62.4873 13.4363 62.4873C10.1637 62.4873 7.51074 65.1403 7.51074 68.4128C7.51074 71.6854 10.1637 74.3384 13.4363 74.3384ZM13.4363 76.8384C18.0896 76.8384 21.8618 73.0661 21.8618 68.4128C21.8618 63.7595 18.0896 59.9873 13.4363 59.9873C8.78298 59.9873 5.01074 63.7595 5.01074 68.4128C5.01074 73.0661 8.78298 76.8384 13.4363 76.8384Z" fill="white"/>
<path fill-rule="evenodd" clip-rule="evenodd" d="M38.929 4L46.8839 11.955C46.9129 11.984 46.9437 12.014 46.9755 12.045L46.9757 12.0452C47.2113 12.2752 47.5 12.557 47.5 12.8389C47.5 12.8389 47.128 13.4786 46.8839 13.7227L38.929 21.6777C38.827 21.8144 37.087 20.0175 37.1612 19.9099L42.9823 14.0888H21.8219C21.4614 17.8011 18.6918 20.808 15.0963 21.5264L15.0963 43.0711L20.9173 37.25C20.965 37.1228 22.662 38.9275 22.6851 39.0178L14.7301 46.9728C14.7011 47.0018 14.671 47.0327 14.6399 47.0645C14.4099 47.3001 14.1281 47.5889 13.8462 47.5889C13.8462 47.5889 13.2064 47.2168 12.9624 46.9728L5.00742 39.0178C4.87065 38.9158 6.66756 37.1758 6.77519 37.25L12.5963 43.0711L12.5963 21.6486C8.33731 21.2271 5.01065 17.6342 5.01065 13.2644C5.01065 8.6111 8.78289 4.83887 13.4362 4.83887C17.5157 4.83887 20.9181 7.73826 21.6951 11.5888H42.9823L37.1612 5.76777C37.034 5.72011 38.8387 4.0231 38.929 4ZM19.3617 13.2644C19.3617 16.537 16.7088 19.1899 13.4362 19.1899C10.1636 19.1899 7.51065 16.537 7.51065 13.2644C7.51065 9.99182 10.1636 7.33887 13.4362 7.33887C16.7088 7.33887 19.3617 9.99182 19.3617 13.2644ZM73.4895 13.2644C73.4895 16.537 70.8366 19.1899 67.564 19.1899C64.2914 19.1899 61.6385 16.537 61.6385 13.2644C61.6385 9.99182 64.2914 7.33887 67.564 7.33887C70.8366 7.33887 73.4895 9.99182 73.4895 13.2644ZM75.9895 13.2644C75.9895 17.6867 72.5825 21.3133 68.25 21.6624V60.0148C72.5825 60.3638 75.9897 63.9904 75.9897 68.4128C75.9897 73.0661 72.2175 76.8384 67.5642 76.8384C63.425 76.8384 59.9829 73.8536 59.2729 69.9189H21.8618V67.4189L59.1967 67.4189C59.6175 63.8378 62.2842 60.9437 65.75 60.1831V21.4942C61.9686 20.6644 59.1385 17.2949 59.1385 13.2644C59.1385 8.6111 62.9107 4.83887 67.564 4.83887C72.2173 4.83887 75.9895 8.6111 75.9895 13.2644ZM73.4897 68.4128C73.4897 71.6854 70.8368 74.3384 67.5642 74.3384C64.2916 74.3384 61.6387 71.6854 61.6387 68.4128C61.6387 65.1403 64.2916 62.4873 67.5642 62.4873C70.8368 62.4873 73.4897 65.1403 73.4897 68.4128ZM13.4363 74.3384C16.7088 74.3384 19.3618 71.6854 19.3618 68.4128C19.3618 65.1403 16.7088 62.4873 13.4363 62.4873C10.1637 62.4873 7.51074 65.1403 7.51074 68.4128C7.51074 71.6854 10.1637 74.3384 13.4363 74.3384ZM13.4363 76.8384C18.0896 76.8384 21.8618 73.0661 21.8618 68.4128C21.8618 63.7595 18.0896 59.9873 13.4363 59.9873C8.78298 59.9873 5.01074 63.7595 5.01074 68.4128C5.01074 73.0661 8.78298 76.8384 13.4363 76.8384Z" fill="url(#paint0_linear_2411_1827)"/>
<path fill-rule="evenodd" clip-rule="evenodd" d="M38.929 4L46.8839 11.955C46.9129 11.984 46.9437 12.014 46.9755 12.045L46.9757 12.0452C47.2113 12.2752 47.5 12.557 47.5 12.8389C47.5 12.8389 47.128 13.4786 46.8839 13.7227L38.929 21.6777C38.827 21.8144 37.087 20.0175 37.1612 19.9099L42.9823 14.0888H21.8219C21.4614 17.8011 18.6918 20.808 15.0963 21.5264L15.0963 43.0711L20.9173 37.25C20.965 37.1228 22.662 38.9275 22.6851 39.0178L14.7301 46.9728C14.7011 47.0018 14.671 47.0327 14.6399 47.0645C14.4099 47.3001 14.1281 47.5889 13.8462 47.5889C13.8462 47.5889 13.2064 47.2168 12.9624 46.9728L5.00742 39.0178C4.87065 38.9158 6.66756 37.1758 6.77519 37.25L12.5963 43.0711L12.5963 21.6486C8.33731 21.2271 5.01065 17.6342 5.01065 13.2644C5.01065 8.6111 8.78289 4.83887 13.4362 4.83887C17.5157 4.83887 20.9181 7.73826 21.6951 11.5888H42.9823L37.1612 5.76777C37.034 5.72011 38.8387 4.0231 38.929 4ZM19.3617 13.2644C19.3617 16.537 16.7088 19.1899 13.4362 19.1899C10.1636 19.1899 7.51065 16.537 7.51065 13.2644C7.51065 9.99182 10.1636 7.33887 13.4362 7.33887C16.7088 7.33887 19.3617 9.99182 19.3617 13.2644ZM73.4895 13.2644C73.4895 16.537 70.8366 19.1899 67.564 19.1899C64.2914 19.1899 61.6385 16.537 61.6385 13.2644C61.6385 9.99182 64.2914 7.33887 67.564 7.33887C70.8366 7.33887 73.4895 9.99182 73.4895 13.2644ZM75.9895 13.2644C75.9895 17.6867 72.5825 21.3133 68.25 21.6624V60.0148C72.5825 60.3638 75.9897 63.9904 75.9897 68.4128C75.9897 73.0661 72.2175 76.8384 67.5642 76.8384C63.425 76.8384 59.9829 73.8536 59.2729 69.9189H21.8618V67.4189L59.1967 67.4189C59.6175 63.8378 62.2842 60.9437 65.75 60.1831V21.4942C61.9686 20.6644 59.1385 17.2949 59.1385 13.2644C59.1385 8.6111 62.9107 4.83887 67.564 4.83887C72.2173 4.83887 75.9895 8.6111 75.9895 13.2644ZM73.4897 68.4128C73.4897 71.6854 70.8368 74.3384 67.5642 74.3384C64.2916 74.3384 61.6387 71.6854 61.6387 68.4128C61.6387 65.1403 64.2916 62.4873 67.5642 62.4873C70.8368 62.4873 73.4897 65.1403 73.4897 68.4128ZM13.4363 74.3384C16.7088 74.3384 19.3618 71.6854 19.3618 68.4128C19.3618 65.1403 16.7088 62.4873 13.4363 62.4873C10.1637 62.4873 7.51074 65.1403 7.51074 68.4128C7.51074 71.6854 10.1637 74.3384 13.4363 74.3384ZM13.4363 76.8384C18.0896 76.8384 21.8618 73.0661 21.8618 68.4128C21.8618 63.7595 18.0896 59.9873 13.4363 59.9873C8.78298 59.9873 5.01074 63.7595 5.01074 68.4128C5.01074 73.0661 8.78298 76.8384 13.4363 76.8384Z" fill="url(#paint1_linear_2411_1827)"/>
<defs>
<linearGradient id="paint0_linear_2411_1827" x1="-47.5382" y1="69.5896" x2="98.0331" y2="68.0121" gradientUnits="userSpaceOnUse">
<stop stop-color="#E7F1FF"/>
<stop offset="0.210326" stop-color="#FAD9DE"/>
<stop offset="0.586168" stop-color="#EE5998"/>
<stop offset="0.956711" stop-color="#3375F4"/>
</linearGradient>
<linearGradient id="paint1_linear_2411_1827" x1="-6.36617" y1="64.2792" x2="90.5802" y2="63.2071" gradientUnits="userSpaceOnUse">
<stop stop-color="#E7F1FF"/>
<stop offset="0.305858" stop-color="#F05596"/>
<stop offset="0.671875" stop-color="#558DF9"/>
<stop offset="0.953125" stop-color="#31BCFF"/>
</linearGradient>
</defs>
</svg>
