<svg width="80" height="80" viewBox="0 0 80 80" fill="none" xmlns="http://www.w3.org/2000/svg">
<path d="M50.0932 4H28.9068C14.6361 4 3 15.6361 3 29.9068V51.0932C3 65.3639 14.6361 77 28.9068 77H50.0932C64.3639 77 76 65.3639 76 51.0932V29.9068C75.8902 15.6361 64.2541 4 50.0932 4ZM5.30526 29.9068C5.30526 16.9534 15.8436 6.41504 28.797 6.41504H38.2376V15.8556L37.3594 15.4165C35.4932 14.4286 33.2977 14.0992 31.3218 14.5383C26.382 15.4165 23.0887 20.0271 23.9669 24.9669C24.7353 29.3579 28.5774 32.5414 32.9684 32.4316C34.5053 32.3218 36.0421 31.7729 37.3594 31.0045L38.2376 30.4556V39.5669H27.0406C26.2722 39.5669 25.7233 40.1158 25.7233 40.8842C25.7233 41.3233 25.9429 41.6526 26.1624 41.8722C28.0286 43.409 28.9068 45.8241 28.4677 48.2391C27.9188 50.8737 25.8331 52.9594 23.1985 53.5083C22.7594 53.3985 22.3203 53.3985 21.7714 53.3985C20.5639 53.3985 19.2466 53.0692 18.1489 52.4105C16.612 51.4226 15.5143 49.8857 15.0752 48.1293C14.9654 47.6902 14.8556 47.1414 14.8556 46.7023C14.8556 44.7263 15.7338 42.8601 17.2707 41.5429C17.4902 41.3233 17.7098 40.994 17.7098 40.6647C17.7098 40.3353 17.6 40.006 17.3805 39.6767C17.1609 39.3474 16.7218 39.1278 16.2827 39.2376H5.19549V29.9068H5.30526ZM38.7865 61.8511C38.4571 62.0707 38.3474 62.5098 38.3474 62.9489V74.585H28.9068C15.9534 74.585 5.41504 64.0466 5.41504 51.0932V41.6526H14.3068L13.8677 42.5308C13.209 43.8481 12.7699 45.2752 12.7699 46.7023C12.7699 49.1173 13.8677 51.4226 15.6241 53.1789C17.3805 54.9353 19.7955 55.8135 22.2105 55.7038C26.4917 55.594 30.2241 52.6301 30.9925 48.3489C31.3218 46.3729 31.1023 44.2872 30.1143 42.4211L29.6752 41.5429H38.5669V52.6301C38.6767 53.3985 39.2256 53.9474 39.994 53.8376C40.3233 53.8376 40.6526 53.618 40.8722 53.3985C42.1895 51.8617 44.0556 50.9835 46.1414 50.9835C46.2511 50.9835 46.2511 50.9835 46.3609 50.9835C49.8737 50.9835 52.8376 53.8376 53.0571 57.4602C53.1669 60.7534 50.7519 63.7173 47.4586 64.2662C45.0436 64.7053 42.5188 63.8271 40.8722 61.9609C40.1038 61.412 39.3353 61.412 38.7865 61.8511ZM73.585 51.0932C73.585 64.0466 63.0466 74.585 50.0932 74.585H40.6526V65.1444L41.5308 65.5835C43.397 66.5714 45.4827 66.9008 47.5684 66.4617C52.5083 65.5835 55.8015 60.9729 54.9233 56.0331C54.1549 51.7519 50.4226 48.5684 46.0316 48.5684C45.9218 48.5684 45.9218 48.5684 45.812 48.5684C44.2752 48.5684 42.7383 48.8977 41.4211 49.6662L40.5429 50.1053V41.4331H51.7398C52.5083 41.4331 53.0571 40.8842 53.0571 40.1158C53.0571 39.6767 52.8376 39.3474 52.618 39.1278C51.191 38.0301 50.203 36.1639 50.203 34.188C50.203 32.3218 50.9714 30.6752 52.2887 29.3579C53.606 28.0406 55.3624 27.382 57.1188 27.4917C57.5579 27.4917 58.1068 27.6015 58.5459 27.7113C61.1805 28.2602 63.2662 30.3459 63.815 32.9804C64.2541 35.3955 63.3759 37.8105 61.5098 39.3474C60.9609 39.7865 60.8511 40.6647 61.2902 41.2135C61.5098 41.5429 61.9489 41.6526 62.2782 41.6526H73.4752V51.0932H73.585ZM73.585 39.3474H64.6932L65.1323 38.4692C66.1203 36.7128 66.4496 34.6271 66.0105 32.5414C65.0226 27.6015 60.0827 24.418 55.1429 25.406C50.8617 26.2842 47.8977 29.9068 47.788 34.188C47.788 35.615 48.1173 37.1519 48.8857 38.3594L49.3248 39.2376H40.4331V28.1504C40.4331 27.8211 40.3233 27.4917 39.994 27.2722C39.7744 27.0526 39.4451 26.8331 39.1158 26.8331C38.7865 26.8331 38.5669 26.9429 38.3474 27.1624C36.8105 28.4797 35.0541 29.4677 32.9684 29.797C29.2361 29.9068 26.0526 27.0526 25.9429 23.3203C25.8331 20.0271 28.2481 17.0632 31.5414 16.5143C33.9564 16.0752 36.4812 16.9534 38.1278 18.8195C38.3474 19.0391 38.6767 19.2586 39.006 19.2586C39.3353 19.2586 39.6647 19.1489 39.994 18.9293C40.3233 18.7098 40.4331 18.2707 40.4331 17.8316V6.30526H49.8737C62.8271 6.30526 73.3654 16.8436 73.3654 29.797V39.3474H73.585Z" fill="white"/>
<path d="M50.0932 4H28.9068C14.6361 4 3 15.6361 3 29.9068V51.0932C3 65.3639 14.6361 77 28.9068 77H50.0932C64.3639 77 76 65.3639 76 51.0932V29.9068C75.8902 15.6361 64.2541 4 50.0932 4ZM5.30526 29.9068C5.30526 16.9534 15.8436 6.41504 28.797 6.41504H38.2376V15.8556L37.3594 15.4165C35.4932 14.4286 33.2977 14.0992 31.3218 14.5383C26.382 15.4165 23.0887 20.0271 23.9669 24.9669C24.7353 29.3579 28.5774 32.5414 32.9684 32.4316C34.5053 32.3218 36.0421 31.7729 37.3594 31.0045L38.2376 30.4556V39.5669H27.0406C26.2722 39.5669 25.7233 40.1158 25.7233 40.8842C25.7233 41.3233 25.9429 41.6526 26.1624 41.8722C28.0286 43.409 28.9068 45.8241 28.4677 48.2391C27.9188 50.8737 25.8331 52.9594 23.1985 53.5083C22.7594 53.3985 22.3203 53.3985 21.7714 53.3985C20.5639 53.3985 19.2466 53.0692 18.1489 52.4105C16.612 51.4226 15.5143 49.8857 15.0752 48.1293C14.9654 47.6902 14.8556 47.1414 14.8556 46.7023C14.8556 44.7263 15.7338 42.8601 17.2707 41.5429C17.4902 41.3233 17.7098 40.994 17.7098 40.6647C17.7098 40.3353 17.6 40.006 17.3805 39.6767C17.1609 39.3474 16.7218 39.1278 16.2827 39.2376H5.19549V29.9068H5.30526ZM38.7865 61.8511C38.4571 62.0707 38.3474 62.5098 38.3474 62.9489V74.585H28.9068C15.9534 74.585 5.41504 64.0466 5.41504 51.0932V41.6526H14.3068L13.8677 42.5308C13.209 43.8481 12.7699 45.2752 12.7699 46.7023C12.7699 49.1173 13.8677 51.4226 15.6241 53.1789C17.3805 54.9353 19.7955 55.8135 22.2105 55.7038C26.4917 55.594 30.2241 52.6301 30.9925 48.3489C31.3218 46.3729 31.1023 44.2872 30.1143 42.4211L29.6752 41.5429H38.5669V52.6301C38.6767 53.3985 39.2256 53.9474 39.994 53.8376C40.3233 53.8376 40.6526 53.618 40.8722 53.3985C42.1895 51.8617 44.0556 50.9835 46.1414 50.9835C46.2511 50.9835 46.2511 50.9835 46.3609 50.9835C49.8737 50.9835 52.8376 53.8376 53.0571 57.4602C53.1669 60.7534 50.7519 63.7173 47.4586 64.2662C45.0436 64.7053 42.5188 63.8271 40.8722 61.9609C40.1038 61.412 39.3353 61.412 38.7865 61.8511ZM73.585 51.0932C73.585 64.0466 63.0466 74.585 50.0932 74.585H40.6526V65.1444L41.5308 65.5835C43.397 66.5714 45.4827 66.9008 47.5684 66.4617C52.5083 65.5835 55.8015 60.9729 54.9233 56.0331C54.1549 51.7519 50.4226 48.5684 46.0316 48.5684C45.9218 48.5684 45.9218 48.5684 45.812 48.5684C44.2752 48.5684 42.7383 48.8977 41.4211 49.6662L40.5429 50.1053V41.4331H51.7398C52.5083 41.4331 53.0571 40.8842 53.0571 40.1158C53.0571 39.6767 52.8376 39.3474 52.618 39.1278C51.191 38.0301 50.203 36.1639 50.203 34.188C50.203 32.3218 50.9714 30.6752 52.2887 29.3579C53.606 28.0406 55.3624 27.382 57.1188 27.4917C57.5579 27.4917 58.1068 27.6015 58.5459 27.7113C61.1805 28.2602 63.2662 30.3459 63.815 32.9804C64.2541 35.3955 63.3759 37.8105 61.5098 39.3474C60.9609 39.7865 60.8511 40.6647 61.2902 41.2135C61.5098 41.5429 61.9489 41.6526 62.2782 41.6526H73.4752V51.0932H73.585ZM73.585 39.3474H64.6932L65.1323 38.4692C66.1203 36.7128 66.4496 34.6271 66.0105 32.5414C65.0226 27.6015 60.0827 24.418 55.1429 25.406C50.8617 26.2842 47.8977 29.9068 47.788 34.188C47.788 35.615 48.1173 37.1519 48.8857 38.3594L49.3248 39.2376H40.4331V28.1504C40.4331 27.8211 40.3233 27.4917 39.994 27.2722C39.7744 27.0526 39.4451 26.8331 39.1158 26.8331C38.7865 26.8331 38.5669 26.9429 38.3474 27.1624C36.8105 28.4797 35.0541 29.4677 32.9684 29.797C29.2361 29.9068 26.0526 27.0526 25.9429 23.3203C25.8331 20.0271 28.2481 17.0632 31.5414 16.5143C33.9564 16.0752 36.4812 16.9534 38.1278 18.8195C38.3474 19.0391 38.6767 19.2586 39.006 19.2586C39.3353 19.2586 39.6647 19.1489 39.994 18.9293C40.3233 18.7098 40.4331 18.2707 40.4331 17.8316V6.30526H49.8737C62.8271 6.30526 73.3654 16.8436 73.3654 29.797V39.3474H73.585Z" fill="url(#paint0_linear_1_630)"/>
<path d="M50.0932 4H28.9068C14.6361 4 3 15.6361 3 29.9068V51.0932C3 65.3639 14.6361 77 28.9068 77H50.0932C64.3639 77 76 65.3639 76 51.0932V29.9068C75.8902 15.6361 64.2541 4 50.0932 4ZM5.30526 29.9068C5.30526 16.9534 15.8436 6.41504 28.797 6.41504H38.2376V15.8556L37.3594 15.4165C35.4932 14.4286 33.2977 14.0992 31.3218 14.5383C26.382 15.4165 23.0887 20.0271 23.9669 24.9669C24.7353 29.3579 28.5774 32.5414 32.9684 32.4316C34.5053 32.3218 36.0421 31.7729 37.3594 31.0045L38.2376 30.4556V39.5669H27.0406C26.2722 39.5669 25.7233 40.1158 25.7233 40.8842C25.7233 41.3233 25.9429 41.6526 26.1624 41.8722C28.0286 43.409 28.9068 45.8241 28.4677 48.2391C27.9188 50.8737 25.8331 52.9594 23.1985 53.5083C22.7594 53.3985 22.3203 53.3985 21.7714 53.3985C20.5639 53.3985 19.2466 53.0692 18.1489 52.4105C16.612 51.4226 15.5143 49.8857 15.0752 48.1293C14.9654 47.6902 14.8556 47.1414 14.8556 46.7023C14.8556 44.7263 15.7338 42.8601 17.2707 41.5429C17.4902 41.3233 17.7098 40.994 17.7098 40.6647C17.7098 40.3353 17.6 40.006 17.3805 39.6767C17.1609 39.3474 16.7218 39.1278 16.2827 39.2376H5.19549V29.9068H5.30526ZM38.7865 61.8511C38.4571 62.0707 38.3474 62.5098 38.3474 62.9489V74.585H28.9068C15.9534 74.585 5.41504 64.0466 5.41504 51.0932V41.6526H14.3068L13.8677 42.5308C13.209 43.8481 12.7699 45.2752 12.7699 46.7023C12.7699 49.1173 13.8677 51.4226 15.6241 53.1789C17.3805 54.9353 19.7955 55.8135 22.2105 55.7038C26.4917 55.594 30.2241 52.6301 30.9925 48.3489C31.3218 46.3729 31.1023 44.2872 30.1143 42.4211L29.6752 41.5429H38.5669V52.6301C38.6767 53.3985 39.2256 53.9474 39.994 53.8376C40.3233 53.8376 40.6526 53.618 40.8722 53.3985C42.1895 51.8617 44.0556 50.9835 46.1414 50.9835C46.2511 50.9835 46.2511 50.9835 46.3609 50.9835C49.8737 50.9835 52.8376 53.8376 53.0571 57.4602C53.1669 60.7534 50.7519 63.7173 47.4586 64.2662C45.0436 64.7053 42.5188 63.8271 40.8722 61.9609C40.1038 61.412 39.3353 61.412 38.7865 61.8511ZM73.585 51.0932C73.585 64.0466 63.0466 74.585 50.0932 74.585H40.6526V65.1444L41.5308 65.5835C43.397 66.5714 45.4827 66.9008 47.5684 66.4617C52.5083 65.5835 55.8015 60.9729 54.9233 56.0331C54.1549 51.7519 50.4226 48.5684 46.0316 48.5684C45.9218 48.5684 45.9218 48.5684 45.812 48.5684C44.2752 48.5684 42.7383 48.8977 41.4211 49.6662L40.5429 50.1053V41.4331H51.7398C52.5083 41.4331 53.0571 40.8842 53.0571 40.1158C53.0571 39.6767 52.8376 39.3474 52.618 39.1278C51.191 38.0301 50.203 36.1639 50.203 34.188C50.203 32.3218 50.9714 30.6752 52.2887 29.3579C53.606 28.0406 55.3624 27.382 57.1188 27.4917C57.5579 27.4917 58.1068 27.6015 58.5459 27.7113C61.1805 28.2602 63.2662 30.3459 63.815 32.9804C64.2541 35.3955 63.3759 37.8105 61.5098 39.3474C60.9609 39.7865 60.8511 40.6647 61.2902 41.2135C61.5098 41.5429 61.9489 41.6526 62.2782 41.6526H73.4752V51.0932H73.585ZM73.585 39.3474H64.6932L65.1323 38.4692C66.1203 36.7128 66.4496 34.6271 66.0105 32.5414C65.0226 27.6015 60.0827 24.418 55.1429 25.406C50.8617 26.2842 47.8977 29.9068 47.788 34.188C47.788 35.615 48.1173 37.1519 48.8857 38.3594L49.3248 39.2376H40.4331V28.1504C40.4331 27.8211 40.3233 27.4917 39.994 27.2722C39.7744 27.0526 39.4451 26.8331 39.1158 26.8331C38.7865 26.8331 38.5669 26.9429 38.3474 27.1624C36.8105 28.4797 35.0541 29.4677 32.9684 29.797C29.2361 29.9068 26.0526 27.0526 25.9429 23.3203C25.8331 20.0271 28.2481 17.0632 31.5414 16.5143C33.9564 16.0752 36.4812 16.9534 38.1278 18.8195C38.3474 19.0391 38.6767 19.2586 39.006 19.2586C39.3353 19.2586 39.6647 19.1489 39.994 18.9293C40.3233 18.7098 40.4331 18.2707 40.4331 17.8316V6.30526H49.8737C62.8271 6.30526 73.3654 16.8436 73.3654 29.797V39.3474H73.585Z" fill="url(#paint1_linear_1_630)"/>
<defs>
<linearGradient id="paint0_linear_1_630" x1="-51.0259" y1="69.7352" x2="98.6666" y2="68.0707" gradientUnits="userSpaceOnUse">
<stop stop-color="#E7F1FF"/>
<stop offset="0.210326" stop-color="#FAD9DE"/>
<stop offset="0.586168" stop-color="#EE5998"/>
<stop offset="0.956711" stop-color="#3375F4"/>
</linearGradient>
<linearGradient id="paint1_linear_1_630" x1="-8.68803" y1="64.413" x2="91.003" y2="63.2818" gradientUnits="userSpaceOnUse">
<stop stop-color="#E7F1FF"/>
<stop offset="0.305858" stop-color="#F05596"/>
<stop offset="0.671875" stop-color="#558DF9"/>
<stop offset="0.953125" stop-color="#31BCFF"/>
</linearGradient>
</defs>
</svg>
