<svg width="80" height="80" viewBox="0 0 80 80" fill="none" xmlns="http://www.w3.org/2000/svg">
<path d="M71.4793 21.2932L43.1817 4.27757C43.2188 4.09201 43.2374 3.88789 43.2374 3.68378C43.2374 1.90243 41.79 0.455078 40.0087 0.455078C38.2273 0.455078 36.78 1.90243 36.78 3.68378C36.78 3.88789 36.7985 4.09201 36.8357 4.27757L8.53812 21.2932C8.20411 21.4973 8 21.8684 8 22.2581V28.7526C8 29.365 8.50101 29.8845 9.11335 29.8845H9.15046V66.9218C9.15046 67.0146 9.16901 67.0888 9.18757 67.1816V69.1485C9.18757 69.7609 9.68857 70.2804 10.3009 70.2804H38.8768V71.5648C37.0769 72.0658 35.7594 73.7544 35.7594 75.6656C35.7594 78.0222 37.6707 79.9334 40.0087 79.9334C42.3467 79.9334 44.258 78.0222 44.258 75.6656C44.258 73.7544 42.9405 72.0658 41.1406 71.5648V70.2804H69.6979C70.3103 70.2804 70.8113 69.7794 70.8113 69.1485V67.1816C70.8298 67.1074 70.8484 67.0146 70.8484 66.9218V29.8845H70.8855C71.4978 29.8845 71.9988 29.3835 71.9988 28.7526V22.2581C72.0174 21.8684 71.8133 21.5159 71.4793 21.2932ZM41.9942 75.6471C41.9942 76.7604 41.1035 77.6511 39.9901 77.6511C38.8953 77.6511 37.9861 76.7604 37.9861 75.6471C37.9861 74.5337 38.8768 73.643 39.9901 73.643C41.1035 73.643 41.9942 74.5523 41.9942 75.6471ZM68.5846 68.0166H11.4328V67.4785L11.4143 66.3466V29.8845H68.6031V65.7899L68.566 67.4971L68.5846 68.0166ZM69.7721 23.39V27.6207H10.2452V23.39H69.7721ZM40.9736 3.86934C40.9365 4.11056 40.788 4.33323 40.6025 4.48168C40.4355 4.61157 40.2314 4.66724 40.0087 4.66724C39.786 4.66724 39.5819 4.59301 39.4149 4.48168C39.2108 4.33323 39.0809 4.11056 39.0438 3.86934C39.0438 3.81367 39.0252 3.758 39.0252 3.70234C39.0252 3.14566 39.452 2.71888 40.0087 2.71888C40.5468 2.71888 40.9921 3.16422 40.9921 3.70234C40.9921 3.73945 40.9736 3.79512 40.9736 3.86934ZM13.1771 21.1262L37.9861 6.20737C38.5613 6.67126 39.2479 6.91248 39.9901 6.91248C40.7324 6.91248 41.4375 6.6527 41.9942 6.20737L66.8218 21.1262H13.1771Z" fill="white"/>
<path d="M71.4793 21.2932L43.1817 4.27757C43.2188 4.09201 43.2374 3.88789 43.2374 3.68378C43.2374 1.90243 41.79 0.455078 40.0087 0.455078C38.2273 0.455078 36.78 1.90243 36.78 3.68378C36.78 3.88789 36.7985 4.09201 36.8357 4.27757L8.53812 21.2932C8.20411 21.4973 8 21.8684 8 22.2581V28.7526C8 29.365 8.50101 29.8845 9.11335 29.8845H9.15046V66.9218C9.15046 67.0146 9.16901 67.0888 9.18757 67.1816V69.1485C9.18757 69.7609 9.68857 70.2804 10.3009 70.2804H38.8768V71.5648C37.0769 72.0658 35.7594 73.7544 35.7594 75.6656C35.7594 78.0222 37.6707 79.9334 40.0087 79.9334C42.3467 79.9334 44.258 78.0222 44.258 75.6656C44.258 73.7544 42.9405 72.0658 41.1406 71.5648V70.2804H69.6979C70.3103 70.2804 70.8113 69.7794 70.8113 69.1485V67.1816C70.8298 67.1074 70.8484 67.0146 70.8484 66.9218V29.8845H70.8855C71.4978 29.8845 71.9988 29.3835 71.9988 28.7526V22.2581C72.0174 21.8684 71.8133 21.5159 71.4793 21.2932ZM41.9942 75.6471C41.9942 76.7604 41.1035 77.6511 39.9901 77.6511C38.8953 77.6511 37.9861 76.7604 37.9861 75.6471C37.9861 74.5337 38.8768 73.643 39.9901 73.643C41.1035 73.643 41.9942 74.5523 41.9942 75.6471ZM68.5846 68.0166H11.4328V67.4785L11.4143 66.3466V29.8845H68.6031V65.7899L68.566 67.4971L68.5846 68.0166ZM69.7721 23.39V27.6207H10.2452V23.39H69.7721ZM40.9736 3.86934C40.9365 4.11056 40.788 4.33323 40.6025 4.48168C40.4355 4.61157 40.2314 4.66724 40.0087 4.66724C39.786 4.66724 39.5819 4.59301 39.4149 4.48168C39.2108 4.33323 39.0809 4.11056 39.0438 3.86934C39.0438 3.81367 39.0252 3.758 39.0252 3.70234C39.0252 3.14566 39.452 2.71888 40.0087 2.71888C40.5468 2.71888 40.9921 3.16422 40.9921 3.70234C40.9921 3.73945 40.9736 3.79512 40.9736 3.86934ZM13.1771 21.1262L37.9861 6.20737C38.5613 6.67126 39.2479 6.91248 39.9901 6.91248C40.7324 6.91248 41.4375 6.6527 41.9942 6.20737L66.8218 21.1262H13.1771Z" fill="url(#paint0_linear_2411_2249)"/>
<path d="M71.4793 21.2932L43.1817 4.27757C43.2188 4.09201 43.2374 3.88789 43.2374 3.68378C43.2374 1.90243 41.79 0.455078 40.0087 0.455078C38.2273 0.455078 36.78 1.90243 36.78 3.68378C36.78 3.88789 36.7985 4.09201 36.8357 4.27757L8.53812 21.2932C8.20411 21.4973 8 21.8684 8 22.2581V28.7526C8 29.365 8.50101 29.8845 9.11335 29.8845H9.15046V66.9218C9.15046 67.0146 9.16901 67.0888 9.18757 67.1816V69.1485C9.18757 69.7609 9.68857 70.2804 10.3009 70.2804H38.8768V71.5648C37.0769 72.0658 35.7594 73.7544 35.7594 75.6656C35.7594 78.0222 37.6707 79.9334 40.0087 79.9334C42.3467 79.9334 44.258 78.0222 44.258 75.6656C44.258 73.7544 42.9405 72.0658 41.1406 71.5648V70.2804H69.6979C70.3103 70.2804 70.8113 69.7794 70.8113 69.1485V67.1816C70.8298 67.1074 70.8484 67.0146 70.8484 66.9218V29.8845H70.8855C71.4978 29.8845 71.9988 29.3835 71.9988 28.7526V22.2581C72.0174 21.8684 71.8133 21.5159 71.4793 21.2932ZM41.9942 75.6471C41.9942 76.7604 41.1035 77.6511 39.9901 77.6511C38.8953 77.6511 37.9861 76.7604 37.9861 75.6471C37.9861 74.5337 38.8768 73.643 39.9901 73.643C41.1035 73.643 41.9942 74.5523 41.9942 75.6471ZM68.5846 68.0166H11.4328V67.4785L11.4143 66.3466V29.8845H68.6031V65.7899L68.566 67.4971L68.5846 68.0166ZM69.7721 23.39V27.6207H10.2452V23.39H69.7721ZM40.9736 3.86934C40.9365 4.11056 40.788 4.33323 40.6025 4.48168C40.4355 4.61157 40.2314 4.66724 40.0087 4.66724C39.786 4.66724 39.5819 4.59301 39.4149 4.48168C39.2108 4.33323 39.0809 4.11056 39.0438 3.86934C39.0438 3.81367 39.0252 3.758 39.0252 3.70234C39.0252 3.14566 39.452 2.71888 40.0087 2.71888C40.5468 2.71888 40.9921 3.16422 40.9921 3.70234C40.9921 3.73945 40.9736 3.79512 40.9736 3.86934ZM13.1771 21.1262L37.9861 6.20737C38.5613 6.67126 39.2479 6.91248 39.9901 6.91248C40.7324 6.91248 41.4375 6.6527 41.9942 6.20737L66.8218 21.1262H13.1771Z" fill="url(#paint1_linear_2411_2249)"/>
<path d="M41.7715 47.032H38.3758C36.3161 47.032 34.6461 45.4362 34.6461 43.4878C34.6461 42.56 35.0358 41.6693 35.7224 41.0013C36.4275 40.3148 37.3738 39.9437 38.3758 39.9437H41.7715C43.6086 39.9437 45.1116 41.3725 45.1116 43.1167V43.2466H47.4125V43.1167C47.4125 40.0921 44.8889 37.6427 41.7715 37.6427H41.2334V34.7109H38.9325V37.6427H38.3758C36.78 37.6427 35.277 38.2365 34.1266 39.3313C32.9761 40.4261 32.3452 41.9106 32.3452 43.4878C32.3452 46.7165 35.0544 49.3329 38.3758 49.3329H41.7715C42.7736 49.3329 43.7199 49.704 44.425 50.3906C45.1116 51.0586 45.5013 51.9307 45.5013 52.877C45.5013 54.8254 43.8312 56.4212 41.7715 56.4212H38.3758C36.5388 56.4212 35.0358 54.9924 35.0358 53.2481V53.1183H32.7349V53.2481C32.7349 56.2727 35.2585 58.7221 38.3758 58.7221H38.914V61.7281H41.2149V58.7221H41.753C43.4045 58.7221 44.926 58.0912 46.0765 56.9407C47.1713 55.846 47.7651 54.3986 47.7651 52.877C47.7651 51.3183 47.1342 49.8339 45.9837 48.7205C44.8704 47.6258 43.3673 47.032 41.7715 47.032Z" fill="white"/>
<path d="M41.7715 47.032H38.3758C36.3161 47.032 34.6461 45.4362 34.6461 43.4878C34.6461 42.56 35.0358 41.6693 35.7224 41.0013C36.4275 40.3148 37.3738 39.9437 38.3758 39.9437H41.7715C43.6086 39.9437 45.1116 41.3725 45.1116 43.1167V43.2466H47.4125V43.1167C47.4125 40.0921 44.8889 37.6427 41.7715 37.6427H41.2334V34.7109H38.9325V37.6427H38.3758C36.78 37.6427 35.277 38.2365 34.1266 39.3313C32.9761 40.4261 32.3452 41.9106 32.3452 43.4878C32.3452 46.7165 35.0544 49.3329 38.3758 49.3329H41.7715C42.7736 49.3329 43.7199 49.704 44.425 50.3906C45.1116 51.0586 45.5013 51.9307 45.5013 52.877C45.5013 54.8254 43.8312 56.4212 41.7715 56.4212H38.3758C36.5388 56.4212 35.0358 54.9924 35.0358 53.2481V53.1183H32.7349V53.2481C32.7349 56.2727 35.2585 58.7221 38.3758 58.7221H38.914V61.7281H41.2149V58.7221H41.753C43.4045 58.7221 44.926 58.0912 46.0765 56.9407C47.1713 55.846 47.7651 54.3986 47.7651 52.877C47.7651 51.3183 47.1342 49.8339 45.9837 48.7205C44.8704 47.6258 43.3673 47.032 41.7715 47.032Z" fill="url(#paint2_linear_2411_2249)"/>
<path d="M41.7715 47.032H38.3758C36.3161 47.032 34.6461 45.4362 34.6461 43.4878C34.6461 42.56 35.0358 41.6693 35.7224 41.0013C36.4275 40.3148 37.3738 39.9437 38.3758 39.9437H41.7715C43.6086 39.9437 45.1116 41.3725 45.1116 43.1167V43.2466H47.4125V43.1167C47.4125 40.0921 44.8889 37.6427 41.7715 37.6427H41.2334V34.7109H38.9325V37.6427H38.3758C36.78 37.6427 35.277 38.2365 34.1266 39.3313C32.9761 40.4261 32.3452 41.9106 32.3452 43.4878C32.3452 46.7165 35.0544 49.3329 38.3758 49.3329H41.7715C42.7736 49.3329 43.7199 49.704 44.425 50.3906C45.1116 51.0586 45.5013 51.9307 45.5013 52.877C45.5013 54.8254 43.8312 56.4212 41.7715 56.4212H38.3758C36.5388 56.4212 35.0358 54.9924 35.0358 53.2481V53.1183H32.7349V53.2481C32.7349 56.2727 35.2585 58.7221 38.3758 58.7221H38.914V61.7281H41.2149V58.7221H41.753C43.4045 58.7221 44.926 58.0912 46.0765 56.9407C47.1713 55.846 47.7651 54.3986 47.7651 52.877C47.7651 51.3183 47.1342 49.8339 45.9837 48.7205C44.8704 47.6258 43.3673 47.032 41.7715 47.032Z" fill="url(#paint3_linear_2411_2249)"/>
<defs>
<linearGradient id="paint0_linear_2411_2249" x1="-39.3652" y1="72.0239" x2="91.8778" y2="70.8488" gradientUnits="userSpaceOnUse">
<stop stop-color="#E7F1FF"/>
<stop offset="0.210326" stop-color="#FAD9DE"/>
<stop offset="0.586168" stop-color="#EE5998"/>
<stop offset="0.956711" stop-color="#3375F4"/>
</linearGradient>
<linearGradient id="paint1_linear_2411_2249" x1="-2.24704" y1="66.2294" x2="85.1573" y2="65.4308" gradientUnits="userSpaceOnUse">
<stop stop-color="#E7F1FF"/>
<stop offset="0.305858" stop-color="#F05596"/>
<stop offset="0.671875" stop-color="#558DF9"/>
<stop offset="0.953125" stop-color="#31BCFF"/>
</linearGradient>
<linearGradient id="paint2_linear_2411_2249" x1="20.9333" y1="59.0394" x2="52.5556" y2="58.8387" gradientUnits="userSpaceOnUse">
<stop stop-color="#E7F1FF"/>
<stop offset="0.210326" stop-color="#FAD9DE"/>
<stop offset="0.586168" stop-color="#EE5998"/>
<stop offset="0.956711" stop-color="#3375F4"/>
</linearGradient>
<linearGradient id="paint3_linear_2411_2249" x1="29.8763" y1="57.0697" x2="50.936" y2="56.9333" gradientUnits="userSpaceOnUse">
<stop stop-color="#E7F1FF"/>
<stop offset="0.305858" stop-color="#F05596"/>
<stop offset="0.671875" stop-color="#558DF9"/>
<stop offset="0.953125" stop-color="#31BCFF"/>
</linearGradient>
</defs>
</svg>
