<svg width="80" height="80" viewBox="0 0 80 80" fill="none" xmlns="http://www.w3.org/2000/svg">
<g clip-path="url(#clip0_2411_1842)">
<path d="M77.2002 23.7992C77.0002 23.3992 76.6002 23.1992 76.1002 23.1992H57.4002V1.29922C57.4002 0.699219 57.0002 0.199219 56.5002 0.0992188C55.9002 -0.000781249 55.4002 0.199219 55.1002 0.699219L35.1002 35.3992C34.9002 35.7992 34.9002 36.2992 35.1002 36.5992C35.3002 36.9992 35.7002 37.1992 36.2002 37.1992H55.0002V59.0992C55.0002 59.6992 55.4002 60.1992 55.9002 60.2992C56.0002 60.2992 56.0002 60.2992 56.1002 60.2992H56.2002C56.6002 60.2992 57.0002 60.0992 57.3002 59.6992L77.3002 24.9992C77.5002 24.6992 77.5002 24.1992 77.2002 23.7992ZM57.1002 35.0992C56.9002 34.8992 56.6002 34.6992 56.2002 34.6992H38.4002L55.0002 5.89922V24.4992C55.0002 25.1992 55.5002 25.6992 56.2002 25.6992H74.0002L57.4002 54.5992V35.9992C57.4002 35.6992 57.3002 35.3992 57.1002 35.0992Z" fill="white"/>
<path d="M77.2002 23.7992C77.0002 23.3992 76.6002 23.1992 76.1002 23.1992H57.4002V1.29922C57.4002 0.699219 57.0002 0.199219 56.5002 0.0992188C55.9002 -0.000781249 55.4002 0.199219 55.1002 0.699219L35.1002 35.3992C34.9002 35.7992 34.9002 36.2992 35.1002 36.5992C35.3002 36.9992 35.7002 37.1992 36.2002 37.1992H55.0002V59.0992C55.0002 59.6992 55.4002 60.1992 55.9002 60.2992C56.0002 60.2992 56.0002 60.2992 56.1002 60.2992H56.2002C56.6002 60.2992 57.0002 60.0992 57.3002 59.6992L77.3002 24.9992C77.5002 24.6992 77.5002 24.1992 77.2002 23.7992ZM57.1002 35.0992C56.9002 34.8992 56.6002 34.6992 56.2002 34.6992H38.4002L55.0002 5.89922V24.4992C55.0002 25.1992 55.5002 25.6992 56.2002 25.6992H74.0002L57.4002 54.5992V35.9992C57.4002 35.6992 57.3002 35.3992 57.1002 35.0992Z" fill="url(#paint0_linear_2411_1842)"/>
<path d="M77.2002 23.7992C77.0002 23.3992 76.6002 23.1992 76.1002 23.1992H57.4002V1.29922C57.4002 0.699219 57.0002 0.199219 56.5002 0.0992188C55.9002 -0.000781249 55.4002 0.199219 55.1002 0.699219L35.1002 35.3992C34.9002 35.7992 34.9002 36.2992 35.1002 36.5992C35.3002 36.9992 35.7002 37.1992 36.2002 37.1992H55.0002V59.0992C55.0002 59.6992 55.4002 60.1992 55.9002 60.2992C56.0002 60.2992 56.0002 60.2992 56.1002 60.2992H56.2002C56.6002 60.2992 57.0002 60.0992 57.3002 59.6992L77.3002 24.9992C77.5002 24.6992 77.5002 24.1992 77.2002 23.7992ZM57.1002 35.0992C56.9002 34.8992 56.6002 34.6992 56.2002 34.6992H38.4002L55.0002 5.89922V24.4992C55.0002 25.1992 55.5002 25.6992 56.2002 25.6992H74.0002L57.4002 54.5992V35.9992C57.4002 35.6992 57.3002 35.3992 57.1002 35.0992Z" fill="url(#paint1_linear_2411_1842)"/>
<path d="M46.1998 43.725C45.9998 43.325 45.5998 43.125 45.0998 43.125H25.8998V21.225C25.8998 20.625 25.4998 20.125 24.9998 20.025C24.3998 19.925 23.8998 20.125 23.5998 20.625L3.1998 55.325C2.9998 55.725 2.9998 56.225 3.1998 56.525C3.3998 56.925 3.7998 57.125 4.2998 57.125H23.4998V79.025C23.4998 79.625 23.8998 80.125 24.3998 80.225C24.4998 80.225 24.4998 80.225 24.5998 80.225H24.6998C25.0998 80.225 25.5998 80.025 25.7998 79.625L46.1998 44.925C46.4998 44.625 46.4998 44.125 46.1998 43.725ZM25.5998 55.025C25.3998 54.825 25.0998 54.625 24.6998 54.625H6.3998L23.3998 25.725V44.325C23.3998 45.025 23.9998 45.525 24.5998 45.525H42.9998L25.9998 74.425V55.925C25.8998 55.625 25.7998 55.325 25.5998 55.025Z" fill="white"/>
<path d="M46.1998 43.725C45.9998 43.325 45.5998 43.125 45.0998 43.125H25.8998V21.225C25.8998 20.625 25.4998 20.125 24.9998 20.025C24.3998 19.925 23.8998 20.125 23.5998 20.625L3.1998 55.325C2.9998 55.725 2.9998 56.225 3.1998 56.525C3.3998 56.925 3.7998 57.125 4.2998 57.125H23.4998V79.025C23.4998 79.625 23.8998 80.125 24.3998 80.225C24.4998 80.225 24.4998 80.225 24.5998 80.225H24.6998C25.0998 80.225 25.5998 80.025 25.7998 79.625L46.1998 44.925C46.4998 44.625 46.4998 44.125 46.1998 43.725ZM25.5998 55.025C25.3998 54.825 25.0998 54.625 24.6998 54.625H6.3998L23.3998 25.725V44.325C23.3998 45.025 23.9998 45.525 24.5998 45.525H42.9998L25.9998 74.425V55.925C25.8998 55.625 25.7998 55.325 25.5998 55.025Z" fill="url(#paint2_linear_2411_1842)"/>
<path d="M46.1998 43.725C45.9998 43.325 45.5998 43.125 45.0998 43.125H25.8998V21.225C25.8998 20.625 25.4998 20.125 24.9998 20.025C24.3998 19.925 23.8998 20.125 23.5998 20.625L3.1998 55.325C2.9998 55.725 2.9998 56.225 3.1998 56.525C3.3998 56.925 3.7998 57.125 4.2998 57.125H23.4998V79.025C23.4998 79.625 23.8998 80.125 24.3998 80.225C24.4998 80.225 24.4998 80.225 24.5998 80.225H24.6998C25.0998 80.225 25.5998 80.025 25.7998 79.625L46.1998 44.925C46.4998 44.625 46.4998 44.125 46.1998 43.725ZM25.5998 55.025C25.3998 54.825 25.0998 54.625 24.6998 54.625H6.3998L23.3998 25.725V44.325C23.3998 45.025 23.9998 45.525 24.5998 45.525H42.9998L25.9998 74.425V55.925C25.8998 55.625 25.7998 55.325 25.5998 55.025Z" fill="url(#paint3_linear_2411_1842)"/>
</g>
<defs>
<linearGradient id="paint0_linear_2411_1842" x1="3.50459" y1="54.3057" x2="90.638" y2="53.6222" gradientUnits="userSpaceOnUse">
<stop stop-color="#E7F1FF"/>
<stop offset="0.210326" stop-color="#FAD9DE"/>
<stop offset="0.586168" stop-color="#EE5998"/>
<stop offset="0.956711" stop-color="#3375F4"/>
</linearGradient>
<linearGradient id="paint1_linear_2411_1842" x1="28.1472" y1="49.9149" x2="86.1758" y2="49.4504" gradientUnits="userSpaceOnUse">
<stop stop-color="#E7F1FF"/>
<stop offset="0.305858" stop-color="#F05596"/>
<stop offset="0.671875" stop-color="#558DF9"/>
<stop offset="0.953125" stop-color="#31BCFF"/>
</linearGradient>
<linearGradient id="paint2_linear_2411_1842" x1="-29.0512" y1="74.2315" x2="59.8981" y2="73.5192" gradientUnits="userSpaceOnUse">
<stop stop-color="#E7F1FF"/>
<stop offset="0.210326" stop-color="#FAD9DE"/>
<stop offset="0.586168" stop-color="#EE5998"/>
<stop offset="0.956711" stop-color="#3375F4"/>
</linearGradient>
<linearGradient id="paint3_linear_2411_1842" x1="-3.89497" y1="69.8407" x2="55.3429" y2="69.3566" gradientUnits="userSpaceOnUse">
<stop stop-color="#E7F1FF"/>
<stop offset="0.305858" stop-color="#F05596"/>
<stop offset="0.671875" stop-color="#558DF9"/>
<stop offset="0.953125" stop-color="#31BCFF"/>
</linearGradient>
<clipPath id="clip0_2411_1842">
<rect width="80" height="80" fill="white"/>
</clipPath>
</defs>
</svg>
