<svg width="80" height="80" viewBox="0 0 80 80" fill="none" xmlns="http://www.w3.org/2000/svg">
<path d="M72.8449 72.829C75.6097 70.0656 73.3524 63.1222 66.5104 53.258L66.0904 52.6458L66.4054 51.9637C68.1377 48.186 69.0127 44.1808 69.0127 40.0532V40.0008C69.0127 35.8557 68.1377 31.8331 66.4054 28.0553L66.0904 27.3732L66.5104 26.7611C73.3524 16.8969 75.6097 9.95344 72.8449 7.19007C70.0276 4.37423 63.2381 6.56044 53.2113 13.5213L52.5989 13.9411L51.9164 13.6438C48.1017 11.9298 44.0945 11.0553 39.9823 11.0553C35.8351 11.0553 31.8104 11.9298 28.0307 13.6613L27.3482 13.9761L26.7358 13.5388C16.919 6.68287 9.97201 4.4267 7.20721 7.19007C4.37242 10.0234 6.57726 16.7919 13.5417 26.7785L13.9617 27.3907L13.6642 28.0728C11.9319 31.9205 11.0569 35.9257 11.0569 40.0008C11.0569 44.1109 11.9319 48.116 13.6467 51.8938L13.9617 52.5759L13.5417 53.188C6.55976 63.1921 4.37242 69.9781 7.20721 72.8115C7.97716 73.581 9.04458 73.9658 10.4445 73.9658C14.0842 73.9658 19.7188 71.3773 26.7883 66.4802L27.4007 66.0604L28.0832 66.3753C31.8629 68.1067 35.8876 68.9812 40.0348 68.9812C44.147 68.9812 48.1542 68.1067 51.9689 66.3927L52.6514 66.0954L53.2638 66.5152C60.4558 71.4997 65.9329 74.0357 69.5726 74.0357C70.9725 74.0008 72.0575 73.616 72.8449 72.829ZM66.5804 40.0008C66.5804 42.7467 66.1429 45.475 65.3029 48.0985L64.533 50.4596L63.0106 48.5008C60.8408 45.7199 58.7409 43.1489 56.7286 40.8578L55.9761 40.0008L56.7286 39.1438C58.9159 36.6602 61.0333 34.0892 63.0106 31.5183L64.533 29.5419L65.3029 31.9205C66.1429 34.5265 66.5804 37.2374 66.5804 40.0008ZM56.6761 14.1335C60.5433 11.615 63.8331 9.88349 66.4929 9.009C68.6977 8.27443 70.2026 8.20447 70.99 8.78163L71.1475 8.90406L71.27 9.06147C72.0225 10.0934 71.8825 11.8423 70.78 14.5707C69.8001 16.9843 68.1377 20.045 65.9329 23.403L64.8655 25.0296L63.7456 23.438C61.8382 20.7096 59.4409 18.3135 56.6236 16.3197L55.0487 15.2004L56.6761 14.1335ZM31.9154 14.7281C34.3127 13.9586 36.7975 13.5388 39.3174 13.4689V13.4514H40.0173C44.6895 13.4514 49.2916 14.6932 53.3163 17.0368C57.2185 19.3104 60.5083 22.5635 62.8181 26.4462L63.2556 27.1983L62.7481 27.8979C60.6308 30.8362 58.146 33.9318 55.3462 37.0975L54.3837 38.1993L53.3863 37.1325C51.6015 35.2086 49.8341 33.3547 48.2417 31.7631C43.0621 26.5862 36.9725 21.1993 31.5304 17.0193L29.5531 15.4977L31.9154 14.7281ZM9.00958 13.5388C8.27463 11.3351 8.20464 9.83102 8.7821 9.04398L8.90459 8.88657L9.06208 8.76414C10.0945 8.01209 11.8444 8.152 14.5742 9.25386C16.989 10.2333 20.0513 11.8948 23.411 14.0985L25.0384 15.1654L23.446 16.2847C20.6462 18.2086 18.2489 20.6047 16.3065 23.3855L15.2041 24.9771L14.1367 23.3506C11.6169 19.5028 9.88452 16.1973 9.00958 13.5388ZM23.376 65.8506C20.0338 68.0368 16.989 69.7158 14.5567 70.6952C12.9468 71.3423 11.6694 71.6746 10.6895 71.6746C10.0245 71.6746 9.48204 71.5172 9.06208 71.2199L8.88709 71.0975L8.7646 70.9226C7.76717 69.5059 8.64211 64.9936 14.1192 56.616L15.1866 54.9895L16.3065 56.581C18.2139 59.3094 20.6112 61.7055 23.4285 63.6993L25.0034 64.8187L23.376 65.8506ZM27.9082 62.7374L27.2082 63.2446L26.4558 62.8074C22.5711 60.4812 19.3163 57.1932 17.0415 53.3104C14.6967 49.2878 13.4543 44.688 13.4543 40.0183V38.8814H13.5067C13.6992 34.6139 14.9066 30.4339 17.0765 26.7261C19.3338 22.8084 22.5886 19.5203 26.4733 17.1942L27.2257 16.7395L27.9257 17.2641C34.0152 21.759 40.2798 27.2158 46.5268 33.4596C48.2767 35.2086 50.0441 37.045 51.9164 39.1088L52.7389 40.0008L51.9164 40.8927C50.324 42.6067 48.5217 44.5481 46.5268 46.5244C40.1398 52.9257 33.8753 58.365 27.9082 62.7374ZM39.9998 66.5152C37.2525 66.5152 34.5227 66.0779 31.8979 65.2384L31.4779 65.0985L29.5181 64.3639L30.4805 63.7168L31.4779 62.9473C36.92 58.7672 43.0096 53.3979 48.2067 48.2034C49.7816 46.6294 51.5665 44.7755 53.3513 42.8341L54.3487 41.7672L55.3112 42.8691C57.936 45.8598 60.4208 48.9555 62.7306 52.0687L63.2556 52.7683L62.8006 53.5203C60.4733 57.403 57.1835 60.6561 53.2988 62.9298C49.2741 65.2734 44.672 66.5152 39.9998 66.5152ZM56.6236 65.8506L54.9962 64.7837L56.5886 63.6818C59.3184 61.7755 61.7157 59.3794 63.7106 56.5635L64.8305 54.9895L65.8804 56.5985C68.0677 59.939 69.7476 62.9823 70.7275 65.4133C71.83 68.1242 71.9875 69.8732 71.2525 70.9051L71.13 71.0625L70.9725 71.1849C70.6401 71.4298 70.1326 71.5697 69.4501 71.5697C67.2453 71.5697 63.0806 70.0656 56.6236 65.8506Z" fill="white"/>
<path d="M72.8449 72.829C75.6097 70.0656 73.3524 63.1222 66.5104 53.258L66.0904 52.6458L66.4054 51.9637C68.1377 48.186 69.0127 44.1808 69.0127 40.0532V40.0008C69.0127 35.8557 68.1377 31.8331 66.4054 28.0553L66.0904 27.3732L66.5104 26.7611C73.3524 16.8969 75.6097 9.95344 72.8449 7.19007C70.0276 4.37423 63.2381 6.56044 53.2113 13.5213L52.5989 13.9411L51.9164 13.6438C48.1017 11.9298 44.0945 11.0553 39.9823 11.0553C35.8351 11.0553 31.8104 11.9298 28.0307 13.6613L27.3482 13.9761L26.7358 13.5388C16.919 6.68287 9.97201 4.4267 7.20721 7.19007C4.37242 10.0234 6.57726 16.7919 13.5417 26.7785L13.9617 27.3907L13.6642 28.0728C11.9319 31.9205 11.0569 35.9257 11.0569 40.0008C11.0569 44.1109 11.9319 48.116 13.6467 51.8938L13.9617 52.5759L13.5417 53.188C6.55976 63.1921 4.37242 69.9781 7.20721 72.8115C7.97716 73.581 9.04458 73.9658 10.4445 73.9658C14.0842 73.9658 19.7188 71.3773 26.7883 66.4802L27.4007 66.0604L28.0832 66.3753C31.8629 68.1067 35.8876 68.9812 40.0348 68.9812C44.147 68.9812 48.1542 68.1067 51.9689 66.3927L52.6514 66.0954L53.2638 66.5152C60.4558 71.4997 65.9329 74.0357 69.5726 74.0357C70.9725 74.0008 72.0575 73.616 72.8449 72.829ZM66.5804 40.0008C66.5804 42.7467 66.1429 45.475 65.3029 48.0985L64.533 50.4596L63.0106 48.5008C60.8408 45.7199 58.7409 43.1489 56.7286 40.8578L55.9761 40.0008L56.7286 39.1438C58.9159 36.6602 61.0333 34.0892 63.0106 31.5183L64.533 29.5419L65.3029 31.9205C66.1429 34.5265 66.5804 37.2374 66.5804 40.0008ZM56.6761 14.1335C60.5433 11.615 63.8331 9.88349 66.4929 9.009C68.6977 8.27443 70.2026 8.20447 70.99 8.78163L71.1475 8.90406L71.27 9.06147C72.0225 10.0934 71.8825 11.8423 70.78 14.5707C69.8001 16.9843 68.1377 20.045 65.9329 23.403L64.8655 25.0296L63.7456 23.438C61.8382 20.7096 59.4409 18.3135 56.6236 16.3197L55.0487 15.2004L56.6761 14.1335ZM31.9154 14.7281C34.3127 13.9586 36.7975 13.5388 39.3174 13.4689V13.4514H40.0173C44.6895 13.4514 49.2916 14.6932 53.3163 17.0368C57.2185 19.3104 60.5083 22.5635 62.8181 26.4462L63.2556 27.1983L62.7481 27.8979C60.6308 30.8362 58.146 33.9318 55.3462 37.0975L54.3837 38.1993L53.3863 37.1325C51.6015 35.2086 49.8341 33.3547 48.2417 31.7631C43.0621 26.5862 36.9725 21.1993 31.5304 17.0193L29.5531 15.4977L31.9154 14.7281ZM9.00958 13.5388C8.27463 11.3351 8.20464 9.83102 8.7821 9.04398L8.90459 8.88657L9.06208 8.76414C10.0945 8.01209 11.8444 8.152 14.5742 9.25386C16.989 10.2333 20.0513 11.8948 23.411 14.0985L25.0384 15.1654L23.446 16.2847C20.6462 18.2086 18.2489 20.6047 16.3065 23.3855L15.2041 24.9771L14.1367 23.3506C11.6169 19.5028 9.88452 16.1973 9.00958 13.5388ZM23.376 65.8506C20.0338 68.0368 16.989 69.7158 14.5567 70.6952C12.9468 71.3423 11.6694 71.6746 10.6895 71.6746C10.0245 71.6746 9.48204 71.5172 9.06208 71.2199L8.88709 71.0975L8.7646 70.9226C7.76717 69.5059 8.64211 64.9936 14.1192 56.616L15.1866 54.9895L16.3065 56.581C18.2139 59.3094 20.6112 61.7055 23.4285 63.6993L25.0034 64.8187L23.376 65.8506ZM27.9082 62.7374L27.2082 63.2446L26.4558 62.8074C22.5711 60.4812 19.3163 57.1932 17.0415 53.3104C14.6967 49.2878 13.4543 44.688 13.4543 40.0183V38.8814H13.5067C13.6992 34.6139 14.9066 30.4339 17.0765 26.7261C19.3338 22.8084 22.5886 19.5203 26.4733 17.1942L27.2257 16.7395L27.9257 17.2641C34.0152 21.759 40.2798 27.2158 46.5268 33.4596C48.2767 35.2086 50.0441 37.045 51.9164 39.1088L52.7389 40.0008L51.9164 40.8927C50.324 42.6067 48.5217 44.5481 46.5268 46.5244C40.1398 52.9257 33.8753 58.365 27.9082 62.7374ZM39.9998 66.5152C37.2525 66.5152 34.5227 66.0779 31.8979 65.2384L31.4779 65.0985L29.5181 64.3639L30.4805 63.7168L31.4779 62.9473C36.92 58.7672 43.0096 53.3979 48.2067 48.2034C49.7816 46.6294 51.5665 44.7755 53.3513 42.8341L54.3487 41.7672L55.3112 42.8691C57.936 45.8598 60.4208 48.9555 62.7306 52.0687L63.2556 52.7683L62.8006 53.5203C60.4733 57.403 57.1835 60.6561 53.2988 62.9298C49.2741 65.2734 44.672 66.5152 39.9998 66.5152ZM56.6236 65.8506L54.9962 64.7837L56.5886 63.6818C59.3184 61.7755 61.7157 59.3794 63.7106 56.5635L64.8305 54.9895L65.8804 56.5985C68.0677 59.939 69.7476 62.9823 70.7275 65.4133C71.83 68.1242 71.9875 69.8732 71.2525 70.9051L71.13 71.0625L70.9725 71.1849C70.6401 71.4298 70.1326 71.5697 69.4501 71.5697C67.2453 71.5697 63.0806 70.0656 56.6236 65.8506Z" fill="url(#paint0_linear_2411_2254)"/>
<path d="M72.8449 72.829C75.6097 70.0656 73.3524 63.1222 66.5104 53.258L66.0904 52.6458L66.4054 51.9637C68.1377 48.186 69.0127 44.1808 69.0127 40.0532V40.0008C69.0127 35.8557 68.1377 31.8331 66.4054 28.0553L66.0904 27.3732L66.5104 26.7611C73.3524 16.8969 75.6097 9.95344 72.8449 7.19007C70.0276 4.37423 63.2381 6.56044 53.2113 13.5213L52.5989 13.9411L51.9164 13.6438C48.1017 11.9298 44.0945 11.0553 39.9823 11.0553C35.8351 11.0553 31.8104 11.9298 28.0307 13.6613L27.3482 13.9761L26.7358 13.5388C16.919 6.68287 9.97201 4.4267 7.20721 7.19007C4.37242 10.0234 6.57726 16.7919 13.5417 26.7785L13.9617 27.3907L13.6642 28.0728C11.9319 31.9205 11.0569 35.9257 11.0569 40.0008C11.0569 44.1109 11.9319 48.116 13.6467 51.8938L13.9617 52.5759L13.5417 53.188C6.55976 63.1921 4.37242 69.9781 7.20721 72.8115C7.97716 73.581 9.04458 73.9658 10.4445 73.9658C14.0842 73.9658 19.7188 71.3773 26.7883 66.4802L27.4007 66.0604L28.0832 66.3753C31.8629 68.1067 35.8876 68.9812 40.0348 68.9812C44.147 68.9812 48.1542 68.1067 51.9689 66.3927L52.6514 66.0954L53.2638 66.5152C60.4558 71.4997 65.9329 74.0357 69.5726 74.0357C70.9725 74.0008 72.0575 73.616 72.8449 72.829ZM66.5804 40.0008C66.5804 42.7467 66.1429 45.475 65.3029 48.0985L64.533 50.4596L63.0106 48.5008C60.8408 45.7199 58.7409 43.1489 56.7286 40.8578L55.9761 40.0008L56.7286 39.1438C58.9159 36.6602 61.0333 34.0892 63.0106 31.5183L64.533 29.5419L65.3029 31.9205C66.1429 34.5265 66.5804 37.2374 66.5804 40.0008ZM56.6761 14.1335C60.5433 11.615 63.8331 9.88349 66.4929 9.009C68.6977 8.27443 70.2026 8.20447 70.99 8.78163L71.1475 8.90406L71.27 9.06147C72.0225 10.0934 71.8825 11.8423 70.78 14.5707C69.8001 16.9843 68.1377 20.045 65.9329 23.403L64.8655 25.0296L63.7456 23.438C61.8382 20.7096 59.4409 18.3135 56.6236 16.3197L55.0487 15.2004L56.6761 14.1335ZM31.9154 14.7281C34.3127 13.9586 36.7975 13.5388 39.3174 13.4689V13.4514H40.0173C44.6895 13.4514 49.2916 14.6932 53.3163 17.0368C57.2185 19.3104 60.5083 22.5635 62.8181 26.4462L63.2556 27.1983L62.7481 27.8979C60.6308 30.8362 58.146 33.9318 55.3462 37.0975L54.3837 38.1993L53.3863 37.1325C51.6015 35.2086 49.8341 33.3547 48.2417 31.7631C43.0621 26.5862 36.9725 21.1993 31.5304 17.0193L29.5531 15.4977L31.9154 14.7281ZM9.00958 13.5388C8.27463 11.3351 8.20464 9.83102 8.7821 9.04398L8.90459 8.88657L9.06208 8.76414C10.0945 8.01209 11.8444 8.152 14.5742 9.25386C16.989 10.2333 20.0513 11.8948 23.411 14.0985L25.0384 15.1654L23.446 16.2847C20.6462 18.2086 18.2489 20.6047 16.3065 23.3855L15.2041 24.9771L14.1367 23.3506C11.6169 19.5028 9.88452 16.1973 9.00958 13.5388ZM23.376 65.8506C20.0338 68.0368 16.989 69.7158 14.5567 70.6952C12.9468 71.3423 11.6694 71.6746 10.6895 71.6746C10.0245 71.6746 9.48204 71.5172 9.06208 71.2199L8.88709 71.0975L8.7646 70.9226C7.76717 69.5059 8.64211 64.9936 14.1192 56.616L15.1866 54.9895L16.3065 56.581C18.2139 59.3094 20.6112 61.7055 23.4285 63.6993L25.0034 64.8187L23.376 65.8506ZM27.9082 62.7374L27.2082 63.2446L26.4558 62.8074C22.5711 60.4812 19.3163 57.1932 17.0415 53.3104C14.6967 49.2878 13.4543 44.688 13.4543 40.0183V38.8814H13.5067C13.6992 34.6139 14.9066 30.4339 17.0765 26.7261C19.3338 22.8084 22.5886 19.5203 26.4733 17.1942L27.2257 16.7395L27.9257 17.2641C34.0152 21.759 40.2798 27.2158 46.5268 33.4596C48.2767 35.2086 50.0441 37.045 51.9164 39.1088L52.7389 40.0008L51.9164 40.8927C50.324 42.6067 48.5217 44.5481 46.5268 46.5244C40.1398 52.9257 33.8753 58.365 27.9082 62.7374ZM39.9998 66.5152C37.2525 66.5152 34.5227 66.0779 31.8979 65.2384L31.4779 65.0985L29.5181 64.3639L30.4805 63.7168L31.4779 62.9473C36.92 58.7672 43.0096 53.3979 48.2067 48.2034C49.7816 46.6294 51.5665 44.7755 53.3513 42.8341L54.3487 41.7672L55.3112 42.8691C57.936 45.8598 60.4208 48.9555 62.7306 52.0687L63.2556 52.7683L62.8006 53.5203C60.4733 57.403 57.1835 60.6561 53.2988 62.9298C49.2741 65.2734 44.672 66.5152 39.9998 66.5152ZM56.6236 65.8506L54.9962 64.7837L56.5886 63.6818C59.3184 61.7755 61.7157 59.3794 63.7106 56.5635L64.8305 54.9895L65.8804 56.5985C68.0677 59.939 69.7476 62.9823 70.7275 65.4133C71.83 68.1242 71.9875 69.8732 71.2525 70.9051L71.13 71.0625L70.9725 71.1849C70.6401 71.4298 70.1326 71.5697 69.4501 71.5697C67.2453 71.5697 63.0806 70.0656 56.6236 65.8506Z" fill="url(#paint1_linear_2411_2254)"/>
<defs>
<linearGradient id="paint0_linear_2411_2254" x1="-44.319" y1="67.2646" x2="95.108" y2="65.7153" gradientUnits="userSpaceOnUse">
<stop stop-color="#E7F1FF"/>
<stop offset="0.210326" stop-color="#FAD9DE"/>
<stop offset="0.586168" stop-color="#EE5998"/>
<stop offset="0.956711" stop-color="#3375F4"/>
</linearGradient>
<linearGradient id="paint1_linear_2411_2254" x1="-4.88453" y1="62.304" x2="87.9699" y2="61.2511" gradientUnits="userSpaceOnUse">
<stop stop-color="#E7F1FF"/>
<stop offset="0.305858" stop-color="#F05596"/>
<stop offset="0.671875" stop-color="#558DF9"/>
<stop offset="0.953125" stop-color="#31BCFF"/>
</linearGradient>
</defs>
</svg>
