<svg width="80" height="80" viewBox="0 0 80 80" fill="none" xmlns="http://www.w3.org/2000/svg">
<path fill-rule="evenodd" clip-rule="evenodd" d="M40 50.1742C42.8257 50.1742 45.5261 49.6374 48.0047 48.6604C47.2844 42.892 44.3143 37.8226 40.0002 34.3581C35.686 37.8226 32.7158 42.8921 31.9956 48.6605C34.4741 49.6375 37.1744 50.1742 40 50.1742ZM29.6267 47.5578C30.5541 41.7006 33.571 36.5386 37.8899 32.8595C34.5389 30.7663 30.5793 29.5566 26.3371 29.5566C23.5113 29.5566 20.811 30.0934 18.3323 31.0704C19.2237 38.2091 23.5609 44.2773 29.6267 47.5578ZM40.0002 31.251C36.105 28.6037 31.4017 27.0566 26.3371 27.0566C23.4696 27.0566 20.718 27.5525 18.1633 28.4633C18.163 28.4212 18.1629 28.3792 18.1629 28.3371C18.1629 16.2768 27.9397 6.5 40 6.5C52.0603 6.5 61.8371 16.2768 61.8371 28.3371C61.8371 28.3791 61.837 28.4212 61.8367 28.4632C59.2821 27.5525 56.5306 27.0566 53.6632 27.0566C48.5986 27.0566 43.8953 28.6037 40.0002 31.251ZM42.1104 32.8595C45.4614 30.7663 49.4211 29.5566 53.6632 29.5566C56.4889 29.5566 59.1891 30.0933 61.6677 31.0703C60.7763 38.2089 56.4393 44.2771 50.3736 47.5577C49.4462 41.7005 46.4293 36.5385 42.1104 32.8595ZM64.0365 32.173C62.7757 40.1361 57.6527 46.8142 50.6467 50.2279C50.6649 50.6142 50.6742 51.0029 50.6742 51.3937C50.6742 58.817 47.3506 65.464 42.1104 69.928C45.4614 72.0211 49.4211 73.2308 53.6632 73.2308C65.7235 73.2308 75.5003 63.454 75.5003 51.3937C75.5003 43.0878 70.8632 35.865 64.0365 32.173ZM40.0002 71.5365C36.105 74.1838 31.4017 75.7308 26.3371 75.7308C12.8961 75.7308 2 64.8347 2 51.3937C2 41.7708 7.58498 33.4523 15.6904 29.5029C15.6721 29.1166 15.6629 28.7279 15.6629 28.3371C15.6629 14.8961 26.559 4 40 4C53.441 4 64.3371 14.8961 64.3371 28.3371C64.3371 28.7278 64.3279 29.1165 64.3097 29.5027C72.4152 33.4521 78.0003 41.7707 78.0003 51.3937C78.0003 64.8347 67.1042 75.7308 53.6632 75.7308C48.5986 75.7308 43.8953 74.1838 40.0002 71.5365ZM37.8899 69.928C34.5389 72.0212 30.5793 73.2308 26.3371 73.2308C14.2768 73.2308 4.5 63.454 4.5 51.3937C4.5 43.088 9.13704 35.8652 15.9635 32.1731C17.2244 40.1364 22.3475 46.8144 29.3536 50.2281C29.3354 50.6143 29.3262 51.003 29.3262 51.3937C29.3262 58.817 32.6497 65.464 37.8899 69.928ZM40.0002 68.4293C35.0164 64.4271 31.8262 58.283 31.8262 51.3937C31.8262 51.3517 31.8263 51.3096 31.8265 51.2676C34.3812 52.1783 37.1327 52.6742 40 52.6742C42.8675 52.6742 45.6191 52.1782 48.1738 51.2675C48.174 51.3096 48.1742 51.3516 48.1742 51.3937C48.1742 58.283 44.9839 64.4271 40.0002 68.4293Z" fill="white"/>
<path fill-rule="evenodd" clip-rule="evenodd" d="M40 50.1742C42.8257 50.1742 45.5261 49.6374 48.0047 48.6604C47.2844 42.892 44.3143 37.8226 40.0002 34.3581C35.686 37.8226 32.7158 42.8921 31.9956 48.6605C34.4741 49.6375 37.1744 50.1742 40 50.1742ZM29.6267 47.5578C30.5541 41.7006 33.571 36.5386 37.8899 32.8595C34.5389 30.7663 30.5793 29.5566 26.3371 29.5566C23.5113 29.5566 20.811 30.0934 18.3323 31.0704C19.2237 38.2091 23.5609 44.2773 29.6267 47.5578ZM40.0002 31.251C36.105 28.6037 31.4017 27.0566 26.3371 27.0566C23.4696 27.0566 20.718 27.5525 18.1633 28.4633C18.163 28.4212 18.1629 28.3792 18.1629 28.3371C18.1629 16.2768 27.9397 6.5 40 6.5C52.0603 6.5 61.8371 16.2768 61.8371 28.3371C61.8371 28.3791 61.837 28.4212 61.8367 28.4632C59.2821 27.5525 56.5306 27.0566 53.6632 27.0566C48.5986 27.0566 43.8953 28.6037 40.0002 31.251ZM42.1104 32.8595C45.4614 30.7663 49.4211 29.5566 53.6632 29.5566C56.4889 29.5566 59.1891 30.0933 61.6677 31.0703C60.7763 38.2089 56.4393 44.2771 50.3736 47.5577C49.4462 41.7005 46.4293 36.5385 42.1104 32.8595ZM64.0365 32.173C62.7757 40.1361 57.6527 46.8142 50.6467 50.2279C50.6649 50.6142 50.6742 51.0029 50.6742 51.3937C50.6742 58.817 47.3506 65.464 42.1104 69.928C45.4614 72.0211 49.4211 73.2308 53.6632 73.2308C65.7235 73.2308 75.5003 63.454 75.5003 51.3937C75.5003 43.0878 70.8632 35.865 64.0365 32.173ZM40.0002 71.5365C36.105 74.1838 31.4017 75.7308 26.3371 75.7308C12.8961 75.7308 2 64.8347 2 51.3937C2 41.7708 7.58498 33.4523 15.6904 29.5029C15.6721 29.1166 15.6629 28.7279 15.6629 28.3371C15.6629 14.8961 26.559 4 40 4C53.441 4 64.3371 14.8961 64.3371 28.3371C64.3371 28.7278 64.3279 29.1165 64.3097 29.5027C72.4152 33.4521 78.0003 41.7707 78.0003 51.3937C78.0003 64.8347 67.1042 75.7308 53.6632 75.7308C48.5986 75.7308 43.8953 74.1838 40.0002 71.5365ZM37.8899 69.928C34.5389 72.0212 30.5793 73.2308 26.3371 73.2308C14.2768 73.2308 4.5 63.454 4.5 51.3937C4.5 43.088 9.13704 35.8652 15.9635 32.1731C17.2244 40.1364 22.3475 46.8144 29.3536 50.2281C29.3354 50.6143 29.3262 51.003 29.3262 51.3937C29.3262 58.817 32.6497 65.464 37.8899 69.928ZM40.0002 68.4293C35.0164 64.4271 31.8262 58.283 31.8262 51.3937C31.8262 51.3517 31.8263 51.3096 31.8265 51.2676C34.3812 52.1783 37.1327 52.6742 40 52.6742C42.8675 52.6742 45.6191 52.1782 48.1738 51.2675C48.174 51.3096 48.1742 51.3516 48.1742 51.3937C48.1742 58.283 44.9839 64.4271 40.0002 68.4293Z" fill="url(#paint0_linear_2411_1822)"/>
<path fill-rule="evenodd" clip-rule="evenodd" d="M40 50.1742C42.8257 50.1742 45.5261 49.6374 48.0047 48.6604C47.2844 42.892 44.3143 37.8226 40.0002 34.3581C35.686 37.8226 32.7158 42.8921 31.9956 48.6605C34.4741 49.6375 37.1744 50.1742 40 50.1742ZM29.6267 47.5578C30.5541 41.7006 33.571 36.5386 37.8899 32.8595C34.5389 30.7663 30.5793 29.5566 26.3371 29.5566C23.5113 29.5566 20.811 30.0934 18.3323 31.0704C19.2237 38.2091 23.5609 44.2773 29.6267 47.5578ZM40.0002 31.251C36.105 28.6037 31.4017 27.0566 26.3371 27.0566C23.4696 27.0566 20.718 27.5525 18.1633 28.4633C18.163 28.4212 18.1629 28.3792 18.1629 28.3371C18.1629 16.2768 27.9397 6.5 40 6.5C52.0603 6.5 61.8371 16.2768 61.8371 28.3371C61.8371 28.3791 61.837 28.4212 61.8367 28.4632C59.2821 27.5525 56.5306 27.0566 53.6632 27.0566C48.5986 27.0566 43.8953 28.6037 40.0002 31.251ZM42.1104 32.8595C45.4614 30.7663 49.4211 29.5566 53.6632 29.5566C56.4889 29.5566 59.1891 30.0933 61.6677 31.0703C60.7763 38.2089 56.4393 44.2771 50.3736 47.5577C49.4462 41.7005 46.4293 36.5385 42.1104 32.8595ZM64.0365 32.173C62.7757 40.1361 57.6527 46.8142 50.6467 50.2279C50.6649 50.6142 50.6742 51.0029 50.6742 51.3937C50.6742 58.817 47.3506 65.464 42.1104 69.928C45.4614 72.0211 49.4211 73.2308 53.6632 73.2308C65.7235 73.2308 75.5003 63.454 75.5003 51.3937C75.5003 43.0878 70.8632 35.865 64.0365 32.173ZM40.0002 71.5365C36.105 74.1838 31.4017 75.7308 26.3371 75.7308C12.8961 75.7308 2 64.8347 2 51.3937C2 41.7708 7.58498 33.4523 15.6904 29.5029C15.6721 29.1166 15.6629 28.7279 15.6629 28.3371C15.6629 14.8961 26.559 4 40 4C53.441 4 64.3371 14.8961 64.3371 28.3371C64.3371 28.7278 64.3279 29.1165 64.3097 29.5027C72.4152 33.4521 78.0003 41.7707 78.0003 51.3937C78.0003 64.8347 67.1042 75.7308 53.6632 75.7308C48.5986 75.7308 43.8953 74.1838 40.0002 71.5365ZM37.8899 69.928C34.5389 72.0212 30.5793 73.2308 26.3371 73.2308C14.2768 73.2308 4.5 63.454 4.5 51.3937C4.5 43.088 9.13704 35.8652 15.9635 32.1731C17.2244 40.1364 22.3475 46.8144 29.3536 50.2281C29.3354 50.6143 29.3262 51.003 29.3262 51.3937C29.3262 58.817 32.6497 65.464 37.8899 69.928ZM40.0002 68.4293C35.0164 64.4271 31.8262 58.283 31.8262 51.3937C31.8262 51.3517 31.8263 51.3096 31.8265 51.2676C34.3812 52.1783 37.1327 52.6742 40 52.6742C42.8675 52.6742 45.6191 52.1782 48.1738 51.2675C48.174 51.3096 48.1742 51.3516 48.1742 51.3937C48.1742 58.283 44.9839 64.4271 40.0002 68.4293Z" fill="url(#paint1_linear_2411_1822)"/>
<defs>
<linearGradient id="paint0_linear_2411_1822" x1="-54.2464" y1="68.5923" x2="101.596" y2="66.7563" gradientUnits="userSpaceOnUse">
<stop stop-color="#E7F1FF"/>
<stop offset="0.210326" stop-color="#FAD9DE"/>
<stop offset="0.586168" stop-color="#EE5998"/>
<stop offset="0.956711" stop-color="#3375F4"/>
</linearGradient>
<linearGradient id="paint1_linear_2411_1822" x1="-10.1684" y1="63.3626" x2="93.6183" y2="62.1149" gradientUnits="userSpaceOnUse">
<stop stop-color="#E7F1FF"/>
<stop offset="0.305858" stop-color="#F05596"/>
<stop offset="0.671875" stop-color="#558DF9"/>
<stop offset="0.953125" stop-color="#31BCFF"/>
</linearGradient>
</defs>
</svg>
