<svg width="132" height="39" viewBox="0 0 132 39" fill="none" xmlns="http://www.w3.org/2000/svg">
<g opacity="0.9" clip-path="url(#clip0_0_81)">
<path d="M8.04593 38.719L0.0859375 0.0800781H5.72431L11.6391 31.1459L25.1267 0.0800781H31.3177L13.5184 38.719H8.04593ZM39.0847 9.39431L30.9589 27.4424H42.0421L39.0847 9.39431ZM28.6925 32.4726L25.8734 38.719H20.2903L37.8963 0.0800781H42.5948L49.2834 38.719H43.9215L42.8712 32.4726H28.6925ZM68.7411 33.5781V38.719H52.6001V0.0800781H58.0725V33.5781H68.7411ZM90.0778 9.39431L81.952 27.4424H93.0351L90.0778 9.39431ZM79.6856 32.4726L76.8665 38.719H71.2835L88.8893 0.0800781H93.588L100.277 38.719H94.9145L93.8643 32.4726H79.6856ZM115.174 18.1836C120.813 18.1836 122.913 15.3092 122.913 11.6609C122.913 8.01259 120.813 5.19345 115.174 5.19345H109.065V18.156L115.174 18.1836ZM112.41 23.3244H109.065V38.7192H103.593V0.0802683H116.058C124.129 0.0802683 128.413 5.38683 128.413 11.6609C128.413 17.2439 125.04 22.0806 118.629 23.0757L131.923 38.6915H125.29L112.41 23.3244Z" fill="#FBFBFB"/>
</g>
<defs>
<clipPath id="clip0_0_81">
<rect width="131.963" height="38.6952" fill="white" transform="translate(0 0.0605469)"/>
</clipPath>
</defs>
</svg>
