<svg width="78" height="78" viewBox="0 0 78 78" fill="none" xmlns="http://www.w3.org/2000/svg">
<path d="M75.42 39.0052C75.4027 46.5938 73.0457 53.9778 68.655 60.1655C64.4354 66.1136 58.3366 70.7794 51.4694 73.258C44.2433 75.8732 36.2827 76.1635 28.9027 74.027C21.8642 72.0103 15.5778 67.8399 10.8965 62.1994C1.09055 50.4231 -0.0880532 33.1601 7.83876 20.0848C11.6657 13.7951 17.3713 8.76982 24.0679 5.72793C30.918 2.61736 38.7936 1.76261 46.1573 3.24991C53.4346 4.71993 60.1484 8.41165 65.2906 13.7785C70.4498 19.1626 73.8323 26.0501 74.9941 33.4174C75.3009 35.2802 75.4207 37.1431 75.4207 39.0059C75.4207 40.6637 77.9834 40.6637 77.9834 39.0059C77.9661 30.9726 75.4892 23.0083 70.8085 16.4615C66.2129 10.0348 59.7901 5.09537 52.3753 2.36098C44.722 -0.459175 36.1629 -0.749585 28.3381 1.47217C20.7873 3.60866 13.9372 8.08672 8.94856 14.1545C3.84064 20.3588 0.748253 27.9987 0.11678 36.0153C-0.515379 44.0825 1.43235 52.2861 5.6347 59.2083C9.68329 65.8914 15.7648 71.3261 22.8889 74.5391C30.3544 77.8893 38.7077 78.8461 46.7369 77.2395C54.4587 75.7015 61.6676 71.7188 67.1179 66.0271C72.5846 60.3187 76.2918 52.9518 77.5049 45.1414C77.8123 43.1075 77.9833 41.0562 78 39.0056C77.9994 37.3472 75.4367 37.3472 75.4201 39.005L75.42 39.0052Z" fill="white"/>
<path d="M75.42 39.0052C75.4027 46.5938 73.0457 53.9778 68.655 60.1655C64.4354 66.1136 58.3366 70.7794 51.4694 73.258C44.2433 75.8732 36.2827 76.1635 28.9027 74.027C21.8642 72.0103 15.5778 67.8399 10.8965 62.1994C1.09055 50.4231 -0.0880532 33.1601 7.83876 20.0848C11.6657 13.7951 17.3713 8.76982 24.0679 5.72793C30.918 2.61736 38.7936 1.76261 46.1573 3.24991C53.4346 4.71993 60.1484 8.41165 65.2906 13.7785C70.4498 19.1626 73.8323 26.0501 74.9941 33.4174C75.3009 35.2802 75.4207 37.1431 75.4207 39.0059C75.4207 40.6637 77.9834 40.6637 77.9834 39.0059C77.9661 30.9726 75.4892 23.0083 70.8085 16.4615C66.2129 10.0348 59.7901 5.09537 52.3753 2.36098C44.722 -0.459175 36.1629 -0.749585 28.3381 1.47217C20.7873 3.60866 13.9372 8.08672 8.94856 14.1545C3.84064 20.3588 0.748253 27.9987 0.11678 36.0153C-0.515379 44.0825 1.43235 52.2861 5.6347 59.2083C9.68329 65.8914 15.7648 71.3261 22.8889 74.5391C30.3544 77.8893 38.7077 78.8461 46.7369 77.2395C54.4587 75.7015 61.6676 71.7188 67.1179 66.0271C72.5846 60.3187 76.2918 52.9518 77.5049 45.1414C77.8123 43.1075 77.9833 41.0562 78 39.0056C77.9994 37.3472 75.4367 37.3472 75.4201 39.005L75.42 39.0052Z" fill="url(#paint0_linear_1_1920)"/>
<path d="M75.42 39.0052C75.4027 46.5938 73.0457 53.9778 68.655 60.1655C64.4354 66.1136 58.3366 70.7794 51.4694 73.258C44.2433 75.8732 36.2827 76.1635 28.9027 74.027C21.8642 72.0103 15.5778 67.8399 10.8965 62.1994C1.09055 50.4231 -0.0880532 33.1601 7.83876 20.0848C11.6657 13.7951 17.3713 8.76982 24.0679 5.72793C30.918 2.61736 38.7936 1.76261 46.1573 3.24991C53.4346 4.71993 60.1484 8.41165 65.2906 13.7785C70.4498 19.1626 73.8323 26.0501 74.9941 33.4174C75.3009 35.2802 75.4207 37.1431 75.4207 39.0059C75.4207 40.6637 77.9834 40.6637 77.9834 39.0059C77.9661 30.9726 75.4892 23.0083 70.8085 16.4615C66.2129 10.0348 59.7901 5.09537 52.3753 2.36098C44.722 -0.459175 36.1629 -0.749585 28.3381 1.47217C20.7873 3.60866 13.9372 8.08672 8.94856 14.1545C3.84064 20.3588 0.748253 27.9987 0.11678 36.0153C-0.515379 44.0825 1.43235 52.2861 5.6347 59.2083C9.68329 65.8914 15.7648 71.3261 22.8889 74.5391C30.3544 77.8893 38.7077 78.8461 46.7369 77.2395C54.4587 75.7015 61.6676 71.7188 67.1179 66.0271C72.5846 60.3187 76.2918 52.9518 77.5049 45.1414C77.8123 43.1075 77.9833 41.0562 78 39.0056C77.9994 37.3472 75.4367 37.3472 75.4201 39.005L75.42 39.0052Z" fill="url(#paint1_linear_1_1920)"/>
<path d="M60.1472 39.0052C60.0959 47.7388 54.5954 55.8575 46.3266 58.8653C37.9214 61.9246 28.4059 59.344 22.683 52.4899C16.9941 45.6877 16.3107 35.688 20.8723 28.1172C25.4166 20.5626 34.4706 16.512 43.1142 18.2723C51.7243 20.016 58.4541 27.0406 59.8894 35.706C60.0771 36.7832 60.1283 37.8938 60.1456 39.0049C60.1629 40.646 62.7249 40.6626 62.7082 39.0049C62.657 29.1087 56.4045 20.152 47.1289 16.7168C37.8532 13.2816 27.0041 16.2381 20.7519 23.8952C14.4309 31.6037 13.5258 42.7482 18.7362 51.2941C23.8954 59.7715 33.9742 64.1643 43.6946 62.2501C53.2271 60.37 60.932 52.388 62.4009 42.7654C62.5886 41.5177 62.7083 40.2527 62.7083 38.9878C62.7083 37.3473 60.1457 37.3473 60.1457 39.0051L60.1472 39.0052Z" fill="white"/>
<path d="M60.1472 39.0052C60.0959 47.7388 54.5954 55.8575 46.3266 58.8653C37.9214 61.9246 28.4059 59.344 22.683 52.4899C16.9941 45.6877 16.3107 35.688 20.8723 28.1172C25.4166 20.5626 34.4706 16.512 43.1142 18.2723C51.7243 20.016 58.4541 27.0406 59.8894 35.706C60.0771 36.7832 60.1283 37.8938 60.1456 39.0049C60.1629 40.646 62.7249 40.6626 62.7082 39.0049C62.657 29.1087 56.4045 20.152 47.1289 16.7168C37.8532 13.2816 27.0041 16.2381 20.7519 23.8952C14.4309 31.6037 13.5258 42.7482 18.7362 51.2941C23.8954 59.7715 33.9742 64.1643 43.6946 62.2501C53.2271 60.37 60.932 52.388 62.4009 42.7654C62.5886 41.5177 62.7083 40.2527 62.7083 38.9878C62.7083 37.3473 60.1457 37.3473 60.1457 39.0051L60.1472 39.0052Z" fill="url(#paint2_linear_1_1920)"/>
<path d="M60.1472 39.0052C60.0959 47.7388 54.5954 55.8575 46.3266 58.8653C37.9214 61.9246 28.4059 59.344 22.683 52.4899C16.9941 45.6877 16.3107 35.688 20.8723 28.1172C25.4166 20.5626 34.4706 16.512 43.1142 18.2723C51.7243 20.016 58.4541 27.0406 59.8894 35.706C60.0771 36.7832 60.1283 37.8938 60.1456 39.0049C60.1629 40.646 62.7249 40.6626 62.7082 39.0049C62.657 29.1087 56.4045 20.152 47.1289 16.7168C37.8532 13.2816 27.0041 16.2381 20.7519 23.8952C14.4309 31.6037 13.5258 42.7482 18.7362 51.2941C23.8954 59.7715 33.9742 64.1643 43.6946 62.2501C53.2271 60.37 60.932 52.388 62.4009 42.7654C62.5886 41.5177 62.7083 40.2527 62.7083 38.9878C62.7083 37.3473 60.1457 37.3473 60.1457 39.0051L60.1472 39.0052Z" fill="url(#paint3_linear_1_1920)"/>
<path d="M47.147 76.1113V60.3696C47.147 58.7119 44.5844 58.7119 44.5844 60.3696V76.1113C44.5844 77.7518 47.147 77.7518 47.147 76.1113Z" fill="white"/>
<path d="M47.147 76.1113V60.3696C47.147 58.7119 44.5844 58.7119 44.5844 60.3696V76.1113C44.5844 77.7518 47.147 77.7518 47.147 76.1113Z" fill="url(#paint4_linear_1_1920)"/>
<path d="M47.147 76.1113V60.3696C47.147 58.7119 44.5844 58.7119 44.5844 60.3696V76.1113C44.5844 77.7518 47.147 77.7518 47.147 76.1113Z" fill="url(#paint5_linear_1_1920)"/>
<path d="M47.147 17.6404V1.89875C47.147 0.240991 44.5844 0.240991 44.5844 1.89875V17.6404C44.5844 19.2981 47.147 19.2981 47.147 17.6404Z" fill="white"/>
<path d="M47.147 17.6404V1.89875C47.147 0.240991 44.5844 0.240991 44.5844 1.89875V17.6404C44.5844 19.2981 47.147 19.2981 47.147 17.6404Z" fill="url(#paint6_linear_1_1920)"/>
<path d="M47.147 17.6404V1.89875C47.147 0.240991 44.5844 0.240991 44.5844 1.89875V17.6404C44.5844 19.2981 47.147 19.2981 47.147 17.6404Z" fill="url(#paint7_linear_1_1920)"/>
<path d="M33.4117 17.6404V1.89875C33.4117 0.240991 30.8491 0.240991 30.8491 1.89875V17.6404C30.8491 19.2981 33.4117 19.2981 33.4117 17.6404Z" fill="white"/>
<path d="M33.4117 17.6404V1.89875C33.4117 0.240991 30.8491 0.240991 30.8491 1.89875V17.6404C30.8491 19.2981 33.4117 19.2981 33.4117 17.6404Z" fill="url(#paint8_linear_1_1920)"/>
<path d="M33.4117 17.6404V1.89875C33.4117 0.240991 30.8491 0.240991 30.8491 1.89875V17.6404C30.8491 19.2981 33.4117 19.2981 33.4117 17.6404Z" fill="url(#paint9_linear_1_1920)"/>
<path d="M33.4117 76.1113V60.3696C33.4117 58.7119 30.8491 58.7119 30.8491 60.3696V76.1113C30.8491 77.7518 33.4117 77.7518 33.4117 76.1113Z" fill="white"/>
<path d="M33.4117 76.1113V60.3696C33.4117 58.7119 30.8491 58.7119 30.8491 60.3696V76.1113C30.8491 77.7518 33.4117 77.7518 33.4117 76.1113Z" fill="url(#paint10_linear_1_1920)"/>
<path d="M33.4117 76.1113V60.3696C33.4117 58.7119 30.8491 58.7119 30.8491 60.3696V76.1113C30.8491 77.7518 33.4117 77.7518 33.4117 76.1113Z" fill="url(#paint11_linear_1_1920)"/>
<path d="M76.085 30.8514H60.3512C58.6943 30.8514 58.6943 33.4153 60.3512 33.4153H76.085C77.7247 33.4153 77.7247 30.8514 76.085 30.8514Z" fill="white"/>
<path d="M76.085 30.8514H60.3512C58.6943 30.8514 58.6943 33.4153 60.3512 33.4153H76.085C77.7247 33.4153 77.7247 30.8514 76.085 30.8514Z" fill="url(#paint12_linear_1_1920)"/>
<path d="M76.085 30.8514H60.3512C58.6943 30.8514 58.6943 33.4153 60.3512 33.4153H76.085C77.7247 33.4153 77.7247 30.8514 76.085 30.8514Z" fill="url(#paint13_linear_1_1920)"/>
<path d="M17.6432 30.8514H1.90948C0.252548 30.8514 0.252548 33.4153 1.90948 33.4153H17.6432C19.3002 33.4153 19.3002 30.8514 17.6432 30.8514Z" fill="white"/>
<path d="M17.6432 30.8514H1.90948C0.252548 30.8514 0.252548 33.4153 1.90948 33.4153H17.6432C19.3002 33.4153 19.3002 30.8514 17.6432 30.8514Z" fill="url(#paint14_linear_1_1920)"/>
<path d="M17.6432 30.8514H1.90948C0.252548 30.8514 0.252548 33.4153 1.90948 33.4153H17.6432C19.3002 33.4153 19.3002 30.8514 17.6432 30.8514Z" fill="url(#paint15_linear_1_1920)"/>
<path d="M17.6432 44.5936H1.90948C0.252548 44.5936 0.252548 47.1576 1.90948 47.1576H17.6432C19.3002 47.1576 19.3002 44.5936 17.6432 44.5936Z" fill="white"/>
<path d="M17.6432 44.5936H1.90948C0.252548 44.5936 0.252548 47.1576 1.90948 47.1576H17.6432C19.3002 47.1576 19.3002 44.5936 17.6432 44.5936Z" fill="url(#paint16_linear_1_1920)"/>
<path d="M17.6432 44.5936H1.90948C0.252548 44.5936 0.252548 47.1576 1.90948 47.1576H17.6432C19.3002 47.1576 19.3002 44.5936 17.6432 44.5936Z" fill="url(#paint17_linear_1_1920)"/>
<path d="M76.085 44.5936H60.3512C58.6943 44.5936 58.6943 47.1576 60.3512 47.1576H76.085C77.7247 47.1576 77.7247 44.5936 76.085 44.5936Z" fill="white"/>
<path d="M76.085 44.5936H60.3512C58.6943 44.5936 58.6943 47.1576 60.3512 47.1576H76.085C77.7247 47.1576 77.7247 44.5936 76.085 44.5936Z" fill="url(#paint18_linear_1_1920)"/>
<path d="M76.085 44.5936H60.3512C58.6943 44.5936 58.6943 47.1576 60.3512 47.1576H76.085C77.7247 47.1576 77.7247 44.5936 76.085 44.5936Z" fill="url(#paint19_linear_1_1920)"/>
<defs>
<linearGradient id="paint0_linear_1_1920" x1="-57.7263" y1="70.2376" x2="102.219" y2="68.4591" gradientUnits="userSpaceOnUse">
<stop stop-color="#E7F1FF"/>
<stop offset="0.210326" stop-color="#FAD9DE"/>
<stop offset="0.586168" stop-color="#EE5998"/>
<stop offset="0.956711" stop-color="#3375F4"/>
</linearGradient>
<linearGradient id="paint1_linear_1_1920" x1="-12.4886" y1="64.5509" x2="94.0306" y2="63.3422" gradientUnits="userSpaceOnUse">
<stop stop-color="#E7F1FF"/>
<stop offset="0.305858" stop-color="#F05596"/>
<stop offset="0.671875" stop-color="#558DF9"/>
<stop offset="0.953125" stop-color="#31BCFF"/>
</linearGradient>
<linearGradient id="paint2_linear_1_1920" x1="-57.7263" y1="70.2376" x2="102.219" y2="68.4591" gradientUnits="userSpaceOnUse">
<stop stop-color="#E7F1FF"/>
<stop offset="0.210326" stop-color="#FAD9DE"/>
<stop offset="0.586168" stop-color="#EE5998"/>
<stop offset="0.956711" stop-color="#3375F4"/>
</linearGradient>
<linearGradient id="paint3_linear_1_1920" x1="-12.4886" y1="64.5509" x2="94.0306" y2="63.3422" gradientUnits="userSpaceOnUse">
<stop stop-color="#E7F1FF"/>
<stop offset="0.305858" stop-color="#F05596"/>
<stop offset="0.671875" stop-color="#558DF9"/>
<stop offset="0.953125" stop-color="#31BCFF"/>
</linearGradient>
<linearGradient id="paint4_linear_1_1920" x1="-57.7263" y1="70.2376" x2="102.219" y2="68.4591" gradientUnits="userSpaceOnUse">
<stop stop-color="#E7F1FF"/>
<stop offset="0.210326" stop-color="#FAD9DE"/>
<stop offset="0.586168" stop-color="#EE5998"/>
<stop offset="0.956711" stop-color="#3375F4"/>
</linearGradient>
<linearGradient id="paint5_linear_1_1920" x1="-12.4886" y1="64.5509" x2="94.0306" y2="63.3422" gradientUnits="userSpaceOnUse">
<stop stop-color="#E7F1FF"/>
<stop offset="0.305858" stop-color="#F05596"/>
<stop offset="0.671875" stop-color="#558DF9"/>
<stop offset="0.953125" stop-color="#31BCFF"/>
</linearGradient>
<linearGradient id="paint6_linear_1_1920" x1="-57.7263" y1="70.2376" x2="102.219" y2="68.4591" gradientUnits="userSpaceOnUse">
<stop stop-color="#E7F1FF"/>
<stop offset="0.210326" stop-color="#FAD9DE"/>
<stop offset="0.586168" stop-color="#EE5998"/>
<stop offset="0.956711" stop-color="#3375F4"/>
</linearGradient>
<linearGradient id="paint7_linear_1_1920" x1="-12.4886" y1="64.5509" x2="94.0306" y2="63.3422" gradientUnits="userSpaceOnUse">
<stop stop-color="#E7F1FF"/>
<stop offset="0.305858" stop-color="#F05596"/>
<stop offset="0.671875" stop-color="#558DF9"/>
<stop offset="0.953125" stop-color="#31BCFF"/>
</linearGradient>
<linearGradient id="paint8_linear_1_1920" x1="-57.7263" y1="70.2376" x2="102.219" y2="68.4591" gradientUnits="userSpaceOnUse">
<stop stop-color="#E7F1FF"/>
<stop offset="0.210326" stop-color="#FAD9DE"/>
<stop offset="0.586168" stop-color="#EE5998"/>
<stop offset="0.956711" stop-color="#3375F4"/>
</linearGradient>
<linearGradient id="paint9_linear_1_1920" x1="-12.4886" y1="64.5509" x2="94.0306" y2="63.3422" gradientUnits="userSpaceOnUse">
<stop stop-color="#E7F1FF"/>
<stop offset="0.305858" stop-color="#F05596"/>
<stop offset="0.671875" stop-color="#558DF9"/>
<stop offset="0.953125" stop-color="#31BCFF"/>
</linearGradient>
<linearGradient id="paint10_linear_1_1920" x1="-57.7263" y1="70.2376" x2="102.219" y2="68.4591" gradientUnits="userSpaceOnUse">
<stop stop-color="#E7F1FF"/>
<stop offset="0.210326" stop-color="#FAD9DE"/>
<stop offset="0.586168" stop-color="#EE5998"/>
<stop offset="0.956711" stop-color="#3375F4"/>
</linearGradient>
<linearGradient id="paint11_linear_1_1920" x1="-12.4886" y1="64.5509" x2="94.0306" y2="63.3422" gradientUnits="userSpaceOnUse">
<stop stop-color="#E7F1FF"/>
<stop offset="0.305858" stop-color="#F05596"/>
<stop offset="0.671875" stop-color="#558DF9"/>
<stop offset="0.953125" stop-color="#31BCFF"/>
</linearGradient>
<linearGradient id="paint12_linear_1_1920" x1="-57.7263" y1="70.2376" x2="102.219" y2="68.4591" gradientUnits="userSpaceOnUse">
<stop stop-color="#E7F1FF"/>
<stop offset="0.210326" stop-color="#FAD9DE"/>
<stop offset="0.586168" stop-color="#EE5998"/>
<stop offset="0.956711" stop-color="#3375F4"/>
</linearGradient>
<linearGradient id="paint13_linear_1_1920" x1="-12.4886" y1="64.5509" x2="94.0306" y2="63.3422" gradientUnits="userSpaceOnUse">
<stop stop-color="#E7F1FF"/>
<stop offset="0.305858" stop-color="#F05596"/>
<stop offset="0.671875" stop-color="#558DF9"/>
<stop offset="0.953125" stop-color="#31BCFF"/>
</linearGradient>
<linearGradient id="paint14_linear_1_1920" x1="-57.7263" y1="70.2376" x2="102.219" y2="68.4591" gradientUnits="userSpaceOnUse">
<stop stop-color="#E7F1FF"/>
<stop offset="0.210326" stop-color="#FAD9DE"/>
<stop offset="0.586168" stop-color="#EE5998"/>
<stop offset="0.956711" stop-color="#3375F4"/>
</linearGradient>
<linearGradient id="paint15_linear_1_1920" x1="-12.4886" y1="64.5509" x2="94.0306" y2="63.3422" gradientUnits="userSpaceOnUse">
<stop stop-color="#E7F1FF"/>
<stop offset="0.305858" stop-color="#F05596"/>
<stop offset="0.671875" stop-color="#558DF9"/>
<stop offset="0.953125" stop-color="#31BCFF"/>
</linearGradient>
<linearGradient id="paint16_linear_1_1920" x1="-57.7263" y1="70.2376" x2="102.219" y2="68.4591" gradientUnits="userSpaceOnUse">
<stop stop-color="#E7F1FF"/>
<stop offset="0.210326" stop-color="#FAD9DE"/>
<stop offset="0.586168" stop-color="#EE5998"/>
<stop offset="0.956711" stop-color="#3375F4"/>
</linearGradient>
<linearGradient id="paint17_linear_1_1920" x1="-12.4886" y1="64.5509" x2="94.0306" y2="63.3422" gradientUnits="userSpaceOnUse">
<stop stop-color="#E7F1FF"/>
<stop offset="0.305858" stop-color="#F05596"/>
<stop offset="0.671875" stop-color="#558DF9"/>
<stop offset="0.953125" stop-color="#31BCFF"/>
</linearGradient>
<linearGradient id="paint18_linear_1_1920" x1="-57.7263" y1="70.2376" x2="102.219" y2="68.4591" gradientUnits="userSpaceOnUse">
<stop stop-color="#E7F1FF"/>
<stop offset="0.210326" stop-color="#FAD9DE"/>
<stop offset="0.586168" stop-color="#EE5998"/>
<stop offset="0.956711" stop-color="#3375F4"/>
</linearGradient>
<linearGradient id="paint19_linear_1_1920" x1="-12.4886" y1="64.5509" x2="94.0306" y2="63.3422" gradientUnits="userSpaceOnUse">
<stop stop-color="#E7F1FF"/>
<stop offset="0.305858" stop-color="#F05596"/>
<stop offset="0.671875" stop-color="#558DF9"/>
<stop offset="0.953125" stop-color="#31BCFF"/>
</linearGradient>
</defs>
</svg>
