<svg width="105" height="50" viewBox="0 0 105 50" fill="none" xmlns="http://www.w3.org/2000/svg">
<path d="M24.997 17.4395V32.561M32.5578 25.0003H17.4362M95.3953 41.9466C93.6344 39.6151 91.3561 37.7244 88.7401 36.4233C86.124 35.1223 83.2415 34.4465 80.3198 34.4491C77.398 34.4465 74.5155 35.1223 71.8995 36.4233C69.2834 37.7244 67.0051 39.6151 65.2442 41.9466M95.3953 41.9466C98.8316 38.8901 101.255 34.8613 102.349 30.3944C103.443 25.9275 103.153 21.2336 101.518 16.9352C99.8829 12.6368 96.9798 8.93701 93.1937 6.32644C89.4076 3.71586 84.9174 2.31787 80.3185 2.31787C75.7196 2.31787 71.2294 3.71586 67.4433 6.32644C63.6572 8.93701 60.7541 12.6368 59.119 16.9352C57.484 21.2336 57.1942 25.9275 58.2881 30.3944C59.382 34.8613 61.808 38.8901 65.2442 41.9466M95.3953 41.9466C91.2472 45.6466 85.8783 47.6878 80.3198 47.6799C74.7604 47.6885 69.393 45.6472 65.2442 41.9466M47.6793 25.0003C47.6793 27.979 47.0926 30.9285 45.9527 33.6804C44.8128 36.4323 43.142 38.9328 41.0358 41.0391C38.9295 43.1453 36.4291 44.8161 33.6771 45.956C30.9252 47.0959 27.9757 47.6826 24.997 47.6826C22.0183 47.6826 19.0688 47.0959 16.3169 45.956C13.5649 44.8161 11.0644 43.1453 8.95819 41.0391C6.85194 38.9328 5.18118 36.4323 4.04128 33.6804C2.90139 30.9285 2.3147 27.979 2.3147 25.0003C2.3147 18.9846 4.70443 13.2152 8.95819 8.96146C13.2119 4.70771 18.9813 2.31797 24.997 2.31797C31.0127 2.31797 36.782 4.70771 41.0358 8.96146C45.2895 13.2152 47.6793 18.9846 47.6793 25.0003ZM87.8802 19.3282C87.8802 21.3333 87.0837 23.2564 85.6658 24.6742C84.248 26.0921 82.3249 26.8886 80.3198 26.8886C78.3146 26.8886 76.3916 26.0921 74.9737 24.6742C73.5558 23.2564 72.7593 21.3333 72.7593 19.3282C72.7593 17.323 73.5558 15.4 74.9737 13.9821C76.3916 12.5643 78.3146 11.7677 80.3198 11.7677C82.3249 11.7677 84.248 12.5643 85.6658 13.9821C87.0837 15.4 87.8802 17.323 87.8802 19.3282Z" stroke="white" stroke-width="3" stroke-linecap="round" stroke-linejoin="round"/>
<path d="M24.997 17.4395V32.561M32.5578 25.0003H17.4362M95.3953 41.9466C93.6344 39.6151 91.3561 37.7244 88.7401 36.4233C86.124 35.1223 83.2415 34.4465 80.3198 34.4491C77.398 34.4465 74.5155 35.1223 71.8995 36.4233C69.2834 37.7244 67.0051 39.6151 65.2442 41.9466M95.3953 41.9466C98.8316 38.8901 101.255 34.8613 102.349 30.3944C103.443 25.9275 103.153 21.2336 101.518 16.9352C99.8829 12.6368 96.9798 8.93701 93.1937 6.32644C89.4076 3.71586 84.9174 2.31787 80.3185 2.31787C75.7196 2.31787 71.2294 3.71586 67.4433 6.32644C63.6572 8.93701 60.7541 12.6368 59.119 16.9352C57.484 21.2336 57.1942 25.9275 58.2881 30.3944C59.382 34.8613 61.808 38.8901 65.2442 41.9466M95.3953 41.9466C91.2472 45.6466 85.8783 47.6878 80.3198 47.6799C74.7604 47.6885 69.393 45.6472 65.2442 41.9466M47.6793 25.0003C47.6793 27.979 47.0926 30.9285 45.9527 33.6804C44.8128 36.4323 43.142 38.9328 41.0358 41.0391C38.9295 43.1453 36.4291 44.8161 33.6771 45.956C30.9252 47.0959 27.9757 47.6826 24.997 47.6826C22.0183 47.6826 19.0688 47.0959 16.3169 45.956C13.5649 44.8161 11.0644 43.1453 8.95819 41.0391C6.85194 38.9328 5.18118 36.4323 4.04128 33.6804C2.90139 30.9285 2.3147 27.979 2.3147 25.0003C2.3147 18.9846 4.70443 13.2152 8.95819 8.96146C13.2119 4.70771 18.9813 2.31797 24.997 2.31797C31.0127 2.31797 36.782 4.70771 41.0358 8.96146C45.2895 13.2152 47.6793 18.9846 47.6793 25.0003ZM87.8802 19.3282C87.8802 21.3333 87.0837 23.2564 85.6658 24.6742C84.248 26.0921 82.3249 26.8886 80.3198 26.8886C78.3146 26.8886 76.3916 26.0921 74.9737 24.6742C73.5558 23.2564 72.7593 21.3333 72.7593 19.3282C72.7593 17.323 73.5558 15.4 74.9737 13.9821C76.3916 12.5643 78.3146 11.7677 80.3198 11.7677C82.3249 11.7677 84.248 12.5643 85.6658 13.9821C87.0837 15.4 87.8802 17.323 87.8802 19.3282Z" stroke="url(#paint0_linear_2592_4377)" stroke-width="3" stroke-linecap="round" stroke-linejoin="round"/>
<path d="M24.997 17.4395V32.561M32.5578 25.0003H17.4362M95.3953 41.9466C93.6344 39.6151 91.3561 37.7244 88.7401 36.4233C86.124 35.1223 83.2415 34.4465 80.3198 34.4491C77.398 34.4465 74.5155 35.1223 71.8995 36.4233C69.2834 37.7244 67.0051 39.6151 65.2442 41.9466M95.3953 41.9466C98.8316 38.8901 101.255 34.8613 102.349 30.3944C103.443 25.9275 103.153 21.2336 101.518 16.9352C99.8829 12.6368 96.9798 8.93701 93.1937 6.32644C89.4076 3.71586 84.9174 2.31787 80.3185 2.31787C75.7196 2.31787 71.2294 3.71586 67.4433 6.32644C63.6572 8.93701 60.7541 12.6368 59.119 16.9352C57.484 21.2336 57.1942 25.9275 58.2881 30.3944C59.382 34.8613 61.808 38.8901 65.2442 41.9466M95.3953 41.9466C91.2472 45.6466 85.8783 47.6878 80.3198 47.6799C74.7604 47.6885 69.393 45.6472 65.2442 41.9466M47.6793 25.0003C47.6793 27.979 47.0926 30.9285 45.9527 33.6804C44.8128 36.4323 43.142 38.9328 41.0358 41.0391C38.9295 43.1453 36.4291 44.8161 33.6771 45.956C30.9252 47.0959 27.9757 47.6826 24.997 47.6826C22.0183 47.6826 19.0688 47.0959 16.3169 45.956C13.5649 44.8161 11.0644 43.1453 8.95819 41.0391C6.85194 38.9328 5.18118 36.4323 4.04128 33.6804C2.90139 30.9285 2.3147 27.979 2.3147 25.0003C2.3147 18.9846 4.70443 13.2152 8.95819 8.96146C13.2119 4.70771 18.9813 2.31797 24.997 2.31797C31.0127 2.31797 36.782 4.70771 41.0358 8.96146C45.2895 13.2152 47.6793 18.9846 47.6793 25.0003ZM87.8802 19.3282C87.8802 21.3333 87.0837 23.2564 85.6658 24.6742C84.248 26.0921 82.3249 26.8886 80.3198 26.8886C78.3146 26.8886 76.3916 26.0921 74.9737 24.6742C73.5558 23.2564 72.7593 21.3333 72.7593 19.3282C72.7593 17.323 73.5558 15.4 74.9737 13.9821C76.3916 12.5643 78.3146 11.7677 80.3198 11.7677C82.3249 11.7677 84.248 12.5643 85.6658 13.9821C87.0837 15.4 87.8802 17.323 87.8802 19.3282Z" stroke="url(#paint1_linear_2592_4377)" stroke-width="3" stroke-linecap="round" stroke-linejoin="round"/>
<defs>
<linearGradient id="paint0_linear_2592_4377" x1="-72.2006" y1="43.1679" x2="134.163" y2="38.0752" gradientUnits="userSpaceOnUse">
<stop stop-color="#E7F1FF"/>
<stop offset="0.210326" stop-color="#FAD9DE"/>
<stop offset="0.586168" stop-color="#EE5998"/>
<stop offset="0.956711" stop-color="#3375F4"/>
</linearGradient>
<linearGradient id="paint1_linear_2592_4377" x1="-13.806" y1="39.8606" x2="123.623" y2="36.3996" gradientUnits="userSpaceOnUse">
<stop stop-color="#E7F1FF"/>
<stop offset="0.305858" stop-color="#F05596"/>
<stop offset="0.671875" stop-color="#558DF9"/>
<stop offset="0.953125" stop-color="#31BCFF"/>
</linearGradient>
</defs>
</svg>
