<svg width="72" height="72" viewBox="0 0 72 72" fill="none" xmlns="http://www.w3.org/2000/svg">
<path d="M36 59.2541C36.7784 59.2541 37.3622 58.6703 37.3622 57.8919V21.0162L53.3189 36.973C53.8054 37.4595 54.6811 37.4595 55.1676 36.973C55.6541 36.4865 55.6541 35.6108 55.1676 35.1243L36.973 16.8324C36.4865 16.3459 35.6108 16.3459 35.1243 16.8324L16.8324 35.027C16.3459 35.5135 16.3459 36.3892 16.8324 36.8757C17.3189 37.3622 18.1946 37.3622 18.6811 36.8757L34.6378 20.9189V57.7946C34.6378 58.6703 35.2216 59.2541 36 59.2541Z" fill="white"/>
<path d="M36 59.2541C36.7784 59.2541 37.3622 58.6703 37.3622 57.8919V21.0162L53.3189 36.973C53.8054 37.4595 54.6811 37.4595 55.1676 36.973C55.6541 36.4865 55.6541 35.6108 55.1676 35.1243L36.973 16.8324C36.4865 16.3459 35.6108 16.3459 35.1243 16.8324L16.8324 35.027C16.3459 35.5135 16.3459 36.3892 16.8324 36.8757C17.3189 37.3622 18.1946 37.3622 18.6811 36.8757L34.6378 20.9189V57.7946C34.6378 58.6703 35.2216 59.2541 36 59.2541Z" fill="url(#paint0_linear_1_1063)"/>
<path d="M36 59.2541C36.7784 59.2541 37.3622 58.6703 37.3622 57.8919V21.0162L53.3189 36.973C53.8054 37.4595 54.6811 37.4595 55.1676 36.973C55.6541 36.4865 55.6541 35.6108 55.1676 35.1243L36.973 16.8324C36.4865 16.3459 35.6108 16.3459 35.1243 16.8324L16.8324 35.027C16.3459 35.5135 16.3459 36.3892 16.8324 36.8757C17.3189 37.3622 18.1946 37.3622 18.6811 36.8757L34.6378 20.9189V57.7946C34.6378 58.6703 35.2216 59.2541 36 59.2541Z" fill="url(#paint1_linear_1_1063)"/>
<path d="M36 0C16.1514 0 0 16.1514 0 36C0 55.8486 16.1514 72 36 72C55.8486 72 72 55.8486 72 36C72 16.1514 55.8486 0 36 0ZM36 69.2757C17.6108 69.2757 2.72432 54.3892 2.72432 36C2.72432 17.6108 17.6108 2.72432 36 2.72432C54.3892 2.72432 69.2757 17.6108 69.2757 36C69.2757 54.3892 54.3892 69.2757 36 69.2757Z" fill="white"/>
<path d="M36 0C16.1514 0 0 16.1514 0 36C0 55.8486 16.1514 72 36 72C55.8486 72 72 55.8486 72 36C72 16.1514 55.8486 0 36 0ZM36 69.2757C17.6108 69.2757 2.72432 54.3892 2.72432 36C2.72432 17.6108 17.6108 2.72432 36 2.72432C54.3892 2.72432 69.2757 17.6108 69.2757 36C69.2757 54.3892 54.3892 69.2757 36 69.2757Z" fill="url(#paint2_linear_1_1063)"/>
<path d="M36 0C16.1514 0 0 16.1514 0 36C0 55.8486 16.1514 72 36 72C55.8486 72 72 55.8486 72 36C72 16.1514 55.8486 0 36 0ZM36 69.2757C17.6108 69.2757 2.72432 54.3892 2.72432 36C2.72432 17.6108 17.6108 2.72432 36 2.72432C54.3892 2.72432 69.2757 17.6108 69.2757 36C69.2757 54.3892 54.3892 69.2757 36 69.2757Z" fill="url(#paint3_linear_1_1063)"/>
<defs>
<linearGradient id="paint0_linear_1_1063" x1="-53.2859" y1="64.8347" x2="94.3561" y2="63.193" gradientUnits="userSpaceOnUse">
<stop stop-color="#E7F1FF"/>
<stop offset="0.210326" stop-color="#FAD9DE"/>
<stop offset="0.586168" stop-color="#EE5998"/>
<stop offset="0.956711" stop-color="#3375F4"/>
</linearGradient>
<linearGradient id="paint1_linear_1_1063" x1="-11.5279" y1="59.5854" x2="86.7975" y2="58.4697" gradientUnits="userSpaceOnUse">
<stop stop-color="#E7F1FF"/>
<stop offset="0.305858" stop-color="#F05596"/>
<stop offset="0.671875" stop-color="#558DF9"/>
<stop offset="0.953125" stop-color="#31BCFF"/>
</linearGradient>
<linearGradient id="paint2_linear_1_1063" x1="-53.2859" y1="64.8347" x2="94.3561" y2="63.193" gradientUnits="userSpaceOnUse">
<stop stop-color="#E7F1FF"/>
<stop offset="0.210326" stop-color="#FAD9DE"/>
<stop offset="0.586168" stop-color="#EE5998"/>
<stop offset="0.956711" stop-color="#3375F4"/>
</linearGradient>
<linearGradient id="paint3_linear_1_1063" x1="-11.5279" y1="59.5854" x2="86.7975" y2="58.4697" gradientUnits="userSpaceOnUse">
<stop stop-color="#E7F1FF"/>
<stop offset="0.305858" stop-color="#F05596"/>
<stop offset="0.671875" stop-color="#558DF9"/>
<stop offset="0.953125" stop-color="#31BCFF"/>
</linearGradient>
</defs>
</svg>
