<svg width="140" height="34" viewBox="0 0 140 34" fill="none" xmlns="http://www.w3.org/2000/svg">
<path fill-rule="evenodd" clip-rule="evenodd" d="M0.699707 16.7468V33.2655H17.3396H33.9795V16.7468V0.228027H17.3396H0.699707V16.7468ZM62.6272 8.94431V10.4907H65.5846H68.5421V18.2581V26.0254H70.2524H71.9627V18.2581V10.4907H74.9201H77.8775V8.94431V7.39787H70.2524H62.6272V8.94431ZM84.0061 16.7116V26.0254H90.5979H97.1898V24.479V22.9325H92.2726H87.3555V15.1652V7.39787H85.6808H84.0061V16.7116ZM103.247 16.7116V26.0254H110.231H117.215V24.5141V23.0028H111.727H106.24V20.5777V18.1526H110.445H114.649V16.6413V15.1301H110.445H106.24V12.7753V10.4205H111.727H117.215V8.90916V7.39787H110.231H103.247V16.7116ZM123.842 16.7116V26.0254H125.517H127.191V22.7919V19.5585L129.24 19.5623L131.289 19.5662L133.574 22.7782L135.859 25.9903L137.84 26.009C139.432 26.024 139.814 26.0099 139.786 25.9372C139.767 25.8875 138.711 24.4082 137.441 22.6499C136.171 20.8917 135.058 19.3501 134.969 19.2243C134.817 19.0094 134.814 18.9929 134.936 18.9521C135.331 18.8197 136.234 18.4142 136.585 18.2111C136.808 18.0823 137.282 17.6914 137.638 17.3423C138.165 16.8262 138.341 16.5965 138.583 16.1122C139.056 15.1616 139.183 14.578 139.183 13.3376C139.183 12.1054 139.055 11.5091 138.597 10.5962C137.704 8.81497 135.869 7.72958 133.314 7.47098C132.899 7.42887 130.736 7.39787 128.217 7.39787H123.842V16.7116ZM22.8762 16.6413C25.0989 21.6673 26.9341 25.819 26.9544 25.8672C26.9833 25.9361 26.6258 25.9548 25.301 25.9536L23.6108 25.9522L20.4817 18.6608C18.7607 14.6505 17.3311 11.3448 17.3049 11.3147C17.2788 11.2847 15.8356 14.5664 14.098 18.6076L10.9386 25.9551H9.31469H7.69075L7.78759 25.7267C8.0358 25.1411 15.7571 7.70146 15.8171 7.59096C15.8797 7.47554 16.0053 7.4669 17.3601 7.48433L18.835 7.50331L22.8762 16.6413ZM40.1794 16.7468V26.0254H41.8181H43.4568L43.4749 19.5273L43.4931 13.0293L48.5884 19.5266L53.6837 26.024L55.1268 26.0247L56.5699 26.0254V16.7468V7.46816H54.8956H53.2213L53.2031 13.7947L53.1849 20.1213L48.2321 13.7984L43.2793 7.47547L41.7294 7.47182L40.1794 7.46816V16.7468ZM133.249 10.5903C134.279 10.8061 135.134 11.3986 135.491 12.1435C136.204 13.6303 135.648 15.3359 134.205 16.0919C133.348 16.5408 133.218 16.5564 130.06 16.5876L127.191 16.6161V13.5535V10.4907L129.989 10.4919C132.093 10.4929 132.9 10.5172 133.249 10.5903Z" fill="white"/>
</svg>
